<?xml version="1.0" encoding="UTF-8" standalone="no"?>
<!-- Created with Inkscape (http://www.inkscape.org/) -->

<svg
   xmlns:dc="http://purl.org/dc/elements/1.1/"
   xmlns:cc="http://creativecommons.org/ns#"
   xmlns:rdf="http://www.w3.org/1999/02/22-rdf-syntax-ns#"
   xmlns:svg="http://www.w3.org/2000/svg"
   xmlns="http://www.w3.org/2000/svg"
   version="1.1"
   width="150"
   height="125"
   id="svg4333">
  <defs
     id="defs4335" />
  <metadata
     id="metadata4338">
    <rdf:RDF>
      <cc:Work
         rdf:about="">
        <dc:format>image/svg+xml</dc:format>
        <dc:type
           rdf:resource="http://purl.org/dc/dcmitype/StillImage" />
        <dc:title></dc:title>
      </cc:Work>
    </rdf:RDF>
  </metadata>
  <g
     transform="translate(0,-927.3622)"
     id="layer1">
    <g
       transform="translate(-0.33686,922.63596)"
       id="Layer_10">
      <g
         id="g596">
        <g
           id="g598">
          <path
             d="m 90.848,59.435 c -0.142,4.355 -1.937,5.629 -6.195,5.109 0.804,1.055 1.607,2.11 2.411,3.165 2.462,-8.731 9.314,-17.542 17.819,-21.08 -1.025,-0.582 -2.05,-1.164 -3.075,-1.746 3.766,9.952 -8.341,21.018 -16.732,24.099 1.055,0.804 2.11,1.607 3.165,2.411 -0.79,-7.59 7.671,-33.232 18.572,-27.25 2.778,1.525 -7.543,9.757 -8.552,10.503 -4.397,3.251 -9.842,6.94 -15.358,7.815 1.025,0.582 2.05,1.164 3.075,1.746 -1.426,-7.129 4.906,-16.593 8.745,-22.036 1.553,-2.201 14.318,-15.193 15.381,-6.408 0.797,6.594 -4.702,14.12 -8.372,19.068 -2.733,3.685 -9.561,12.611 -15.084,11.484 -6.084,-1.241 1.114,-14.43 2.463,-16.799 3.961,-6.958 9.621,-14.113 16.729,-18.045 2.562,-1.417 5.775,-1.619 8.173,0.333 2.547,2.074 0.386,6.445 -0.757,8.659 -3.711,7.193 -10.352,13.653 -17.187,17.883 -1.401,0.867 -2.865,1.562 -4.471,1.94 0.941,0.383 1.882,0.766 2.823,1.149 -2.174,-5.04 1.34,-14.044 2.9,-18.818 1.604,-4.907 5.551,-16.731 12.17,-16.752 10.551,-0.034 2.972,31.077 -10.601,28.413 -8.282,-1.625 -5.04,-9.915 -1.822,-14.702 3.861,-5.743 10.988,-11.983 18.237,-12.246 10.003,-0.363 6.799,10.614 3.52,15.592 -3.921,5.951 -11.145,13.078 -18.531,14.103 1.025,0.582 2.05,1.164 3.075,1.746 -2.067,-7.237 1.517,-17.48 4.901,-23.787 2.062,-3.842 4.494,-5.842 8.896,-5.936 4.31,-0.092 5.674,3.374 5.709,7.082 0.08,8.419 -4.956,16.469 -12.092,20.507 -3.884,2.198 -10.415,3.487 -10.714,-2.633 -0.314,-6.432 5.556,-13.168 10.618,-16.298 3.811,-2.356 9.064,-2.456 10.346,2.554 1.238,4.842 -2.437,10.919 -5.624,14.337 -1.473,1.58 -14.923,12.035 -16.79,7.488 -1.333,-3.248 1.657,-7.941 3.688,-10.236 3.065,-3.461 6.983,-6.174 11.039,-8.336 2.115,-1.127 7.674,-3.867 9.549,-1.077 1.982,2.948 -1.697,6.716 -3.412,8.782 -2.468,2.972 -16.913,18.092 -19.666,9.966 -2.797,-8.256 16.938,-12.772 22.212,-11.293 -0.582,-1.025 -1.164,-2.05 -1.746,-3.075 -2.502,5.978 -8.688,10.179 -14.205,13.081 -1.986,1.044 -12.62,5.924 -11.566,0.379 0.711,-3.741 3.697,-8.17 7.752,-8.639 4.716,-0.544 5.511,5.744 4.519,8.995 -2.26,7.402 -14.966,13.281 -22.132,12.609 0.804,0.612 1.607,1.224 2.411,1.835 -0.683,-4.641 0.193,-7.198 4.775,-8.881 -0.941,-0.383 -1.882,-0.766 -2.823,-1.149 5.566,7.867 7.583,20.615 -0.696,27.405 1.393,0.368 2.786,0.735 4.178,1.103 -2.629,-7.01 -1.165,-13.537 1.087,-20.41 -1.393,0.368 -2.786,0.735 -4.178,1.103 7.498,5.825 8.8,15.397 7.963,24.32 1.254,-0.72 2.508,-1.439 3.762,-2.159 -5.553,-3.162 -8.557,-8.799 -6.716,-15.106 2.516,-8.622 7.001,3.02 7.656,6.151 0.704,3.366 0.561,10.548 -4.303,6.416 -4.379,-3.72 -2.875,-9.413 0.608,-13.1 -1.01,0.13 -2.02,0.261 -3.029,0.391 4.92,2.739 12.426,8.873 4.719,13.166 -1.121,0.624 -3.62,1.539 -4.767,0.509 -1.941,-1.744 2.592,-7.845 3.468,-9.137 -1.14,0.299 -2.28,0.598 -3.42,0.897 2.311,1.529 4.016,3.447 5.508,5.776 0.854,1.333 1.34,2.816 1.727,4.336 0.037,0.592 0.073,1.185 0.11,1.777 -1.167,2.196 -1.001,2.655 0.499,1.378 -1.417,-0.37 -2.566,-2.28 -3.201,-3.435 -1.604,-2.916 1.052,-5.198 3.315,-6.571 -1.01,-0.13 -2.02,-0.261 -3.029,-0.391 3.399,2.681 4.789,6.805 5.879,10.854 0.582,-1.025 1.164,-2.05 1.746,-3.075 -7.477,1.283 -10.027,-4.622 -5.177,-9.952 -1.178,0 -2.357,0 -3.535,0 3.075,3.383 4.706,7.58 5.878,11.94 1.224,-0.941 2.448,-1.882 3.672,-2.823 -4.908,-2.351 -5.735,-5.354 -1.087,-8.726 -1.14,-0.299 -2.28,-0.598 -3.42,-0.897 1.715,3.754 1.573,7.123 0.835,11.117 1.393,-0.368 2.786,-0.735 4.178,-1.103 -3.902,-3.333 -4.69,-6.326 -4.702,-11.276 -0.833,0.833 -1.667,1.667 -2.5,2.5 6.285,-0.166 7.376,4.369 3.6,8.876 -5.562,6.637 -10.306,-1.246 -12.059,-6.606 -0.997,-3.05 -5.826,-1.745 -4.821,1.329 1.705,5.216 4.366,11.161 10.162,12.7 4.058,1.077 8.137,-1.362 10.654,-4.366 6.419,-7.661 2.782,-17.205 -7.536,-16.933 -1.359,0.036 -2.503,1.11 -2.5,2.5 0.015,6.272 1.271,10.63 6.167,14.811 1.298,1.109 3.809,0.897 4.178,-1.103 1.001,-5.418 0.977,-9.901 -1.339,-14.97 -0.528,-1.156 -2.394,-1.642 -3.42,-0.897 -7.543,5.473 -7.7,13.153 1.087,17.361 1.92,0.919 4.277,-0.575 3.672,-2.823 -1.401,-5.211 -3.502,-10.119 -7.165,-14.146 -0.886,-0.975 -2.649,-0.974 -3.535,0 -8.446,9.281 -2.286,20.424 10.041,18.309 1.35,-0.231 2.074,-1.859 1.746,-3.075 -1.291,-4.795 -3.145,-9.89 -7.165,-13.06 -0.885,-0.698 -1.985,-1.024 -3.029,-0.391 -4.259,2.583 -6.928,6.099 -5.953,11.227 0.667,3.507 4.072,7.145 7.508,8.042 4.286,1.12 5.39,-4.506 5.332,-7.531 -0.118,-6.083 -5,-11.823 -9.798,-14.999 -1.192,-0.789 -2.69,-0.181 -3.42,0.897 -2.504,3.695 -6.465,9.979 -3.309,14.431 2.267,3.198 6.717,3.021 9.991,1.702 3.717,-1.499 7.124,-4.721 7.417,-8.925 0.45,-6.43 -5.737,-10.787 -10.679,-13.539 -0.963,-0.536 -2.249,-0.435 -3.029,0.391 -6.058,6.409 -6.619,15.72 0.813,21.293 2.41,1.807 5.917,2.287 8.495,0.606 3.58,-2.335 3.515,-7.446 3.036,-11.158 -0.812,-6.296 -7.665,-21.762 -15.44,-12.125 -6.726,8.336 -1.399,20.172 6.863,24.876 1.762,1.003 3.588,-0.309 3.762,-2.159 0.947,-10.098 -0.988,-21.298 -9.428,-27.855 -1.49,-1.158 -3.544,-0.833 -4.178,1.103 -2.52,7.69 -4.013,15.268 -1.087,23.068 0.695,1.853 2.659,2.35 4.178,1.103 9.922,-8.137 8.258,-23.881 1.478,-33.464 -0.612,-0.865 -1.717,-1.555 -2.823,-1.149 -7.415,2.724 -9.384,7.444 -8.268,15.032 0.169,1.153 1.398,1.741 2.411,1.835 10.824,1.015 26.969,-8.473 27.569,-20.141 0.26,-5.074 -2.594,-9.965 -7.611,-11.265 -5.849,-1.516 -10.887,3.448 -13.421,8.079 -1.625,2.968 -3.027,8.017 -0.248,10.793 2.778,2.774 6.977,2.247 10.455,1.378 9.554,-2.385 19.853,-9.725 23.71,-18.941 0.529,-1.264 -0.561,-2.743 -1.746,-3.075 -9.914,-2.779 -36.697,6.946 -26.826,20.707 8.126,11.329 27.396,-10.594 30.902,-17.313 2.903,-5.565 -0.738,-11.749 -6.835,-12.135 -7.42,-0.47 -15.469,5.855 -20.495,10.613 -4.318,4.088 -9.057,12.117 -5.586,18.023 3.108,5.29 11.147,2.055 15.163,0.036 7.184,-3.611 12.276,-9.35 15.231,-16.756 2.675,-6.704 0.846,-16.358 -7.68,-17.072 -9.925,-0.832 -17.587,8.515 -20.987,16.761 -2.891,7.01 -0.318,14.949 7.847,15.613 14.812,1.204 27.984,-20.279 22.76,-33.333 -2.414,-6.032 -10.678,-7.908 -16.192,-4.937 -6.884,3.709 -9.711,12.857 -11.379,19.938 -1.092,4.637 -2.076,10.2 -0.737,14.887 0.411,1.438 1.715,1.935 3.075,1.746 7.316,-1.015 13.95,-7.216 18.573,-12.546 4.405,-5.078 9.124,-12.688 6.515,-19.628 -2.408,-6.406 -9.884,-8.244 -15.888,-6.664 -7.141,1.879 -13.201,7.565 -17.531,13.287 -3.677,4.858 -6.535,11.729 -3.472,17.553 3.041,5.782 11.093,6.542 16.448,4.26 10.765,-4.588 18.278,-25.174 9.72,-34.428 -8.164,-8.828 -17.313,3.469 -20.54,10.205 -2.606,5.441 -4.374,11.316 -5.499,17.232 -0.78,4.104 -1.554,8.88 0.155,12.841 0.448,1.038 1.831,1.383 2.823,1.149 6.739,-1.586 12.645,-7.259 17.24,-12.122 4.658,-4.93 9.768,-11.481 9.969,-18.566 0.171,-6.009 -6.273,-9.683 -11.702,-8.996 -6.772,0.857 -12.476,6.855 -16.674,11.746 -4.799,5.59 -21.255,29.252 -6.904,33.82 5.462,1.739 10.905,-2.721 14.626,-6.158 5.561,-5.136 10.163,-11.784 13.225,-18.686 1.938,-4.367 3.561,-9.65 1.333,-14.202 -2.513,-5.132 -9.479,-4.268 -13.603,-2.105 -6.611,3.466 -11.29,10.986 -14.635,17.368 -2.78,5.304 -5.872,12.197 -4.645,18.33 0.289,1.441 1.81,1.947 3.075,1.746 6.615,-1.049 37.584,-18.561 25.576,-27.121 -15.091,-10.761 -27.704,20.301 -26.567,31.228 0.154,1.48 1.502,3.021 3.165,2.411 10.795,-3.963 25.045,-17.51 20.224,-30.249 -0.434,-1.146 -1.733,-2.304 -3.075,-1.746 -10.197,4.242 -18.326,13.985 -21.311,24.572 -0.482,1.711 0.836,2.972 2.411,3.165 7.162,0.875 10.968,-3.14 11.195,-10.109 0.105,-3.227 -4.895,-3.216 -5,0 l 0,0 z"
             id="path600"
             style="fill:#ffc656" />
        </g>
      </g>
      <g
         id="g602">
        <g
           id="g604">
          <path
             d="m 75.72,84.012 c 1.59,8.018 -3.15,14.973 -6.27,21.987 1.553,0.42 3.106,0.841 4.659,1.262 0.089,-5.709 0.742,-11.296 4.006,-16.129 -1.523,-0.199 -3.046,-0.398 -4.569,-0.597 0.607,3.144 2.653,17.601 -4.456,16.534 -7.076,-1.062 -0.112,-10.134 2.112,-12.17 -1.178,0 -2.357,0 -3.535,0 6.174,5.966 1.076,14.074 -4.929,17.813 1.224,0.498 2.448,0.996 3.672,1.494 -2.938,-9.795 0.672,-23.226 9.721,-28.699 -1.14,-0.299 -2.28,-0.598 -3.42,-0.897 1.346,1.939 3.735,5.319 1.549,7.472 -1.572,1.549 -4.664,1.313 -6.599,0.888 -9.388,-2.065 -4.041,-11.014 0.28,-15.462 -1.178,0 -2.357,0 -3.535,0 3.243,3.672 6.486,9.046 1.392,12.58 -3.616,2.507 -8.892,3.266 -13.183,2.657 -4.349,-0.617 -4.931,-2.043 -1.698,-5.063 1.269,-1.185 9.542,-7.965 9.892,-3.312 0.585,7.771 -9.205,23.021 -17.807,15.879 -3.457,-2.87 -6.984,-8.126 -4.394,-12.556 2.13,-3.642 7.019,-5.421 10.839,-6.505 3.622,-1.027 7.925,-1.765 11.648,-0.845 1.573,0.389 0.618,0.381 0.75,-0.042 -0.398,1.283 -3.317,2.876 -4.554,3.636 -6.237,3.833 -14.867,8.468 -22.396,8.104 -4.191,-0.203 -0.523,-6.217 0.526,-7.857 2.642,-4.131 6.876,-8.086 11.656,-9.486 4.808,-1.408 8.489,3.364 8.559,7.859 0.148,9.487 -18.352,11.094 -24.588,9.408 -5.01,-1.354 -2.872,-5.036 -0.223,-7.97 3.126,-3.463 10.162,-10.049 15.475,-7.553 7.442,3.496 4.24,17.983 -3.131,19.492 C 36.488,97.301 28.338,89.83 24.997,84.962 21.626,80.05 24.562,76.738 29.61,75.43 c 4.788,-1.241 11.167,-0.608 15.007,2.738 4.85,4.226 0.97,11.913 -3.552,14.662 -8.176,4.971 -26.63,-3.457 -26.468,-13.709 0.111,-6.994 14,-6.869 18.006,-5.483 6.416,2.221 9.606,13.047 0.784,13.992 -8.374,0.898 -15.894,-5.875 -11.161,-13.976 1.913,-3.274 5.601,-4.896 9.252,-5.068 4.215,-0.198 11.363,2.197 13.128,6.447 2.708,6.52 -10.692,9.567 -14.688,7.789 -2.707,-1.205 -4.771,-5.37 -3.511,-8.208 1.179,-2.654 4.888,-3.152 7.412,-2.809 5.96,0.811 9.043,5.894 9.202,11.544 0.612,-0.804 1.224,-1.607 1.835,-2.411 -3.465,1.322 -6.842,0.707 -10.112,-0.877 -1.478,-0.716 -7.134,-4.231 -3.776,-5.171 4.257,-1.191 8.955,2.291 10.172,6.209 1.647,5.302 -6.088,6.715 -9.538,5.158 -2.61,-1.178 -4.85,-4.387 -3.498,-7.238 1.495,-3.153 7.197,-4.123 10.032,-2.59 2.442,1.321 2.059,4.801 1.345,6.951 -1.138,3.433 -4.78,4.95 -8.092,5.078 0.804,0.612 1.607,1.224 2.411,1.835 -0.292,-1.145 0.875,-2.94 1.087,-4.105 0.575,-3.151 -4.243,-4.498 -4.821,-1.329 -0.484,2.655 -1.794,3.994 -1.087,6.764 0.267,1.044 1.321,1.877 2.411,1.835 6.415,-0.248 11.746,-3.862 13.349,-10.245 1.346,-5.359 -1.468,-10.715 -6.805,-12.204 -5.885,-1.641 -13.898,2.013 -15.114,8.253 -1.171,6.014 4.038,11.109 9.434,12.458 6.74,1.685 14.353,-3.096 13.966,-10.369 -0.381,-7.168 -8.255,-11.892 -14.789,-11.557 -5.895,0.302 -8.744,5.596 -4.783,10.224 4.562,5.331 12.818,8.306 19.537,5.741 1.031,-0.394 1.869,-1.224 1.835,-2.411 -0.204,-7.292 -3.759,-13.267 -10.729,-15.833 -5.207,-1.917 -11.66,-0.572 -14.907,4.053 -3.592,5.116 0.14,12.887 5.009,15.57 5.53,3.047 13.363,0.961 17.987,-2.834 5.008,-4.11 5.877,-10.183 1.173,-14.91 -5.652,-5.68 -15.264,-7.321 -22.422,-4.016 -5.664,2.615 -9.363,9.514 -8.313,15.652 1.32,7.715 8.489,10.96 15.593,11.604 6.535,0.591 11.98,-3.52 12.528,-10.071 0.56,-6.692 -5.107,-12.052 -10.906,-14.059 -10.721,-3.711 -28.628,3.83 -21.726,17.025 5.037,9.628 19.435,16.353 29.856,12.725 11.211,-3.903 14.82,-20.081 3.547,-26 -7.525,-3.951 -23.429,-3.795 -26.096,6.404 -1.636,6.258 4.289,12.359 8.628,15.867 4.891,3.954 10.796,7.176 17.252,6.227 C 54.06,99.347 56.9,86.709 54.282,78.949 49.913,65.995 36.437,72.034 29.191,78.567 c -3.38,3.048 -7.625,7.905 -6.049,12.857 1.296,4.073 6.063,5.528 9.848,5.981 8.839,1.059 22.547,-1.594 26.674,-10.631 4.438,-9.715 -5.87,-20.049 -15.504,-16.367 -7.529,2.877 -17.809,12.895 -15.967,21.82 2.608,12.637 27.885,-1.569 32.84,-4.744 2.681,-1.718 6.823,-4.77 5.665,-8.519 -1.011,-3.271 -5.207,-3.817 -8.083,-3.959 -8.379,-0.413 -19.015,2.706 -24.073,9.768 -6.167,8.61 3.574,21.75 12.826,22.433 10.179,0.75 17.259,-12.506 18.366,-20.95 0.496,-3.779 -1.054,-7.995 -5.276,-8.462 -5.213,-0.576 -11.183,4.15 -14.445,7.723 -2.571,2.816 -3.642,7.103 -0.288,9.788 3.319,2.657 8.217,2.831 12.259,2.432 9.841,-0.97 19.156,-7.803 13.879,-18.392 -0.984,-1.976 -2.475,-3.732 -3.926,-5.375 -0.893,-1.012 -2.629,-0.933 -3.535,0 -4.129,4.25 -8.187,9.612 -6.959,15.873 0.867,4.419 5.343,7.167 9.414,8.062 3.854,0.848 8.343,0.263 11.243,-2.594 3.834,-3.777 1.494,-9.523 -1.076,-13.227 -0.767,-1.105 -2.187,-1.643 -3.42,-0.897 -10.941,6.618 -15.604,22.391 -12.019,34.345 0.453,1.509 2.271,2.367 3.672,1.494 8.79,-5.474 14.531,-17.365 5.94,-25.666 -1.012,-0.978 -2.518,-0.932 -3.535,0 -5.662,5.182 -10.928,17.154 -0.332,20.43 3.779,1.168 7.326,-0.968 9.506,-3.911 3.775,-5.097 2.629,-12.959 1.526,-18.676 -0.442,-2.29 -3.462,-2.236 -4.569,-0.597 -3.738,5.535 -4.587,12.109 -4.689,18.653 -0.037,2.347 3.617,3.605 4.659,1.262 3.765,-8.468 8.681,-16.22 6.773,-25.839 -0.622,-3.16 -5.441,-1.818 -4.816,1.33 l 0,0 z"
             id="path606"
             style="fill:#ffc656" />
        </g>
      </g>
    </g>
    <g
       transform="translate(-0.33686,922.63596)"
       id="Layer_11">
      <g
         id="g609">
        <g
           id="g611">
          <path
             d="m 97.031,60.758 c 0.792,0.333 1.375,0.322 1.767,1.025 1.439,-0.841 2.878,-1.682 4.317,-2.523 -3.792,-5.925 -5.564,-12.731 0.696,-17.623 -1.393,-0.368 -2.786,-0.735 -4.178,-1.103 1.147,4.253 2.85,8.303 2.174,12.801 -0.425,2.83 2.848,4.284 4.569,1.926 0.96,-1.314 2.751,-4.553 4.689,-4.711 1.387,-0.113 3.208,1.012 4.444,1.512 -0.199,-1.523 -0.398,-3.046 -0.597,-4.569 -5.173,3.105 -10.352,6.206 -15.217,9.782 -2.554,1.877 -0.138,6.189 2.523,4.317 3.78,-2.658 6.934,-5.812 9.593,-9.592 1.632,-2.32 -2.092,-5.186 -3.926,-3.029 -2.569,3.02 -6.022,3.17 -9.277,5.043 1.224,0.498 2.448,0.996 3.672,1.494 -1.605,-3.994 -2.929,-7.351 -2.174,-11.714 -1.607,0 -3.214,0 -4.821,0 1.121,3.382 1.986,6.616 2.084,10.205 0.088,3.216 5,3.23 5,0 0,-3.623 0,-7.247 0,-10.87 -1.667,0 -3.333,0 -5,0 0.31,3.802 1.592,7.621 2.482,11.319 1.607,-0.443 3.214,-0.886 4.822,-1.329 -0.096,-0.277 -0.148,-0.589 -0.219,-0.872 -0.782,-3.127 -5.604,-1.8 -4.821,1.329 0.071,0.283 0.124,0.594 0.219,0.872 1.042,3.029 5.582,1.829 4.822,-1.329 -0.751,-3.121 -2.097,-7.454 -2.304,-9.99 -0.258,-3.169 -5,-3.266 -5,0 0,3.623 0,7.247 0,10.87 1.667,0 3.333,0 5,0 -0.11,-4.018 -1.003,-7.733 -2.263,-11.534 -0.712,-2.149 -4.369,-2.613 -4.821,0 -0.931,5.377 0.168,9.381 2.174,14.373 0.595,1.481 2.151,2.37 3.672,1.494 3.762,-2.165 7.291,-2.301 10.289,-5.826 -1.309,-1.01 -2.618,-2.02 -3.926,-3.029 -2.146,3.051 -4.748,5.653 -7.799,7.798 0.841,1.439 1.682,2.878 2.523,4.317 4.866,-3.577 10.044,-6.677 15.217,-9.782 2.012,-1.208 1.332,-3.788 -0.597,-4.569 -2.509,-1.016 -4.857,-2.096 -7.595,-1.41 -3.177,0.796 -5.407,4.473 -7.185,6.907 1.523,0.642 3.046,1.284 4.569,1.926 0.835,-5.554 -0.744,-10.16 -2.174,-15.459 -0.536,-1.985 -2.755,-2.215 -4.178,-1.103 -7.986,6.24 -6.405,15.984 -1.478,23.682 1.732,2.707 5.893,0.307 4.317,-2.523 -1.234,-2.217 -2.572,-2.405 -4.755,-3.323 -2.97,-1.251 -4.254,3.59 -1.329,4.82 l 0,0 z"
             id="path613"
             style="fill:#ec008c" />
        </g>
      </g>
      <g
         id="g615">
        <g
           id="g617">
          <path
             d="m 42.587,92.043 c -0.001,-0.053 -0.001,-0.107 -0.002,-0.16 -0.016,-1.03 -0.742,-2.224 -1.835,-2.411 -0.006,-10e-4 -0.012,-0.002 -0.017,-0.003 -1.461,-0.25 -2.535,0.379 -3.076,1.746 0.229,-0.577 -7.542,-4.334 -7.8,-7.053 -0.104,-1.085 1.246,-1.213 2.023,-1.101 2.622,0.379 4.623,2.801 6.048,4.809 1.304,1.837 4.867,1.444 4.659,-1.262 -0.224,-2.918 0.166,-5.766 1.311,-8.475 0.424,-1.002 0.992,-1.958 1.715,-2.771 0.586,-0.391 0.539,-0.467 -0.141,-0.228 0.622,0.977 0.705,2.828 0.81,3.865 0.573,5.648 -4.775,11.369 -7.268,16.129 1.553,0.42 3.106,0.841 4.659,1.262 0.072,-7.186 1.227,-14.3 5.094,-20.477 -1.439,-0.841 -2.878,-1.682 -4.317,-2.523 -2.174,4.348 -4.348,8.695 -6.522,13.043 -1.44,2.88 2.553,5.237 4.317,2.523 1.295,-1.993 1.412,-4.376 1.428,-6.697 0.021,-2.979 -3.953,-3.195 -4.911,-0.665 -1.258,3.323 -3.228,6.243 -5.183,9.186 1.439,0 2.878,0 4.317,0 -1.82,-3.345 -4.287,-6.454 -6.913,-9.202 -1.01,1.309 -2.02,2.618 -3.029,3.926 2.476,1.171 5.013,2.127 7.103,3.957 1.01,-1.309 2.02,-2.618 3.029,-3.926 -0.906,-0.448 -1.739,-1.006 -2.5,-1.674 -1.498,-1.244 -0.678,-1.902 -1.133,0.068 -1.025,0.582 -2.05,1.164 -3.075,1.746 0.139,0.175 0.279,0.351 0.418,0.525 2.352,2.199 5.895,-1.329 3.535,-3.535 -0.812,-0.76 -1.553,-1.461 -2.625,-1.812 -1.256,-0.411 -2.779,0.464 -3.075,1.746 -0.75,3.248 3.618,5.943 5.931,7.253 2.414,1.367 5.219,-2.01 3.029,-3.926 -2.443,-2.14 -5.205,-3.363 -8.115,-4.739 -2.511,-1.187 -5.075,1.786 -3.029,3.926 2.353,2.462 4.5,5.192 6.131,8.19 0.944,1.734 3.321,1.5 4.317,0 2.213,-3.331 4.267,-6.629 5.687,-10.38 -1.637,-0.222 -3.274,-0.443 -4.911,-0.665 -0.01,1.429 0.067,2.922 -0.746,4.173 1.439,0.841 2.878,1.682 4.317,2.523 2.174,-4.348 4.348,-8.696 6.522,-13.043 1.436,-2.872 -2.596,-5.273 -4.317,-2.523 -4.318,6.898 -5.696,14.968 -5.776,23 -0.024,2.427 3.489,3.496 4.659,1.262 2.43,-4.642 5.495,-8.876 7.356,-13.811 1.427,-3.784 0.821,-9.664 -2.01,-12.68 -2.351,-2.504 -5.812,-0.501 -7.441,1.677 -2.886,3.856 -4.015,9.026 -3.65,13.77 1.553,-0.42 3.106,-0.841 4.659,-1.262 -2.688,-3.787 -6.135,-7.145 -11.026,-7.317 -3.581,-0.125 -6.201,2.727 -6.363,6.132 -0.314,6.591 14.276,16.833 17.622,8.382 -1.025,0.582 -2.05,1.164 -3.076,1.746 0.006,10e-4 0.012,0.002 0.018,0.003 -0.612,-0.804 -1.224,-1.607 -1.835,-2.411 10e-4,0.053 10e-4,0.107 0.002,0.16 0.051,3.226 5.051,3.231 5.001,0.004 l 0,0 z"
             id="path619"
             style="fill:#ec008c" />
        </g>
      </g>
      <g
         id="g621">
        <g
           id="g623">
          <path
             d="m 101.283,98.565 c 0.093,-3.167 1.093,-6.137 2.084,-9.118 -0.804,0.612 -1.607,1.224 -2.411,1.835 0.362,0 0.725,0 1.087,0 -0.804,-0.612 -1.607,-1.224 -2.411,-1.835 0.686,2.576 -1.046,5.393 -1.176,8.031 -0.086,1.761 1.651,2.66 3.165,2.411 0.489,-0.081 0.908,-0.255 1.362,-0.46 1.061,-0.479 0.63,0.005 0.162,-0.688 0.13,-1.01 0.261,-2.02 0.391,-3.029 -1.589,1.475 -3.656,2.448 -5.841,2.529 -3.214,0.119 -3.226,5.12 0,5 3.534,-0.131 6.797,-1.6 9.376,-3.994 0.781,-0.724 0.998,-2.131 0.391,-3.029 -0.763,-1.131 -1.87,-2.259 -3.372,-2.197 -1.417,0.058 -2.462,0.828 -3.799,1.048 1.055,0.804 2.11,1.607 3.165,2.411 0.165,-3.344 1.919,-5.896 0.998,-9.36 -0.286,-1.074 -1.306,-1.835 -2.411,-1.835 -0.362,0 -0.725,0 -1.087,0 -1.157,0 -2.057,0.771 -2.411,1.835 -1.137,3.421 -2.157,6.817 -2.263,10.447 -0.094,3.225 4.906,3.215 5.001,-0.002 l 0,0 z"
             id="path625"
             style="fill:#ec008c" />
        </g>
      </g>
      <g
         id="g627">
        <g
           id="g629">
          <path
             d="m 70.506,110.347 c -0.825,-1.653 -1.767,-3.374 -1.833,-5.26 -0.047,-1.361 -1.101,-2.5 -2.5,-2.5 -0.362,0 -0.725,0 -1.087,0 -1.32,0 -2.557,1.138 -2.5,2.5 0.126,3.036 1.922,6.132 3.993,8.29 0.589,-1.422 1.178,-2.845 1.768,-4.268 -0.138,-0.004 -0.274,-0.014 -0.412,-0.027 -0.264,-0.031 -0.24,-0.026 0.071,0.016 -0.158,-0.022 -0.315,-0.045 -0.472,-0.069 -0.732,-0.11 -1.462,-0.242 -2.191,-0.374 -0.953,-0.172 -1.904,-0.354 -2.853,-0.543 -0.222,1.637 -0.443,3.274 -0.665,4.911 0.555,0.001 1.109,0.024 1.662,0.057 0.23,0.014 0.459,0.034 0.689,0.055 0.757,0.069 -0.485,-0.087 0.229,0.026 0.194,0.031 0.385,0.077 0.576,0.125 0.054,0.017 0.108,0.034 0.162,0.051 -0.612,-0.189 -1.025,-0.636 -1.238,-1.341 0,-0.443 0,-0.886 0,-1.329 0.167,-0.275 0.333,-0.55 0.5,-0.825 -0.877,1.041 -1.025,2.511 0,3.535 0.901,0.902 2.657,1.043 3.535,0 1.767,-2.097 0.453,-4.467 -2.001,-5 -1.333,-0.289 -2.752,-0.352 -4.114,-0.354 -2.766,-0.006 -3.483,4.348 -0.665,4.911 2.337,0.467 4.798,1.111 7.186,1.176 2.237,0.061 3.234,-2.74 1.768,-4.268 -1.033,-1.077 -2.464,-3.207 -2.528,-4.754 -0.833,0.833 -1.667,1.667 -2.5,2.5 0.362,0 0.725,0 1.087,0 -0.833,-0.833 -1.667,-1.667 -2.5,-2.5 0.098,2.822 1.276,5.3 2.515,7.784 1.441,2.884 5.753,0.351 4.318,-2.525 l 0,0 z"
             id="path631"
             style="fill:#ec008c" />
        </g>
      </g>
    </g>
    <g
       transform="translate(-0.33686,922.63596)"
       id="Layer_8">
      <g
         id="g634">
        <g
           id="g636">
          <path
             d="m 78.305,68.146 c 0.354,0.219 0.266,-1.587 0.457,-2.39 0.564,-2.378 1.615,-4.638 2.669,-6.829 2.624,-5.452 5.944,-10.584 9.447,-15.505 6.923,-9.725 16.5,-21.229 29.747,-20.479 13.639,0.772 8.377,24.624 7.221,32.526 -0.648,4.426 -8.125,6.74 -11.647,7.934 -7.529,2.552 -14.984,2.754 -20.271,9.482 -0.887,1.127 -1.116,3.209 0.506,3.926 7.601,3.361 14.024,9.59 15.818,17.917 2.192,10.172 -8.317,12.273 -16.066,11.208 0.612,0.804 1.224,1.607 1.835,2.411 -0.34,-5.822 -3.143,-10.34 -5.776,-15.392 -1.491,-2.86 -5.806,-0.332 -4.317,2.523 2.17,4.164 4.811,8.038 5.093,12.869 0.059,1.003 0.709,2.256 1.835,2.411 10.07,1.384 21.655,-0.857 22.596,-12.864 0.873,-11.133 -9.126,-21.257 -18.496,-25.401 0.169,1.309 0.337,2.618 0.506,3.926 3.679,-4.68 8.605,-5.866 14.137,-7.149 4.553,-1.057 8.521,-2.897 12.648,-5.041 5.071,-2.634 6.271,-5.608 6.875,-11.084 C 134.487,40.752 137.904,18.92 119.648,17.887 104.323,17.02 93,31.665 85.256,42.75 c -4.128,5.91 -7.865,12.23 -10.454,18.975 -1.258,3.281 -2.698,8.458 0.979,10.738 2.749,1.704 5.258,-2.623 2.524,-4.317 l 0,0 z"
             id="path638"
             style="fill:#f7941e" />
        </g>
      </g>
      <g
         id="g640">
        <g
           id="g642">
          <path
             d="M 64.681,75.059 C 56.143,65.862 41.698,60.103 29.229,60.407 18.118,60.677 7.998,71.062 9.361,82.455 c 1.286,10.744 12.241,17.237 21.517,20.377 10.596,3.588 23.992,3.711 33.297,-3.195 -1.224,-0.941 -2.448,-1.882 -3.672,-2.823 -2.896,7.128 -6.469,23.317 5.405,24.705 10.922,1.277 14.928,-12.434 14.723,-20.779 -0.079,-3.219 -5.079,-3.226 -5,0 0.134,5.445 -1.377,15.524 -8.637,15.861 -8.286,0.384 -2.995,-15.196 -1.669,-18.458 0.804,-1.978 -1.973,-4.084 -3.672,-2.823 -7.61,5.648 -17.595,5.703 -26.473,3.552 -7.904,-1.915 -17.436,-6.594 -20.359,-14.779 -1.394,-3.9 -0.193,-7.793 1.876,-11.185 3.152,-5.164 7.735,-7.384 13.665,-7.528 10.705,-0.261 23.522,5.393 30.785,13.215 2.196,2.366 5.724,-1.178 3.534,-3.536 l 0,0 z"
             id="path644"
             style="fill:#f7941e" />
        </g>
      </g>
    </g>
    <g
       transform="translate(-0.33686,922.63596)"
       id="Layer_9">
      <g
         id="g647">
        <g
           id="g649">
          <path
             d="m 58.581,55.999 c -4.257,5.561 -3.777,15.835 3.404,18.892 6.867,2.923 14.078,-5.163 16.063,-11.044 3.9,-11.556 -13.782,-14.029 -20.662,-9.733 -5.19,3.241 -5.452,9.481 -3.405,14.682 1.537,3.904 4.631,9.681 9.658,8.981 7.82,-1.089 8.69,-15.552 7.357,-21.204 -2.65,-11.239 -14.565,-1.818 -17.085,4.314 -1.916,4.661 2.288,9.774 6.992,9.963 6.945,0.28 9.071,-6.782 8.858,-12.502 -0.12,-3.21 -5.048,-3.233 -5,0 0.055,3.729 0.152,3.507 -3.109,5.45 1.254,0.72 2.508,1.439 3.762,2.159 0.101,-3.217 1.427,-4.726 3.615,-6.928 -1.393,-0.368 -2.786,-0.735 -4.178,-1.103 0.383,1.339 1.971,8.197 -1.656,6.481 -3.796,-1.796 0.932,-6.217 2.573,-7.552 -1.309,-0.168 -2.618,-0.337 -3.926,-0.506 1.493,2.626 3.074,3.561 1.922,6.77 1.607,0.443 3.214,0.886 4.821,1.329 2.303,-8.639 1.483,-18.15 -3.234,-25.853 -5.373,-8.774 -15.354,-10.896 -24.841,-8.744 -3.144,0.713 -1.811,5.533 1.329,4.821 7.99,-1.812 15.298,0.082 19.715,7.296 3.784,6.18 4.03,14.321 2.209,21.151 -0.841,3.155 3.746,4.325 4.821,1.329 C 70.4,59.39 68.563,58.057 66.158,53.826 65.3,52.315 63.451,52.328 62.232,53.32 c -4.841,3.937 -8.658,12.92 -0.527,15.863 8.355,3.024 9.567,-6.989 7.966,-12.586 -0.515,-1.8 -2.841,-2.449 -4.178,-1.103 -3.2,3.219 -4.936,5.837 -5.08,10.463 -0.06,1.9 2.167,3.108 3.762,2.159 4.823,-2.873 5.668,-4.234 5.586,-9.768 -1.667,0 -3.333,0 -5,0 0.092,2.455 0.162,7.29 -3.279,7.526 -2.149,0.147 -3.273,-1.8 -2.75,-3.658 0.411,-1.458 5.746,-7.61 6.995,-5.544 1.597,2.641 0.896,16.111 -3.061,16.201 -3.153,0.071 -5.296,-9.227 -4.847,-11.432 0.854,-4.188 6.51,-5 9.975,-4.459 4.285,0.669 6.924,3.306 4.523,7.452 -1.571,2.714 -6.052,7.981 -9.38,5.27 -3.379,-2.753 -2.311,-8.214 -0.04,-11.18 1.962,-2.563 -2.385,-5.048 -4.316,-2.525 l 0,0 z"
             id="path651" />
        </g>
      </g>
      <g
         id="g653">
        <g
           id="g655">
          <path
             d="M 56.566,55.102 C 47.432,50.518 37.694,54.508 28.13,54.761 c -3.218,0.085 -3.226,5.085 0,5 8.347,-0.22 17.987,-4.318 25.912,-0.341 2.874,1.441 5.406,-2.872 2.524,-4.318 l 0,0 z"
             id="path657" />
        </g>
      </g>
      <g
         id="g659">
        <g
           id="g661">
          <path
             d="m 78.305,69.232 c -1.385,-0.908 -2.959,-1.264 -4.348,-2.174 -0.42,1.553 -0.841,3.106 -1.262,4.659 1.75,-0.087 2.679,-0.619 3.941,-1.819 -1.01,0.13 -2.02,0.261 -3.029,0.391 8.958,4.778 16.856,14.577 17.24,25.015 1.254,-0.72 2.508,-1.439 3.762,-2.159 -9.471,-6.567 -16.202,-16.076 -23.016,-25.19 -1.14,1.14 -2.28,2.28 -3.42,3.42 12.443,7.125 13.626,21.959 22.32,32.218 1.672,1.973 4.811,-0.136 4.178,-2.432 -2.97,-10.789 -10.75,-22.299 -21.311,-26.746 0.199,1.523 0.398,3.046 0.597,4.569 8.721,-4.722 11.337,14.966 12.632,20.245 0.804,-1.055 1.607,-2.11 2.411,-3.165 -9.078,-0.428 -9.388,-13.332 -11.72,-19.904 -0.804,1.055 -1.607,2.11 -2.411,3.165 9.401,0.54 13.126,15.907 14.98,23.165 0.804,-1.055 1.607,-2.11 2.411,-3.165 -11.635,0.476 -12.404,-17.264 -14.98,-25.338 -1.224,0.941 -2.448,1.882 -3.672,2.823 9.878,5.366 12.541,17.349 9.721,27.611 1.393,-0.368 2.786,-0.735 4.178,-1.103 -7.303,-5.811 -5.938,-17.075 -6.876,-25.406 -1.422,0.589 -2.845,1.179 -4.268,1.768 4.59,5.109 3.504,11.961 2.618,18.22 -0.447,3.152 4.371,4.511 4.821,1.329 1.172,-8.272 2.078,-16.427 -3.904,-23.084 -1.374,-1.53 -4.513,-0.413 -4.268,1.768 1.089,9.678 -0.162,22.177 8.341,28.941 1.422,1.132 3.637,0.866 4.178,-1.103 3.399,-12.369 -0.192,-26.834 -12.019,-33.258 -1.845,-1.002 -4.367,0.648 -3.672,2.823 3.396,10.643 4.619,29.631 19.802,29.009 1.637,-0.067 2.825,-1.543 2.411,-3.165 -2.547,-9.968 -7.346,-26.121 -19.802,-26.835 -1.553,-0.089 -2.938,1.677 -2.411,3.165 3.326,9.373 3.852,22.977 16.541,23.575 1.67,0.079 2.782,-1.65 2.411,-3.165 -2.208,-9.005 -5.98,-30.812 -19.977,-23.233 -2.113,1.144 -1.238,3.796 0.597,4.569 8.806,3.708 15.375,14.376 17.819,23.254 1.393,-0.811 2.786,-1.622 4.178,-2.432 C 89.642,94.883 87.43,88.35 84.5,82.327 81.374,75.902 76.927,70.626 70.695,67.058 c -2.024,-1.159 -4.995,1.314 -3.42,3.42 7.358,9.842 14.587,19.896 24.81,26.984 1.553,1.077 3.828,-0.353 3.762,-2.159 -0.448,-12.18 -9.171,-23.707 -19.716,-29.333 -1.017,-0.542 -2.188,-0.408 -3.029,0.391 -0.136,0.118 -0.271,0.236 -0.406,0.354 -2.518,0.126 -3.368,3.279 -1.262,4.659 1.385,0.908 2.959,1.264 4.348,2.174 2.705,1.775 5.208,-2.557 2.523,-4.316 l 0,0 z"
             id="path663" />
        </g>
      </g>
      <g
         id="g665">
        <g
           id="g667">
          <path
             d="m 76.131,79.015 c -4.937,-3.045 -10.589,-0.709 -13.203,4.158 -1.525,2.84 2.791,5.365 4.317,2.523 1.349,-2.511 3.708,-4.001 6.362,-2.364 2.753,1.698 5.263,-2.628 2.524,-4.317 l 0,0 z"
             id="path669" />
        </g>
      </g>
      <g
         id="g671">
        <g
           id="g673">
          <path
             d="m 74.87,84.109 c -4.83,0.179 -7.823,4.457 -7.935,9.021 -0.079,3.226 4.921,3.219 5,0 0.042,-1.732 0.947,-3.948 2.935,-4.021 3.214,-0.119 3.225,-5.12 0,-5 l 0,0 z"
             id="path675" />
        </g>
      </g>
      <g
         id="g677">
        <g
           id="g679">
          <path
             d="m 74.189,92.45 c -1.786,2.004 -1.818,4.653 -1.819,7.203 -0.002,3.225 4.998,3.224 5,0 0,-0.872 0.007,-1.741 0.076,-2.61 0.017,-0.208 0.081,-0.447 0.129,-0.651 0.033,-0.142 0.24,-0.508 0.149,-0.406 0.906,-1.017 1.005,-2.531 0,-3.535 -0.921,-0.923 -2.628,-1.019 -3.535,-10e-4 l 0,0 z"
             id="path681" />
        </g>
      </g>
      <g
         id="g683">
        <g
           id="g685">
          <path
             d="m 85.724,70.479 c 0.217,-0.426 0.446,-0.842 0.699,-1.248 0.109,-0.176 0.229,-0.344 0.349,-0.512 -0.354,0.494 -0.006,0.031 0.075,-0.06 0.108,-0.12 0.229,-0.229 0.349,-0.337 -0.5,0.446 -0.204,0.158 -0.04,0.058 0.422,-0.256 -0.58,0.197 -0.131,0.052 0.449,-0.144 -0.662,0.04 -0.199,0.023 1.361,-0.049 2.5,-1.101 2.5,-2.5 0,-1.326 -1.137,-2.549 -2.5,-2.5 -2.655,0.095 -4.313,2.326 -5.419,4.499 -0.618,1.214 -0.329,2.703 0.897,3.42 1.123,0.66 2.802,0.318 3.42,-0.895 l 0,0 z"
             id="path687" />
        </g>
      </g>
      <g
         id="g689">
        <g
           id="g691">
          <path
             d="m 85.739,78.239 c 2.66,-0.077 5.258,-1.07 7.202,-2.906 2.349,-2.218 -1.193,-5.747 -3.535,-3.535 -0.893,0.842 -2.323,1.403 -3.667,1.441 -3.217,0.093 -3.226,5.094 0,5 l 0,0 z"
             id="path693" />
        </g>
      </g>
      <g
         id="g695">
        <g
           id="g697">
          <path
             d="m 89.912,85.506 c 2.512,1.168 5.042,1.426 7.784,1.428 3.225,0.003 3.224,-4.997 0,-5 -1.783,-10e-4 -3.607,0.023 -5.26,-0.746 -1.235,-0.575 -2.685,-0.359 -3.42,0.897 -0.641,1.093 -0.34,2.847 0.896,3.421 l 0,0 z"
             id="path699" />
        </g>
      </g>
    </g>
    <g
       transform="translate(-0.33686,922.63596)"
       id="g4571">
      <g
         id="g4573">
        <g
           id="g4575">
          <path
             d="m 90.848,59.435 c -0.142,4.355 -1.937,5.629 -6.195,5.109 0.804,1.055 1.607,2.11 2.411,3.165 2.462,-8.731 9.314,-17.542 17.819,-21.08 -1.025,-0.582 -2.05,-1.164 -3.075,-1.746 3.766,9.952 -8.341,21.018 -16.732,24.099 1.055,0.804 2.11,1.607 3.165,2.411 -0.79,-7.59 7.671,-33.232 18.572,-27.25 2.778,1.525 -7.543,9.757 -8.552,10.503 -4.397,3.251 -9.842,6.94 -15.358,7.815 1.025,0.582 2.05,1.164 3.075,1.746 -1.426,-7.129 4.906,-16.593 8.745,-22.036 1.553,-2.201 14.318,-15.193 15.381,-6.408 0.797,6.594 -4.702,14.12 -8.372,19.068 -2.733,3.685 -9.561,12.611 -15.084,11.484 -6.084,-1.241 1.114,-14.43 2.463,-16.799 3.961,-6.958 9.621,-14.113 16.729,-18.045 2.562,-1.417 5.775,-1.619 8.173,0.333 2.547,2.074 0.386,6.445 -0.757,8.659 -3.711,7.193 -10.352,13.653 -17.187,17.883 -1.401,0.867 -2.865,1.562 -4.471,1.94 0.941,0.383 1.882,0.766 2.823,1.149 -2.174,-5.04 1.34,-14.044 2.9,-18.818 1.604,-4.907 5.551,-16.731 12.17,-16.752 10.551,-0.034 2.972,31.077 -10.601,28.413 -8.282,-1.625 -5.04,-9.915 -1.822,-14.702 3.861,-5.743 10.988,-11.983 18.237,-12.246 10.003,-0.363 6.799,10.614 3.52,15.592 -3.921,5.951 -11.145,13.078 -18.531,14.103 1.025,0.582 2.05,1.164 3.075,1.746 -2.067,-7.237 1.517,-17.48 4.901,-23.787 2.062,-3.842 4.494,-5.842 8.896,-5.936 4.31,-0.092 5.674,3.374 5.709,7.082 0.08,8.419 -4.956,16.469 -12.092,20.507 -3.884,2.198 -10.415,3.487 -10.714,-2.633 -0.314,-6.432 5.556,-13.168 10.618,-16.298 3.811,-2.356 9.064,-2.456 10.346,2.554 1.238,4.842 -2.437,10.919 -5.624,14.337 -1.473,1.58 -14.923,12.035 -16.79,7.488 -1.333,-3.248 1.657,-7.941 3.688,-10.236 3.065,-3.461 6.983,-6.174 11.039,-8.336 2.115,-1.127 7.674,-3.867 9.549,-1.077 1.982,2.948 -1.697,6.716 -3.412,8.782 -2.468,2.972 -16.913,18.092 -19.666,9.966 -2.797,-8.256 16.938,-12.772 22.212,-11.293 -0.582,-1.025 -1.164,-2.05 -1.746,-3.075 -2.502,5.978 -8.688,10.179 -14.205,13.081 -1.986,1.044 -12.62,5.924 -11.566,0.379 0.711,-3.741 3.697,-8.17 7.752,-8.639 4.716,-0.544 5.511,5.744 4.519,8.995 -2.26,7.402 -14.966,13.281 -22.132,12.609 0.804,0.612 1.607,1.224 2.411,1.835 -0.683,-4.641 0.193,-7.198 4.775,-8.881 -0.941,-0.383 -1.882,-0.766 -2.823,-1.149 5.566,7.867 7.583,20.615 -0.696,27.405 1.393,0.368 2.786,0.735 4.178,1.103 -2.629,-7.01 -1.165,-13.537 1.087,-20.41 -1.393,0.368 -2.786,0.735 -4.178,1.103 7.498,5.825 8.8,15.397 7.963,24.32 1.254,-0.72 2.508,-1.439 3.762,-2.159 -5.553,-3.162 -8.557,-8.799 -6.716,-15.106 2.516,-8.622 7.001,3.02 7.656,6.151 0.704,3.366 0.561,10.548 -4.303,6.416 -4.379,-3.72 -2.875,-9.413 0.608,-13.1 -1.01,0.13 -2.02,0.261 -3.029,0.391 4.92,2.739 12.426,8.873 4.719,13.166 -1.121,0.624 -3.62,1.539 -4.767,0.509 -1.941,-1.744 2.592,-7.845 3.468,-9.137 -1.14,0.299 -2.28,0.598 -3.42,0.897 2.311,1.529 4.016,3.447 5.508,5.776 0.854,1.333 1.34,2.816 1.727,4.336 0.037,0.592 0.073,1.185 0.11,1.777 -1.167,2.196 -1.001,2.655 0.499,1.378 -1.417,-0.37 -2.566,-2.28 -3.201,-3.435 -1.604,-2.916 1.052,-5.198 3.315,-6.571 -1.01,-0.13 -2.02,-0.261 -3.029,-0.391 3.399,2.681 4.789,6.805 5.879,10.854 0.582,-1.025 1.164,-2.05 1.746,-3.075 -7.477,1.283 -10.027,-4.622 -5.177,-9.952 -1.178,0 -2.357,0 -3.535,0 3.075,3.383 4.706,7.58 5.878,11.94 1.224,-0.941 2.448,-1.882 3.672,-2.823 -4.908,-2.351 -5.735,-5.354 -1.087,-8.726 -1.14,-0.299 -2.28,-0.598 -3.42,-0.897 1.715,3.754 1.573,7.123 0.835,11.117 1.393,-0.368 2.786,-0.735 4.178,-1.103 -3.902,-3.333 -4.69,-6.326 -4.702,-11.276 -0.833,0.833 -1.667,1.667 -2.5,2.5 6.285,-0.166 7.376,4.369 3.6,8.876 -5.562,6.637 -10.306,-1.246 -12.059,-6.606 -0.997,-3.05 -5.826,-1.745 -4.821,1.329 1.705,5.216 4.366,11.161 10.162,12.7 4.058,1.077 8.137,-1.362 10.654,-4.366 6.419,-7.661 2.782,-17.205 -7.536,-16.933 -1.359,0.036 -2.503,1.11 -2.5,2.5 0.015,6.272 1.271,10.63 6.167,14.811 1.298,1.109 3.809,0.897 4.178,-1.103 1.001,-5.418 0.977,-9.901 -1.339,-14.97 -0.528,-1.156 -2.394,-1.642 -3.42,-0.897 -7.543,5.473 -7.7,13.153 1.087,17.361 1.92,0.919 4.277,-0.575 3.672,-2.823 -1.401,-5.211 -3.502,-10.119 -7.165,-14.146 -0.886,-0.975 -2.649,-0.974 -3.535,0 -8.446,9.281 -2.286,20.424 10.041,18.309 1.35,-0.231 2.074,-1.859 1.746,-3.075 -1.291,-4.795 -3.145,-9.89 -7.165,-13.06 -0.885,-0.698 -1.985,-1.024 -3.029,-0.391 -4.259,2.583 -6.928,6.099 -5.953,11.227 0.667,3.507 4.072,7.145 7.508,8.042 4.286,1.12 5.39,-4.506 5.332,-7.531 -0.118,-6.083 -5,-11.823 -9.798,-14.999 -1.192,-0.789 -2.69,-0.181 -3.42,0.897 -2.504,3.695 -6.465,9.979 -3.309,14.431 2.267,3.198 6.717,3.021 9.991,1.702 3.717,-1.499 7.124,-4.721 7.417,-8.925 0.45,-6.43 -5.737,-10.787 -10.679,-13.539 -0.963,-0.536 -2.249,-0.435 -3.029,0.391 -6.058,6.409 -6.619,15.72 0.813,21.293 2.41,1.807 5.917,2.287 8.495,0.606 3.58,-2.335 3.515,-7.446 3.036,-11.158 -0.812,-6.296 -7.665,-21.762 -15.44,-12.125 -6.726,8.336 -1.399,20.172 6.863,24.876 1.762,1.003 3.588,-0.309 3.762,-2.159 0.947,-10.098 -0.988,-21.298 -9.428,-27.855 -1.49,-1.158 -3.544,-0.833 -4.178,1.103 -2.52,7.69 -4.013,15.268 -1.087,23.068 0.695,1.853 2.659,2.35 4.178,1.103 9.922,-8.137 8.258,-23.881 1.478,-33.464 -0.612,-0.865 -1.717,-1.555 -2.823,-1.149 -7.415,2.724 -9.384,7.444 -8.268,15.032 0.169,1.153 1.398,1.741 2.411,1.835 10.824,1.015 26.969,-8.473 27.569,-20.141 0.26,-5.074 -2.594,-9.965 -7.611,-11.265 -5.849,-1.516 -10.887,3.448 -13.421,8.079 -1.625,2.968 -3.027,8.017 -0.248,10.793 2.778,2.774 6.977,2.247 10.455,1.378 9.554,-2.385 19.853,-9.725 23.71,-18.941 0.529,-1.264 -0.561,-2.743 -1.746,-3.075 -9.914,-2.779 -36.697,6.946 -26.826,20.707 8.126,11.329 27.396,-10.594 30.902,-17.313 2.903,-5.565 -0.738,-11.749 -6.835,-12.135 -7.42,-0.47 -15.469,5.855 -20.495,10.613 -4.318,4.088 -9.057,12.117 -5.586,18.023 3.108,5.29 11.147,2.055 15.163,0.036 7.184,-3.611 12.276,-9.35 15.231,-16.756 2.675,-6.704 0.846,-16.358 -7.68,-17.072 -9.925,-0.832 -17.587,8.515 -20.987,16.761 -2.891,7.01 -0.318,14.949 7.847,15.613 14.812,1.204 27.984,-20.279 22.76,-33.333 -2.414,-6.032 -10.678,-7.908 -16.192,-4.937 -6.884,3.709 -9.711,12.857 -11.379,19.938 -1.092,4.637 -2.076,10.2 -0.737,14.887 0.411,1.438 1.715,1.935 3.075,1.746 7.316,-1.015 13.95,-7.216 18.573,-12.546 4.405,-5.078 9.124,-12.688 6.515,-19.628 -2.408,-6.406 -9.884,-8.244 -15.888,-6.664 -7.141,1.879 -13.201,7.565 -17.531,13.287 -3.677,4.858 -6.535,11.729 -3.472,17.553 3.041,5.782 11.093,6.542 16.448,4.26 10.765,-4.588 18.278,-25.174 9.72,-34.428 -8.164,-8.828 -17.313,3.469 -20.54,10.205 -2.606,5.441 -4.374,11.316 -5.499,17.232 -0.78,4.104 -1.554,8.88 0.155,12.841 0.448,1.038 1.831,1.383 2.823,1.149 6.739,-1.586 12.645,-7.259 17.24,-12.122 4.658,-4.93 9.768,-11.481 9.969,-18.566 0.171,-6.009 -6.273,-9.683 -11.702,-8.996 -6.772,0.857 -12.476,6.855 -16.674,11.746 -4.799,5.59 -21.255,29.252 -6.904,33.82 5.462,1.739 10.905,-2.721 14.626,-6.158 5.561,-5.136 10.163,-11.784 13.225,-18.686 1.938,-4.367 3.561,-9.65 1.333,-14.202 -2.513,-5.132 -9.479,-4.268 -13.603,-2.105 -6.611,3.466 -11.29,10.986 -14.635,17.368 -2.78,5.304 -5.872,12.197 -4.645,18.33 0.289,1.441 1.81,1.947 3.075,1.746 6.615,-1.049 37.584,-18.561 25.576,-27.121 -15.091,-10.761 -27.704,20.301 -26.567,31.228 0.154,1.48 1.502,3.021 3.165,2.411 10.795,-3.963 25.045,-17.51 20.224,-30.249 -0.434,-1.146 -1.733,-2.304 -3.075,-1.746 -10.197,4.242 -18.326,13.985 -21.311,24.572 -0.482,1.711 0.836,2.972 2.411,3.165 7.162,0.875 10.968,-3.14 11.195,-10.109 0.105,-3.227 -4.895,-3.216 -5,0 l 0,0 z"
             id="path4577"
             style="fill:#ffc656" />
        </g>
      </g>
      <g
         id="g4579">
        <g
           id="g4581">
          <path
             d="m 75.72,84.012 c 1.59,8.018 -3.15,14.973 -6.27,21.987 1.553,0.42 3.106,0.841 4.659,1.262 0.089,-5.709 0.742,-11.296 4.006,-16.129 -1.523,-0.199 -3.046,-0.398 -4.569,-0.597 0.607,3.144 2.653,17.601 -4.456,16.534 -7.076,-1.062 -0.112,-10.134 2.112,-12.17 -1.178,0 -2.357,0 -3.535,0 6.174,5.966 1.076,14.074 -4.929,17.813 1.224,0.498 2.448,0.996 3.672,1.494 -2.938,-9.795 0.672,-23.226 9.721,-28.699 -1.14,-0.299 -2.28,-0.598 -3.42,-0.897 1.346,1.939 3.735,5.319 1.549,7.472 -1.572,1.549 -4.664,1.313 -6.599,0.888 -9.388,-2.065 -4.041,-11.014 0.28,-15.462 -1.178,0 -2.357,0 -3.535,0 3.243,3.672 6.486,9.046 1.392,12.58 -3.616,2.507 -8.892,3.266 -13.183,2.657 -4.349,-0.617 -4.931,-2.043 -1.698,-5.063 1.269,-1.185 9.542,-7.965 9.892,-3.312 0.585,7.771 -9.205,23.021 -17.807,15.879 -3.457,-2.87 -6.984,-8.126 -4.394,-12.556 2.13,-3.642 7.019,-5.421 10.839,-6.505 3.622,-1.027 7.925,-1.765 11.648,-0.845 1.573,0.389 0.618,0.381 0.75,-0.042 -0.398,1.283 -3.317,2.876 -4.554,3.636 -6.237,3.833 -14.867,8.468 -22.396,8.104 -4.191,-0.203 -0.523,-6.217 0.526,-7.857 2.642,-4.131 6.876,-8.086 11.656,-9.486 4.808,-1.408 8.489,3.364 8.559,7.859 0.148,9.487 -18.352,11.094 -24.588,9.408 -5.01,-1.354 -2.872,-5.036 -0.223,-7.97 3.126,-3.463 10.162,-10.049 15.475,-7.553 7.442,3.496 4.24,17.983 -3.131,19.492 C 36.488,97.301 28.338,89.83 24.997,84.962 21.626,80.05 24.562,76.738 29.61,75.43 c 4.788,-1.241 11.167,-0.608 15.007,2.738 4.85,4.226 0.97,11.913 -3.552,14.662 -8.176,4.971 -26.63,-3.457 -26.468,-13.709 0.111,-6.994 14,-6.869 18.006,-5.483 6.416,2.221 9.606,13.047 0.784,13.992 -8.374,0.898 -15.894,-5.875 -11.161,-13.976 1.913,-3.274 5.601,-4.896 9.252,-5.068 4.215,-0.198 11.363,2.197 13.128,6.447 2.708,6.52 -10.692,9.567 -14.688,7.789 -2.707,-1.205 -4.771,-5.37 -3.511,-8.208 1.179,-2.654 4.888,-3.152 7.412,-2.809 5.96,0.811 9.043,5.894 9.202,11.544 0.612,-0.804 1.224,-1.607 1.835,-2.411 -3.465,1.322 -6.842,0.707 -10.112,-0.877 -1.478,-0.716 -7.134,-4.231 -3.776,-5.171 4.257,-1.191 8.955,2.291 10.172,6.209 1.647,5.302 -6.088,6.715 -9.538,5.158 -2.61,-1.178 -4.85,-4.387 -3.498,-7.238 1.495,-3.153 7.197,-4.123 10.032,-2.59 2.442,1.321 2.059,4.801 1.345,6.951 -1.138,3.433 -4.78,4.95 -8.092,5.078 0.804,0.612 1.607,1.224 2.411,1.835 -0.292,-1.145 0.875,-2.94 1.087,-4.105 0.575,-3.151 -4.243,-4.498 -4.821,-1.329 -0.484,2.655 -1.794,3.994 -1.087,6.764 0.267,1.044 1.321,1.877 2.411,1.835 6.415,-0.248 11.746,-3.862 13.349,-10.245 1.346,-5.359 -1.468,-10.715 -6.805,-12.204 -5.885,-1.641 -13.898,2.013 -15.114,8.253 -1.171,6.014 4.038,11.109 9.434,12.458 6.74,1.685 14.353,-3.096 13.966,-10.369 -0.381,-7.168 -8.255,-11.892 -14.789,-11.557 -5.895,0.302 -8.744,5.596 -4.783,10.224 4.562,5.331 12.818,8.306 19.537,5.741 1.031,-0.394 1.869,-1.224 1.835,-2.411 -0.204,-7.292 -3.759,-13.267 -10.729,-15.833 -5.207,-1.917 -11.66,-0.572 -14.907,4.053 -3.592,5.116 0.14,12.887 5.009,15.57 5.53,3.047 13.363,0.961 17.987,-2.834 5.008,-4.11 5.877,-10.183 1.173,-14.91 -5.652,-5.68 -15.264,-7.321 -22.422,-4.016 -5.664,2.615 -9.363,9.514 -8.313,15.652 1.32,7.715 8.489,10.96 15.593,11.604 6.535,0.591 11.98,-3.52 12.528,-10.071 0.56,-6.692 -5.107,-12.052 -10.906,-14.059 -10.721,-3.711 -28.628,3.83 -21.726,17.025 5.037,9.628 19.435,16.353 29.856,12.725 11.211,-3.903 14.82,-20.081 3.547,-26 -7.525,-3.951 -23.429,-3.795 -26.096,6.404 -1.636,6.258 4.289,12.359 8.628,15.867 4.891,3.954 10.796,7.176 17.252,6.227 C 54.06,99.347 56.9,86.709 54.282,78.949 49.913,65.995 36.437,72.034 29.191,78.567 c -3.38,3.048 -7.625,7.905 -6.049,12.857 1.296,4.073 6.063,5.528 9.848,5.981 8.839,1.059 22.547,-1.594 26.674,-10.631 4.438,-9.715 -5.87,-20.049 -15.504,-16.367 -7.529,2.877 -17.809,12.895 -15.967,21.82 2.608,12.637 27.885,-1.569 32.84,-4.744 2.681,-1.718 6.823,-4.77 5.665,-8.519 -1.011,-3.271 -5.207,-3.817 -8.083,-3.959 -8.379,-0.413 -19.015,2.706 -24.073,9.768 -6.167,8.61 3.574,21.75 12.826,22.433 10.179,0.75 17.259,-12.506 18.366,-20.95 0.496,-3.779 -1.054,-7.995 -5.276,-8.462 -5.213,-0.576 -11.183,4.15 -14.445,7.723 -2.571,2.816 -3.642,7.103 -0.288,9.788 3.319,2.657 8.217,2.831 12.259,2.432 9.841,-0.97 19.156,-7.803 13.879,-18.392 -0.984,-1.976 -2.475,-3.732 -3.926,-5.375 -0.893,-1.012 -2.629,-0.933 -3.535,0 -4.129,4.25 -8.187,9.612 -6.959,15.873 0.867,4.419 5.343,7.167 9.414,8.062 3.854,0.848 8.343,0.263 11.243,-2.594 3.834,-3.777 1.494,-9.523 -1.076,-13.227 -0.767,-1.105 -2.187,-1.643 -3.42,-0.897 -10.941,6.618 -15.604,22.391 -12.019,34.345 0.453,1.509 2.271,2.367 3.672,1.494 8.79,-5.474 14.531,-17.365 5.94,-25.666 -1.012,-0.978 -2.518,-0.932 -3.535,0 -5.662,5.182 -10.928,17.154 -0.332,20.43 3.779,1.168 7.326,-0.968 9.506,-3.911 3.775,-5.097 2.629,-12.959 1.526,-18.676 -0.442,-2.29 -3.462,-2.236 -4.569,-0.597 -3.738,5.535 -4.587,12.109 -4.689,18.653 -0.037,2.347 3.617,3.605 4.659,1.262 3.765,-8.468 8.681,-16.22 6.773,-25.839 -0.622,-3.16 -5.441,-1.818 -4.816,1.33 l 0,0 z"
             id="path4583"
             style="fill:#ffc656" />
        </g>
      </g>
    </g>
    <g
       transform="translate(-0.33686,922.63596)"
       id="g4585">
      <g
         id="g4587">
        <g
           id="g4589">
          <path
             d="m 97.031,60.758 c 0.792,0.333 1.375,0.322 1.767,1.025 1.439,-0.841 2.878,-1.682 4.317,-2.523 -3.792,-5.925 -5.564,-12.731 0.696,-17.623 -1.393,-0.368 -2.786,-0.735 -4.178,-1.103 1.147,4.253 2.85,8.303 2.174,12.801 -0.425,2.83 2.848,4.284 4.569,1.926 0.96,-1.314 2.751,-4.553 4.689,-4.711 1.387,-0.113 3.208,1.012 4.444,1.512 -0.199,-1.523 -0.398,-3.046 -0.597,-4.569 -5.173,3.105 -10.352,6.206 -15.217,9.782 -2.554,1.877 -0.138,6.189 2.523,4.317 3.78,-2.658 6.934,-5.812 9.593,-9.592 1.632,-2.32 -2.092,-5.186 -3.926,-3.029 -2.569,3.02 -6.022,3.17 -9.277,5.043 1.224,0.498 2.448,0.996 3.672,1.494 -1.605,-3.994 -2.929,-7.351 -2.174,-11.714 -1.607,0 -3.214,0 -4.821,0 1.121,3.382 1.986,6.616 2.084,10.205 0.088,3.216 5,3.23 5,0 0,-3.623 0,-7.247 0,-10.87 -1.667,0 -3.333,0 -5,0 0.31,3.802 1.592,7.621 2.482,11.319 1.607,-0.443 3.214,-0.886 4.822,-1.329 -0.096,-0.277 -0.148,-0.589 -0.219,-0.872 -0.782,-3.127 -5.604,-1.8 -4.821,1.329 0.071,0.283 0.124,0.594 0.219,0.872 1.042,3.029 5.582,1.829 4.822,-1.329 -0.751,-3.121 -2.097,-7.454 -2.304,-9.99 -0.258,-3.169 -5,-3.266 -5,0 0,3.623 0,7.247 0,10.87 1.667,0 3.333,0 5,0 -0.11,-4.018 -1.003,-7.733 -2.263,-11.534 -0.712,-2.149 -4.369,-2.613 -4.821,0 -0.931,5.377 0.168,9.381 2.174,14.373 0.595,1.481 2.151,2.37 3.672,1.494 3.762,-2.165 7.291,-2.301 10.289,-5.826 -1.309,-1.01 -2.618,-2.02 -3.926,-3.029 -2.146,3.051 -4.748,5.653 -7.799,7.798 0.841,1.439 1.682,2.878 2.523,4.317 4.866,-3.577 10.044,-6.677 15.217,-9.782 2.012,-1.208 1.332,-3.788 -0.597,-4.569 -2.509,-1.016 -4.857,-2.096 -7.595,-1.41 -3.177,0.796 -5.407,4.473 -7.185,6.907 1.523,0.642 3.046,1.284 4.569,1.926 0.835,-5.554 -0.744,-10.16 -2.174,-15.459 -0.536,-1.985 -2.755,-2.215 -4.178,-1.103 -7.986,6.24 -6.405,15.984 -1.478,23.682 1.732,2.707 5.893,0.307 4.317,-2.523 -1.234,-2.217 -2.572,-2.405 -4.755,-3.323 -2.97,-1.251 -4.254,3.59 -1.329,4.82 l 0,0 z"
             id="path4591"
             style="fill:#ec008c" />
        </g>
      </g>
      <g
         id="g4593">
        <g
           id="g4595">
          <path
             d="m 42.587,92.043 c -0.001,-0.053 -0.001,-0.107 -0.002,-0.16 -0.016,-1.03 -0.742,-2.224 -1.835,-2.411 -0.006,-10e-4 -0.012,-0.002 -0.017,-0.003 -1.461,-0.25 -2.535,0.379 -3.076,1.746 0.229,-0.577 -7.542,-4.334 -7.8,-7.053 -0.104,-1.085 1.246,-1.213 2.023,-1.101 2.622,0.379 4.623,2.801 6.048,4.809 1.304,1.837 4.867,1.444 4.659,-1.262 -0.224,-2.918 0.166,-5.766 1.311,-8.475 0.424,-1.002 0.992,-1.958 1.715,-2.771 0.586,-0.391 0.539,-0.467 -0.141,-0.228 0.622,0.977 0.705,2.828 0.81,3.865 0.573,5.648 -4.775,11.369 -7.268,16.129 1.553,0.42 3.106,0.841 4.659,1.262 0.072,-7.186 1.227,-14.3 5.094,-20.477 -1.439,-0.841 -2.878,-1.682 -4.317,-2.523 -2.174,4.348 -4.348,8.695 -6.522,13.043 -1.44,2.88 2.553,5.237 4.317,2.523 1.295,-1.993 1.412,-4.376 1.428,-6.697 0.021,-2.979 -3.953,-3.195 -4.911,-0.665 -1.258,3.323 -3.228,6.243 -5.183,9.186 1.439,0 2.878,0 4.317,0 -1.82,-3.345 -4.287,-6.454 -6.913,-9.202 -1.01,1.309 -2.02,2.618 -3.029,3.926 2.476,1.171 5.013,2.127 7.103,3.957 1.01,-1.309 2.02,-2.618 3.029,-3.926 -0.906,-0.448 -1.739,-1.006 -2.5,-1.674 -1.498,-1.244 -0.678,-1.902 -1.133,0.068 -1.025,0.582 -2.05,1.164 -3.075,1.746 0.139,0.175 0.279,0.351 0.418,0.525 2.352,2.199 5.895,-1.329 3.535,-3.535 -0.812,-0.76 -1.553,-1.461 -2.625,-1.812 -1.256,-0.411 -2.779,0.464 -3.075,1.746 -0.75,3.248 3.618,5.943 5.931,7.253 2.414,1.367 5.219,-2.01 3.029,-3.926 -2.443,-2.14 -5.205,-3.363 -8.115,-4.739 -2.511,-1.187 -5.075,1.786 -3.029,3.926 2.353,2.462 4.5,5.192 6.131,8.19 0.944,1.734 3.321,1.5 4.317,0 2.213,-3.331 4.267,-6.629 5.687,-10.38 -1.637,-0.222 -3.274,-0.443 -4.911,-0.665 -0.01,1.429 0.067,2.922 -0.746,4.173 1.439,0.841 2.878,1.682 4.317,2.523 2.174,-4.348 4.348,-8.696 6.522,-13.043 1.436,-2.872 -2.596,-5.273 -4.317,-2.523 -4.318,6.898 -5.696,14.968 -5.776,23 -0.024,2.427 3.489,3.496 4.659,1.262 2.43,-4.642 5.495,-8.876 7.356,-13.811 1.427,-3.784 0.821,-9.664 -2.01,-12.68 -2.351,-2.504 -5.812,-0.501 -7.441,1.677 -2.886,3.856 -4.015,9.026 -3.65,13.77 1.553,-0.42 3.106,-0.841 4.659,-1.262 -2.688,-3.787 -6.135,-7.145 -11.026,-7.317 -3.581,-0.125 -6.201,2.727 -6.363,6.132 -0.314,6.591 14.276,16.833 17.622,8.382 -1.025,0.582 -2.05,1.164 -3.076,1.746 0.006,10e-4 0.012,0.002 0.018,0.003 -0.612,-0.804 -1.224,-1.607 -1.835,-2.411 10e-4,0.053 10e-4,0.107 0.002,0.16 0.051,3.226 5.051,3.231 5.001,0.004 l 0,0 z"
             id="path4597"
             style="fill:#ec008c" />
        </g>
      </g>
      <g
         id="g4599">
        <g
           id="g4601">
          <path
             d="m 101.283,98.565 c 0.093,-3.167 1.093,-6.137 2.084,-9.118 -0.804,0.612 -1.607,1.224 -2.411,1.835 0.362,0 0.725,0 1.087,0 -0.804,-0.612 -1.607,-1.224 -2.411,-1.835 0.686,2.576 -1.046,5.393 -1.176,8.031 -0.086,1.761 1.651,2.66 3.165,2.411 0.489,-0.081 0.908,-0.255 1.362,-0.46 1.061,-0.479 0.63,0.005 0.162,-0.688 0.13,-1.01 0.261,-2.02 0.391,-3.029 -1.589,1.475 -3.656,2.448 -5.841,2.529 -3.214,0.119 -3.226,5.12 0,5 3.534,-0.131 6.797,-1.6 9.376,-3.994 0.781,-0.724 0.998,-2.131 0.391,-3.029 -0.763,-1.131 -1.87,-2.259 -3.372,-2.197 -1.417,0.058 -2.462,0.828 -3.799,1.048 1.055,0.804 2.11,1.607 3.165,2.411 0.165,-3.344 1.919,-5.896 0.998,-9.36 -0.286,-1.074 -1.306,-1.835 -2.411,-1.835 -0.362,0 -0.725,0 -1.087,0 -1.157,0 -2.057,0.771 -2.411,1.835 -1.137,3.421 -2.157,6.817 -2.263,10.447 -0.094,3.225 4.906,3.215 5.001,-0.002 l 0,0 z"
             id="path4603"
             style="fill:#ec008c" />
        </g>
      </g>
      <g
         id="g4605">
        <g
           id="g4607">
          <path
             d="m 70.506,110.347 c -0.825,-1.653 -1.767,-3.374 -1.833,-5.26 -0.047,-1.361 -1.101,-2.5 -2.5,-2.5 -0.362,0 -0.725,0 -1.087,0 -1.32,0 -2.557,1.138 -2.5,2.5 0.126,3.036 1.922,6.132 3.993,8.29 0.589,-1.422 1.178,-2.845 1.768,-4.268 -0.138,-0.004 -0.274,-0.014 -0.412,-0.027 -0.264,-0.031 -0.24,-0.026 0.071,0.016 -0.158,-0.022 -0.315,-0.045 -0.472,-0.069 -0.732,-0.11 -1.462,-0.242 -2.191,-0.374 -0.953,-0.172 -1.904,-0.354 -2.853,-0.543 -0.222,1.637 -0.443,3.274 -0.665,4.911 0.555,0.001 1.109,0.024 1.662,0.057 0.23,0.014 0.459,0.034 0.689,0.055 0.757,0.069 -0.485,-0.087 0.229,0.026 0.194,0.031 0.385,0.077 0.576,0.125 0.054,0.017 0.108,0.034 0.162,0.051 -0.612,-0.189 -1.025,-0.636 -1.238,-1.341 0,-0.443 0,-0.886 0,-1.329 0.167,-0.275 0.333,-0.55 0.5,-0.825 -0.877,1.041 -1.025,2.511 0,3.535 0.901,0.902 2.657,1.043 3.535,0 1.767,-2.097 0.453,-4.467 -2.001,-5 -1.333,-0.289 -2.752,-0.352 -4.114,-0.354 -2.766,-0.006 -3.483,4.348 -0.665,4.911 2.337,0.467 4.798,1.111 7.186,1.176 2.237,0.061 3.234,-2.74 1.768,-4.268 -1.033,-1.077 -2.464,-3.207 -2.528,-4.754 -0.833,0.833 -1.667,1.667 -2.5,2.5 0.362,0 0.725,0 1.087,0 -0.833,-0.833 -1.667,-1.667 -2.5,-2.5 0.098,2.822 1.276,5.3 2.515,7.784 1.441,2.884 5.753,0.351 4.318,-2.525 l 0,0 z"
             id="path4609"
             style="fill:#ec008c" />
        </g>
      </g>
    </g>
    <g
       transform="translate(-0.33686,922.63596)"
       id="g4611">
      <g
         id="g4613">
        <g
           id="g4615">
          <path
             d="m 78.305,68.146 c 0.354,0.219 0.266,-1.587 0.457,-2.39 0.564,-2.378 1.615,-4.638 2.669,-6.829 2.624,-5.452 5.944,-10.584 9.447,-15.505 6.923,-9.725 16.5,-21.229 29.747,-20.479 13.639,0.772 8.377,24.624 7.221,32.526 -0.648,4.426 -8.125,6.74 -11.647,7.934 -7.529,2.552 -14.984,2.754 -20.271,9.482 -0.887,1.127 -1.116,3.209 0.506,3.926 7.601,3.361 14.024,9.59 15.818,17.917 2.192,10.172 -8.317,12.273 -16.066,11.208 0.612,0.804 1.224,1.607 1.835,2.411 -0.34,-5.822 -3.143,-10.34 -5.776,-15.392 -1.491,-2.86 -5.806,-0.332 -4.317,2.523 2.17,4.164 4.811,8.038 5.093,12.869 0.059,1.003 0.709,2.256 1.835,2.411 10.07,1.384 21.655,-0.857 22.596,-12.864 0.873,-11.133 -9.126,-21.257 -18.496,-25.401 0.169,1.309 0.337,2.618 0.506,3.926 3.679,-4.68 8.605,-5.866 14.137,-7.149 4.553,-1.057 8.521,-2.897 12.648,-5.041 5.071,-2.634 6.271,-5.608 6.875,-11.084 C 134.487,40.752 137.904,18.92 119.648,17.887 104.323,17.02 93,31.665 85.256,42.75 c -4.128,5.91 -7.865,12.23 -10.454,18.975 -1.258,3.281 -2.698,8.458 0.979,10.738 2.749,1.704 5.258,-2.623 2.524,-4.317 l 0,0 z"
             id="path4617"
             style="fill:#f7941e" />
        </g>
      </g>
      <g
         id="g4619">
        <g
           id="g4621">
          <path
             d="M 64.681,75.059 C 56.143,65.862 41.698,60.103 29.229,60.407 18.118,60.677 7.998,71.062 9.361,82.455 c 1.286,10.744 12.241,17.237 21.517,20.377 10.596,3.588 23.992,3.711 33.297,-3.195 -1.224,-0.941 -2.448,-1.882 -3.672,-2.823 -2.896,7.128 -6.469,23.317 5.405,24.705 10.922,1.277 14.928,-12.434 14.723,-20.779 -0.079,-3.219 -5.079,-3.226 -5,0 0.134,5.445 -1.377,15.524 -8.637,15.861 -8.286,0.384 -2.995,-15.196 -1.669,-18.458 0.804,-1.978 -1.973,-4.084 -3.672,-2.823 -7.61,5.648 -17.595,5.703 -26.473,3.552 -7.904,-1.915 -17.436,-6.594 -20.359,-14.779 -1.394,-3.9 -0.193,-7.793 1.876,-11.185 3.152,-5.164 7.735,-7.384 13.665,-7.528 10.705,-0.261 23.522,5.393 30.785,13.215 2.196,2.366 5.724,-1.178 3.534,-3.536 l 0,0 z"
             id="path4623"
             style="fill:#f7941e" />
        </g>
      </g>
    </g>
    <g
       transform="translate(-0.33686,922.63596)"
       id="g4625">
      <g
         id="g4627">
        <g
           id="g4629">
          <path
             d="m 58.581,55.999 c -4.257,5.561 -3.777,15.835 3.404,18.892 6.867,2.923 14.078,-5.163 16.063,-11.044 3.9,-11.556 -13.782,-14.029 -20.662,-9.733 -5.19,3.241 -5.452,9.481 -3.405,14.682 1.537,3.904 4.631,9.681 9.658,8.981 7.82,-1.089 8.69,-15.552 7.357,-21.204 -2.65,-11.239 -14.565,-1.818 -17.085,4.314 -1.916,4.661 2.288,9.774 6.992,9.963 6.945,0.28 9.071,-6.782 8.858,-12.502 -0.12,-3.21 -5.048,-3.233 -5,0 0.055,3.729 0.152,3.507 -3.109,5.45 1.254,0.72 2.508,1.439 3.762,2.159 0.101,-3.217 1.427,-4.726 3.615,-6.928 -1.393,-0.368 -2.786,-0.735 -4.178,-1.103 0.383,1.339 1.971,8.197 -1.656,6.481 -3.796,-1.796 0.932,-6.217 2.573,-7.552 -1.309,-0.168 -2.618,-0.337 -3.926,-0.506 1.493,2.626 3.074,3.561 1.922,6.77 1.607,0.443 3.214,0.886 4.821,1.329 2.303,-8.639 1.483,-18.15 -3.234,-25.853 -5.373,-8.774 -15.354,-10.896 -24.841,-8.744 -3.144,0.713 -1.811,5.533 1.329,4.821 7.99,-1.812 15.298,0.082 19.715,7.296 3.784,6.18 4.03,14.321 2.209,21.151 -0.841,3.155 3.746,4.325 4.821,1.329 C 70.4,59.39 68.563,58.057 66.158,53.826 65.3,52.315 63.451,52.328 62.232,53.32 c -4.841,3.937 -8.658,12.92 -0.527,15.863 8.355,3.024 9.567,-6.989 7.966,-12.586 -0.515,-1.8 -2.841,-2.449 -4.178,-1.103 -3.2,3.219 -4.936,5.837 -5.08,10.463 -0.06,1.9 2.167,3.108 3.762,2.159 4.823,-2.873 5.668,-4.234 5.586,-9.768 -1.667,0 -3.333,0 -5,0 0.092,2.455 0.162,7.29 -3.279,7.526 -2.149,0.147 -3.273,-1.8 -2.75,-3.658 0.411,-1.458 5.746,-7.61 6.995,-5.544 1.597,2.641 0.896,16.111 -3.061,16.201 -3.153,0.071 -5.296,-9.227 -4.847,-11.432 0.854,-4.188 6.51,-5 9.975,-4.459 4.285,0.669 6.924,3.306 4.523,7.452 -1.571,2.714 -6.052,7.981 -9.38,5.27 -3.379,-2.753 -2.311,-8.214 -0.04,-11.18 1.962,-2.563 -2.385,-5.048 -4.316,-2.525 l 0,0 z"
             id="path4631" />
        </g>
      </g>
      <g
         id="g4633">
        <g
           id="g4635">
          <path
             d="M 56.566,55.102 C 47.432,50.518 37.694,54.508 28.13,54.761 c -3.218,0.085 -3.226,5.085 0,5 8.347,-0.22 17.987,-4.318 25.912,-0.341 2.874,1.441 5.406,-2.872 2.524,-4.318 l 0,0 z"
             id="path4637" />
        </g>
      </g>
      <g
         id="g4639">
        <g
           id="g4641">
          <path
             d="m 78.305,69.232 c -1.385,-0.908 -2.959,-1.264 -4.348,-2.174 -0.42,1.553 -0.841,3.106 -1.262,4.659 1.75,-0.087 2.679,-0.619 3.941,-1.819 -1.01,0.13 -2.02,0.261 -3.029,0.391 8.958,4.778 16.856,14.577 17.24,25.015 1.254,-0.72 2.508,-1.439 3.762,-2.159 -9.471,-6.567 -16.202,-16.076 -23.016,-25.19 -1.14,1.14 -2.28,2.28 -3.42,3.42 12.443,7.125 13.626,21.959 22.32,32.218 1.672,1.973 4.811,-0.136 4.178,-2.432 -2.97,-10.789 -10.75,-22.299 -21.311,-26.746 0.199,1.523 0.398,3.046 0.597,4.569 8.721,-4.722 11.337,14.966 12.632,20.245 0.804,-1.055 1.607,-2.11 2.411,-3.165 -9.078,-0.428 -9.388,-13.332 -11.72,-19.904 -0.804,1.055 -1.607,2.11 -2.411,3.165 9.401,0.54 13.126,15.907 14.98,23.165 0.804,-1.055 1.607,-2.11 2.411,-3.165 -11.635,0.476 -12.404,-17.264 -14.98,-25.338 -1.224,0.941 -2.448,1.882 -3.672,2.823 9.878,5.366 12.541,17.349 9.721,27.611 1.393,-0.368 2.786,-0.735 4.178,-1.103 -7.303,-5.811 -5.938,-17.075 -6.876,-25.406 -1.422,0.589 -2.845,1.179 -4.268,1.768 4.59,5.109 3.504,11.961 2.618,18.22 -0.447,3.152 4.371,4.511 4.821,1.329 1.172,-8.272 2.078,-16.427 -3.904,-23.084 -1.374,-1.53 -4.513,-0.413 -4.268,1.768 1.089,9.678 -0.162,22.177 8.341,28.941 1.422,1.132 3.637,0.866 4.178,-1.103 3.399,-12.369 -0.192,-26.834 -12.019,-33.258 -1.845,-1.002 -4.367,0.648 -3.672,2.823 3.396,10.643 4.619,29.631 19.802,29.009 1.637,-0.067 2.825,-1.543 2.411,-3.165 -2.547,-9.968 -7.346,-26.121 -19.802,-26.835 -1.553,-0.089 -2.938,1.677 -2.411,3.165 3.326,9.373 3.852,22.977 16.541,23.575 1.67,0.079 2.782,-1.65 2.411,-3.165 -2.208,-9.005 -5.98,-30.812 -19.977,-23.233 -2.113,1.144 -1.238,3.796 0.597,4.569 8.806,3.708 15.375,14.376 17.819,23.254 1.393,-0.811 2.786,-1.622 4.178,-2.432 C 89.642,94.883 87.43,88.35 84.5,82.327 81.374,75.902 76.927,70.626 70.695,67.058 c -2.024,-1.159 -4.995,1.314 -3.42,3.42 7.358,9.842 14.587,19.896 24.81,26.984 1.553,1.077 3.828,-0.353 3.762,-2.159 -0.448,-12.18 -9.171,-23.707 -19.716,-29.333 -1.017,-0.542 -2.188,-0.408 -3.029,0.391 -0.136,0.118 -0.271,0.236 -0.406,0.354 -2.518,0.126 -3.368,3.279 -1.262,4.659 1.385,0.908 2.959,1.264 4.348,2.174 2.705,1.775 5.208,-2.557 2.523,-4.316 l 0,0 z"
             id="path4643" />
        </g>
      </g>
      <g
         id="g4645">
        <g
           id="g4647">
          <path
             d="m 76.131,79.015 c -4.937,-3.045 -10.589,-0.709 -13.203,4.158 -1.525,2.84 2.791,5.365 4.317,2.523 1.349,-2.511 3.708,-4.001 6.362,-2.364 2.753,1.698 5.263,-2.628 2.524,-4.317 l 0,0 z"
             id="path4649" />
        </g>
      </g>
      <g
         id="g4651">
        <g
           id="g4653">
          <path
             d="m 74.87,84.109 c -4.83,0.179 -7.823,4.457 -7.935,9.021 -0.079,3.226 4.921,3.219 5,0 0.042,-1.732 0.947,-3.948 2.935,-4.021 3.214,-0.119 3.225,-5.12 0,-5 l 0,0 z"
             id="path4655" />
        </g>
      </g>
      <g
         id="g4657">
        <g
           id="g4659">
          <path
             d="m 74.189,92.45 c -1.786,2.004 -1.818,4.653 -1.819,7.203 -0.002,3.225 4.998,3.224 5,0 0,-0.872 0.007,-1.741 0.076,-2.61 0.017,-0.208 0.081,-0.447 0.129,-0.651 0.033,-0.142 0.24,-0.508 0.149,-0.406 0.906,-1.017 1.005,-2.531 0,-3.535 -0.921,-0.923 -2.628,-1.019 -3.535,-10e-4 l 0,0 z"
             id="path4661" />
        </g>
      </g>
      <g
         id="g4663">
        <g
           id="g4665">
          <path
             d="m 85.724,70.479 c 0.217,-0.426 0.446,-0.842 0.699,-1.248 0.109,-0.176 0.229,-0.344 0.349,-0.512 -0.354,0.494 -0.006,0.031 0.075,-0.06 0.108,-0.12 0.229,-0.229 0.349,-0.337 -0.5,0.446 -0.204,0.158 -0.04,0.058 0.422,-0.256 -0.58,0.197 -0.131,0.052 0.449,-0.144 -0.662,0.04 -0.199,0.023 1.361,-0.049 2.5,-1.101 2.5,-2.5 0,-1.326 -1.137,-2.549 -2.5,-2.5 -2.655,0.095 -4.313,2.326 -5.419,4.499 -0.618,1.214 -0.329,2.703 0.897,3.42 1.123,0.66 2.802,0.318 3.42,-0.895 l 0,0 z"
             id="path4667" />
        </g>
      </g>
      <g
         id="g4669">
        <g
           id="g4671">
          <path
             d="m 85.739,78.239 c 2.66,-0.077 5.258,-1.07 7.202,-2.906 2.349,-2.218 -1.193,-5.747 -3.535,-3.535 -0.893,0.842 -2.323,1.403 -3.667,1.441 -3.217,0.093 -3.226,5.094 0,5 l 0,0 z"
             id="path4673" />
        </g>
      </g>
      <g
         id="g4675">
        <g
           id="g4677">
          <path
             d="m 89.912,85.506 c 2.512,1.168 5.042,1.426 7.784,1.428 3.225,0.003 3.224,-4.997 0,-5 -1.783,-10e-4 -3.607,0.023 -5.26,-0.746 -1.235,-0.575 -2.685,-0.359 -3.42,0.897 -0.641,1.093 -0.34,2.847 0.896,3.421 l 0,0 z"
             id="path4679" />
        </g>
      </g>
    </g>
  </g>
</svg>
