<?xml version="1.0" encoding="UTF-8" standalone="no"?>
<!-- Created with Inkscape (http://www.inkscape.org/) -->

<svg
   xmlns:dc="http://purl.org/dc/elements/1.1/"
   xmlns:cc="http://creativecommons.org/ns#"
   xmlns:rdf="http://www.w3.org/1999/02/22-rdf-syntax-ns#"
   xmlns:svg="http://www.w3.org/2000/svg"
   xmlns="http://www.w3.org/2000/svg"
   version="1.1"
   width="150"
   height="255"
   id="svg4525">
  <defs
     id="defs4527" />
  <metadata
     id="metadata4530">
    <rdf:RDF>
      <cc:Work
         rdf:about="">
        <dc:format>image/svg+xml</dc:format>
        <dc:type
           rdf:resource="http://purl.org/dc/dcmitype/StillImage" />
        <dc:title></dc:title>
      </cc:Work>
    </rdf:RDF>
  </metadata>
  <g
     transform="translate(0,-797.36215)"
     id="layer1">
    <g
       transform="translate(0.58991286,259.07627)"
       id="g375">
      <g
         id="g377">
        <path
           d="m 63.526,602.671 c -4.031,12.113 -1.281,24.608 -3.261,36.956 3.274,0.443 6.547,0.886 9.821,1.329 0.03,-19.899 0.693,-41.024 9.1,-59.433 2.628,-5.754 -5.49,-10.8 -8.635,-5.047 -10.247,18.744 -12.311,40.254 -15.721,60.977 3.274,0.443 6.547,0.886 9.821,1.329 -0.056,-23.787 -2.929,-49.276 12.666,-69.291 -2.845,-1.178 -5.69,-2.356 -8.536,-3.535 0.887,9.222 -0.004,21.298 -7.231,27.987 2.845,1.178 5.69,2.356 8.536,3.535 -0.737,-11.82 5.419,-22.095 12.361,-31.173 -3.046,-1.284 -6.092,-2.568 -9.139,-3.853 -4.314,18.49 -7.749,37.185 -13.043,55.436 3.214,0.886 6.428,1.772 9.643,2.658 4.38,-20.331 11.775,-39.794 17.391,-59.783 1.755,-6.247 -7.658,-8.75 -9.643,-2.658 -5.212,15.999 -7.704,32.664 -11.957,48.913 3.274,0.443 6.547,0.886 9.821,1.329 1.211,-11.608 5.318,-22.679 9.604,-33.453 -3.274,-0.443 -6.547,-0.886 -9.821,-1.329 -2.24,23.646 -3.693,49.163 -15.622,70.303 3.046,0.397 6.093,0.796 9.139,1.194 -1.694,-11.183 3.95,-23.204 10.366,-32.018 -3.046,-1.284 -6.092,-2.568 -9.139,-3.853 -3.277,13.56 -9.645,25.981 -14.13,39.131 -1.969,5.771 6.013,8.096 9.139,3.853 6.2,-8.416 11.192,-18.163 19.945,-24.293 -2.448,-1.882 -4.896,-3.765 -7.345,-5.646 -2.359,10.689 -8.342,19.814 -13.626,29.24 2.878,1.683 5.756,3.364 8.635,5.047 4.416,-8.767 9.203,-17.378 16.61,-23.988 -2.845,-1.178 -5.69,-2.356 -8.536,-3.535 -0.321,7.396 -5.545,13.192 -10.492,18.204 2.618,2.02 5.235,4.039 7.853,6.059 4.059,-7.78 10.389,-15.997 18.75,-19.441 -1.882,-2.448 -3.764,-4.896 -5.646,-7.345 -3.232,7.096 -8.381,12.651 -13.349,18.554 2.618,2.02 5.235,4.039 7.853,6.059 5.202,-7.023 10.106,-16.224 18.751,-19.441 -2.05,-2.05 -4.1,-4.101 -6.15,-6.15 -2.246,7.093 -7.071,12.815 -11.758,18.446 2.618,2.02 5.235,4.039 7.853,6.059 4.883,-6.832 9.872,-13.797 16.685,-18.858 -2.448,-1.882 -4.896,-3.765 -7.345,-5.646 -0.788,4.116 -1.191,7.662 -4.149,10.837 2.618,2.02 5.235,4.039 7.853,6.059 2.955,-5.554 7.007,-10.061 12.336,-13.423 -2.448,-1.882 -4.896,-3.765 -7.345,-5.646 -1.164,4.591 -4.381,7.121 -8.572,8.968 2.02,2.617 4.039,5.235 6.059,7.853 3.18,-3.913 7.294,-6.558 11.924,-8.496 -2.05,-2.05 -4.1,-4.101 -6.15,-6.15 -0.965,3.645 -2.606,5.96 -5.236,8.663 2.618,2.02 5.235,4.039 7.853,6.059 1.702,-2.418 3.659,-4.506 5.74,-6.597 4.553,-4.573 -2.504,-11.632 -7.071,-7.07 -4.101,4.095 -8.189,8.075 -13.118,11.174 2.448,0.996 4.896,1.992 7.345,2.988 -2,-8.547 -9.169,-10.109 -16.8,-8.416 -3.425,0.76 -6.766,1.987 -10.3,2.094 -4.07,0.122 -5.563,-3.247 -6.595,-6.721 -1.494,-5.028 -7.936,-4.482 -9.643,0 -1.614,4.237 -5.074,6.404 -8.572,8.968 2.508,1.439 5.016,2.878 7.523,4.317 -0.314,-4.588 -2.87,-8.593 -3.261,-13.043 -0.469,-5.341 -8.44,-7.144 -9.821,-1.329 -1.256,5.286 -3.93,10.021 -5.435,15.218 2.05,-1.164 4.1,-2.328 6.15,-3.492 -5.64,-1.067 -7.764,-4.86 -7.199,-10.396 -3.106,0.841 -6.211,1.683 -9.317,2.523 2.145,2.995 3.382,5.433 2.757,9.19 2.448,-0.996 4.896,-1.992 7.345,-2.988 -4.851,-3.585 -5.582,-10.662 -4.224,-16.092 -2.448,0.996 -4.896,1.992 -7.345,2.988 2.237,1.501 3.719,3.493 1.087,5.495 2.02,0.261 4.039,0.521 6.059,0.782 -4.11,-3.593 -5.662,-8.329 -4.149,-13.614 -2.448,0.996 -4.896,1.992 -7.345,2.988 1.098,0.671 2.575,1.468 2.95,2.73 -0.232,-0.783 0.063,-0.419 -0.776,0.048 -2.167,1.205 -3.248,-3.407 -3.525,-5.163 -2.05,2.05 -4.1,4.101 -6.15,6.15 3.566,1.296 4.139,3.148 5.708,6.397 1.439,-2.508 2.878,-5.016 4.317,-7.523 -4.795,0.379 -6.79,-3.731 -6.957,-8.044 -2.845,1.179 -5.69,2.357 -8.536,3.535 3.296,3.114 7.113,5.755 10.794,8.392 5.254,3.764 10.239,-4.915 5.047,-8.635 -3,-2.149 -6.083,-4.288 -8.77,-6.827 -3.04,-2.873 -8.71,-0.981 -8.536,3.535 0.366,9.451 6.534,18.868 16.957,18.044 3.926,-0.311 6.032,-3.971 4.317,-7.523 -2.769,-5.737 -5.535,-8.76 -11.684,-10.993 -3.965,-1.44 -6.684,2.764 -6.15,6.15 1.444,9.174 9.271,15.137 18.214,11.14 3.491,-1.56 5.32,-5.211 5.669,-8.812 0.482,-4.964 -4.098,-8.947 -7.843,-11.235 -2.788,-1.704 -6.47,-0.067 -7.345,2.988 -2.433,8.498 0.028,17.494 6.72,23.343 1.547,1.353 4.214,2.185 6.059,0.782 8.764,-6.663 7.934,-16.711 -1.087,-22.765 -2.665,-1.788 -6.593,-0.014 -7.345,2.988 -2.558,10.223 0.176,20.996 8.819,27.385 2.453,1.813 6.845,0.014 7.345,-2.988 1.07,-6.433 0.056,-11.56 -3.765,-16.896 -2.99,-4.175 -8.802,-2.522 -9.317,2.523 -0.985,9.648 4.888,18.214 14.541,20.039 2.705,0.512 5.346,-0.715 6.15,-3.492 1.505,-5.197 4.179,-9.931 5.435,-15.218 -3.274,-0.443 -6.547,-0.886 -9.821,-1.329 0.398,4.538 2.953,8.546 3.261,13.043 0.232,3.392 4.216,6.741 7.523,4.317 5.858,-4.294 10.502,-7.946 13.167,-14.944 -3.214,0 -6.428,0 -9.643,0 2.65,8.918 8.841,14.967 18.56,13.897 3.877,-0.428 7.573,-1.606 11.365,-2.448 0.962,-0.213 2.758,-0.318 3.132,-0.235 0.162,0.036 0.35,0.598 0.638,1.829 0.723,3.092 4.674,4.668 7.345,2.988 5.648,-3.551 10.44,-8.042 15.143,-12.738 -2.357,-2.356 -4.714,-4.714 -7.071,-7.07 -2.685,2.697 -5.112,5.506 -7.303,8.62 -3.322,4.721 3.964,10.056 7.853,6.059 3.793,-3.898 6.407,-7.789 7.807,-13.075 0.877,-3.311 -2.472,-7.69 -6.15,-6.15 -6.192,2.592 -12.038,5.777 -16.337,11.068 -3.673,4.52 0.792,10.173 6.059,7.853 6.469,-2.851 11.412,-8.015 13.167,-14.944 1.042,-4.111 -3.52,-8.06 -7.345,-5.646 -6.73,4.246 -12.182,9.976 -15.924,17.011 -2.601,4.889 3.857,10.347 7.853,6.059 4.245,-4.556 5.579,-9.277 6.721,-15.249 0.727,-3.798 -3.461,-8.532 -7.345,-5.646 -8.29,6.158 -14.316,14.112 -20.272,22.446 -3.297,4.612 4.231,10.411 7.853,6.059 5.835,-7.011 11.536,-14.035 14.329,-22.858 1.089,-3.438 -2.58,-7.479 -6.15,-6.15 -11.591,4.314 -17.696,14.542 -24.728,24.037 -3.379,4.562 4.214,10.383 7.853,6.059 5.483,-6.516 11.343,-12.744 14.912,-20.577 1.565,-3.437 -1.095,-9.22 -5.646,-7.345 -10.917,4.497 -19.325,13.682 -24.727,24.037 -2.582,4.949 3.748,10.218 7.853,6.059 6.95,-7.04 12.976,-15.037 13.421,-25.274 0.201,-4.615 -5.468,-6.273 -8.536,-3.535 -8.009,7.147 -13.395,16.525 -18.173,26.012 -2.881,5.72 5.46,10.709 8.635,5.047 5.695,-10.157 12.093,-20.11 14.634,-31.629 0.866,-3.926 -3.491,-8.345 -7.345,-5.646 -10.33,7.233 -16.21,17.94 -23.533,27.881 3.046,1.284 6.093,2.568 9.139,3.853 4.486,-13.149 10.854,-25.571 14.13,-39.131 1.396,-5.775 -5.886,-8.32 -9.139,-3.853 -8.202,11.266 -13.495,25.721 -11.374,39.723 0.67,4.427 7.178,4.67 9.139,1.194 12.843,-22.761 14.574,-49.882 16.987,-75.35 0.575,-6.073 -7.909,-6.137 -9.821,-1.329 -4.661,11.715 -8.646,23.51 -9.961,36.111 -0.596,5.71 8.425,6.664 9.821,1.329 4.253,-16.249 6.745,-32.914 11.957,-48.913 -3.214,-0.886 -6.428,-1.772 -9.643,-2.658 -5.616,19.989 -13.012,39.452 -17.391,59.783 -1.352,6.274 7.837,8.883 9.643,2.658 5.295,-18.251 8.729,-36.945 13.043,-55.436 1.366,-5.855 -5.81,-8.205 -9.139,-3.853 -7.971,10.424 -14.568,22.716 -13.726,36.22 0.272,4.369 5.229,6.596 8.536,3.535 9.129,-8.449 11.297,-23.237 10.16,-35.058 -0.361,-3.75 -5.542,-7.378 -8.536,-3.535 -8.239,10.573 -13.074,22.403 -14.777,35.697 -1.727,13.487 -0.85,27.111 -0.818,40.664 0.013,5.487 8.884,7.022 9.821,1.329 3.249,-19.735 4.952,-40.732 14.713,-58.588 -2.878,-1.683 -5.756,-3.364 -8.635,-5.047 -9.198,20.141 -10.433,42.648 -10.465,64.479 -0.008,5.492 8.91,7.018 9.821,1.329 1.964,-12.252 -0.702,-25.048 3.261,-36.956 2.046,-6.144 -7.613,-8.752 -9.639,-2.665 l 0,0 z"
           id="path379"
           style="fill:#8dc63f" />
      </g>
    </g>
    <g
       transform="translate(0.58991286,259.07627)"
       id="g400">
      <g
         id="g402">
        <path
           d="m 84.039,756.416 c 2.707,-7.684 -0.739,-17.16 -3.083,-24.492 -3.296,-10.309 -7.45,-20.33 -10.378,-30.758 -2.933,-10.444 -2.76,-21.736 -1.612,-32.444 1.15,-10.732 4.653,-24.722 13.098,-32.19 4.024,-3.559 10.994,-5.738 16.362,-7.399 6.872,-2.125 14.029,-3.646 21.227,-3.968 2.571,-0.114 5.032,-0.049 7.35,0.534 0.703,0.177 1.604,0.639 1.254,0.366 0.961,0.75 0.123,-0.649 0.127,0.037 -0.002,-0.468 -0.346,0.992 -0.715,1.678 -0.737,1.371 -1.714,2.568 -2.727,3.74 -4.096,4.737 -8.927,6.917 -14.859,8.613 -7.524,2.151 -14.759,3.896 -21.84,7.36 -8.668,4.241 -16.221,10.468 -24.592,15.232 2.448,0.996 4.896,1.992 7.345,2.988 -0.821,-2.094 -0.898,-4.052 -0.908,-6.279 -0.019,-4.286 -5.479,-6.722 -8.536,-3.535 -2.299,2.396 -3.216,4.619 -3.638,7.883 3.333,0 6.667,0 10,0 0.965,-14.82 -3.818,-31.306 -9.802,-44.668 -3.045,-6.8 -7.427,-13.53 -13.902,-17.484 -6.626,-4.046 -14.085,-2.427 -20.586,0.927 -5.477,2.824 -9.336,8.326 -8.821,14.62 0.542,6.626 4.664,12.272 8.78,17.213 8.853,10.627 20.388,18.459 30.662,27.569 0.834,0.74 1.649,1.508 2.38,2.352 -1.49,-1.719 0.937,1.188 0.581,0.833 0.874,0.874 2.102,1.327 3.186,1.869 4.752,2.376 8.813,-2.288 6.841,-6.841 -6.74,-15.561 -9.494,-33.234 -9.284,-50.104 0.209,-16.866 4.483,-36.386 19.446,-46.315 1.859,-1.233 5.418,-3.4 7.182,-2.968 -0.74,-0.182 -0.213,0.012 -0.13,0.242 0.398,1.103 0.46,2.204 0.503,3.36 0.243,6.511 -1.602,13.142 -3.226,19.384 -2.557,9.828 -5.803,19.445 -8.147,29.335 -3.091,13.041 -4.715,26.407 -4.792,39.808 -0.037,6.45 9.963,6.446 10,0 0.085,-14.952 2.361,-29.499 6.128,-43.948 2.417,-9.268 5.534,-18.319 7.722,-27.65 2.418,-10.311 5.969,-34.91 -12.523,-29.934 -18.705,5.034 -28.174,26.669 -30.897,43.937 -3.103,19.679 -0.621,40.531 5.39,59.439 1.132,3.562 2.509,7.033 3.994,10.462 2.28,-2.28 4.561,-4.561 6.841,-6.841 -0.362,-0.181 -0.725,-0.362 -1.087,-0.544 -2.339,-1.169 1.061,1.763 0.472,0.864 -0.526,-0.803 -1.177,-1.546 -1.842,-2.238 -1.491,-1.552 -3.195,-2.916 -4.847,-4.291 -4.868,-4.054 -9.83,-7.988 -14.612,-12.146 -5.018,-4.363 -10.101,-8.975 -14.151,-14.277 -1.611,-2.109 -3.188,-4.441 -4.08,-6.954 -0.668,-1.881 -0.787,-3.282 -0.184,-4.485 1.888,-3.77 8.605,-5.938 12.632,-4.726 5.544,1.668 9.034,8.943 11.316,13.672 5.696,11.799 9.72,27.316 8.859,40.529 -0.428,6.572 9.198,6.201 10,0 -0.035,-0.37 0.201,-0.641 0.709,-0.812 -2.845,-1.178 -5.69,-2.356 -8.536,-3.535 0.013,3.03 0.149,6.091 1.266,8.938 1.172,2.987 4.314,4.714 7.345,2.988 11.934,-6.793 22.32,-15.744 35.798,-19.446 11.181,-3.071 21.075,-5.464 28.755,-14.789 3.6,-4.37 7.217,-10.738 3.686,-16.232 -3.139,-4.885 -9.728,-5.658 -15.015,-5.761 -13.939,-0.271 -29.655,4.024 -41.813,10.761 -8.209,4.548 -12.822,13.199 -16.235,21.616 -4.53,11.172 -5.722,23.8 -5.577,35.754 0.162,13.31 3.827,25.158 8.25,37.586 2.307,6.481 4.663,12.95 6.532,19.575 1.145,4.057 2.781,9.182 1.318,13.334 -2.151,6.096 7.512,8.696 9.64,2.656 l 0,0 z"
           id="path404"
           style="fill:#00a651" />
      </g>
    </g>
    <g
       transform="translate(0.58991286,259.07627)"
       id="g406">
      <g
         id="g408">
        <path
           d="m 85.708,757.61 c 4.11,-9.658 7.872,-19.438 12.902,-28.674 4.22,-7.75 10.937,-19.101 20.824,-19.937 -1.607,-2.109 -3.214,-4.22 -4.821,-6.329 -4.416,15.853 -13.852,29.223 -24.801,41.272 -4.321,4.756 2.683,11.824 7.071,7.07 7.946,-8.605 18.315,-12.004 29.315,-15.019 -1.622,-2.785 -3.243,-5.571 -4.865,-8.356 -6.879,6.818 -14.222,13.281 -19.26,21.664 -2.598,4.323 2.541,9.365 6.841,6.841 7.335,-4.306 14.103,-10.058 22.719,-11.453 -1.882,-2.448 -3.764,-4.896 -5.646,-7.345 -2.418,4.093 -3.45,8.756 -5.435,13.044 -2.354,5.085 3.494,10.036 7.853,6.059 3.355,-3.062 7.788,-3.69 11.924,-5.235 -2.11,-1.607 -4.219,-3.214 -6.329,-4.821 -0.241,6.612 -2.952,12.862 -4.169,19.322 -1.187,6.302 8.45,8.991 9.643,2.658 1.391,-7.385 4.25,-14.398 4.526,-21.98 0.111,-3.055 -3.315,-5.947 -6.329,-4.821 -5.941,2.219 -11.513,3.405 -16.337,7.808 2.618,2.02 5.235,4.039 7.853,6.059 1.973,-4.262 3.046,-9.001 5.435,-13.044 2.424,-4.104 -1.532,-8.011 -5.646,-7.345 -9.498,1.538 -17.03,7.72 -25.107,12.461 2.28,2.28 4.561,4.561 6.841,6.841 4.579,-7.618 11.444,-13.442 17.697,-19.641 3.569,-3.537 -0.046,-9.678 -4.865,-8.356 -12.616,3.458 -24.635,7.742 -33.729,17.591 2.357,2.356 4.714,4.714 7.071,7.07 12.103,-13.318 22.493,-28.164 27.373,-45.685 0.817,-2.933 -1.542,-6.606 -4.821,-6.329 -12.424,1.051 -20.715,10.654 -26.958,20.6 -6.471,10.309 -10.659,21.817 -15.402,32.964 -2.497,5.862 6.114,10.963 8.632,5.046 l 0,0 z"
           id="path410"
           style="fill:#00a651" />
      </g>
    </g>
    <g
       transform="translate(0.58991286,259.07627)"
       id="g412">
      <g
         id="g414">
        <path
           d="m 64.03,752.176 c 0.903,1.378 1.266,2.962 2.174,4.348 2.104,3.212 8.458,3.441 9.139,-1.194 1.429,-9.736 -2.831,-19.418 -7.705,-27.63 -4.548,-7.663 -11.604,-16.686 -20.787,-18.738 -2.83,-0.633 -6.764,1.418 -6.329,4.821 1.526,11.938 8.462,19.277 16.682,27.448 1.622,-2.785 3.243,-5.571 4.865,-8.356 -9.175,-3.591 -17.295,-8.548 -27.416,-8.874 -3.939,-0.127 -6.03,4.301 -4.317,7.523 3.515,6.613 8.57,12.054 13.825,17.316 2.02,-2.617 4.04,-5.234 6.059,-7.853 -8.763,-4.915 -17.819,-8.121 -27.766,-4.853 -2.527,0.83 -4.322,3.45 -3.492,6.15 2.571,8.362 7.16,15.524 13.242,21.771 4.504,4.628 11.57,-2.449 7.071,-7.07 -4.885,-5.018 -8.603,-10.633 -10.671,-17.359 -1.164,2.05 -2.328,4.101 -3.492,6.15 7.409,-2.435 13.571,0.205 20.061,3.845 4.946,2.774 10.117,-3.789 6.059,-7.853 -4.682,-4.689 -9.128,-9.396 -12.262,-15.293 -1.439,2.508 -2.878,5.016 -4.317,7.523 8.927,0.287 16.642,5.34 24.758,8.517 4.842,1.896 8.203,-5.039 4.865,-8.356 -5.926,-5.891 -12.63,-11.593 -13.753,-20.378 -2.11,1.607 -4.219,3.214 -6.329,4.821 6.672,1.491 11.454,8.727 14.811,14.143 3.306,5.334 7.661,13.354 6.697,19.925 3.046,-0.398 6.092,-0.796 9.139,-1.194 -0.903,-1.378 -1.266,-2.962 -2.174,-4.348 -3.52,-5.368 -12.182,-0.363 -8.637,5.048 l 0,0 z"
           id="path416"
           style="fill:#00a651" />
      </g>
    </g>
    <g
       transform="translate(0.58991286,259.07627)"
       id="g418">
      <g
         id="g420">
        <path
           d="m 41.523,760.552 c -6.554,-3.321 -13.637,-7.321 -21.244,-5.938 -4.224,0.768 -12.827,3.427 -10.417,9.684 3.227,8.381 16.994,10.52 24.547,13.003 -0.398,-3.046 -0.796,-6.093 -1.194,-9.139 -3.551,2.025 -5.534,5.232 -8.696,7.608 -3.203,2.406 -3.432,8.029 1.194,9.139 8.317,1.995 16.147,0.367 24.397,-1.087 6.343,-1.118 3.646,-10.754 -2.658,-9.643 -6.399,1.128 -12.615,2.638 -19.081,1.087 0.398,3.046 0.796,6.093 1.194,9.139 3.102,-2.331 5.327,-5.688 8.696,-7.608 3.916,-2.233 2.804,-7.824 -1.194,-9.139 -5.61,-1.845 -11.453,-3.352 -16.684,-6.152 -0.409,-0.226 -0.807,-0.467 -1.196,-0.725 -1.556,-0.988 3.524,-0.627 -0.545,4.398 0.046,-0.058 3.309,-0.788 4.161,-0.896 4.589,-0.585 9.766,2.925 13.672,4.904 5.739,2.907 10.802,-5.72 5.048,-8.635 l 0,0 z"
           id="path422"
           style="fill:#00a651" />
      </g>
    </g>
    <g
       transform="translate(0.58991286,259.07627)"
       id="g462">
      <g
         id="g464">
        <path
           d="m 47.222,635.279 c -0.769,4.28 -1.712,9.901 -6.291,11.726 2.05,1.164 4.1,2.328 6.15,3.492 -0.778,-3.066 -1.945,-7.933 -0.625,-10.45 0.334,-0.638 0.088,-0.085 -0.591,-0.005 1.06,-0.125 0.334,-0.184 1.344,0.477 0.225,0.147 0.76,1.089 0.47,2.183 -0.8,3.024 -6.026,5.333 -8.923,6.478 2.05,1.164 4.1,2.328 6.15,3.492 -1.702,-9.472 5.54,-20.227 11.758,-26.657 -2.786,-0.735 -5.571,-1.471 -8.357,-2.206 0.303,1.19 0.301,4.661 0.167,7.081 -0.21,3.798 -0.801,7.549 -1.587,11.267 -0.953,4.508 -3.075,14.842 -7.958,16.015 0.394,-0.095 -1.207,-0.551 -1.755,-0.879 -1.031,-0.618 -2.007,-1.799 -2.163,-3.029 -0.463,-3.663 1.655,-7.286 3.489,-10.273 3.379,-5.505 10.409,-13.785 15.958,-15.602 -1.882,-0.766 -3.764,-1.531 -5.646,-2.298 2.75,4.607 0.37,14.397 -1.38,19.675 -0.905,2.728 -2.359,5.873 -4.902,7.417 -0.685,0.416 -2.145,0.181 -2.264,0.155 0.942,0.203 0.505,0.809 0.456,0.267 -0.583,-6.452 4.542,-14.062 7.7,-19.278 2.802,-4.626 7.206,-11.95 11.579,-14.051 -2.448,-0.996 -4.896,-1.992 -7.345,-2.988 3.453,9.243 3.616,27.946 -6.397,33.484 2.28,0.598 4.561,1.196 6.841,1.794 -3.14,-4.616 -1.613,-11.253 -0.215,-16.222 1.599,-5.678 4.706,-12.434 10.377,-14.981 -2.28,-0.598 -4.561,-1.196 -6.841,-1.794 6.783,9.555 -1.159,24.468 -9.001,30.898 2.357,0 4.714,0 7.071,0 -2.739,-3.01 -1.852,-10.807 -1.443,-14.879 0.678,-6.742 2.736,-13.85 6.59,-19.47 2.646,-3.858 7.073,-3.962 8.318,0.859 1.305,5.054 -0.354,12.504 -4.232,16.098 2.618,0.337 5.235,0.674 7.853,1.012 -3.877,-6.049 -1.739,-13.588 2.479,-18.941 -2.357,0 -4.714,0 -7.071,0 4.53,4.867 6.819,12.542 5.236,19.049 3.046,-0.398 6.092,-0.796 9.139,-1.194 -3.003,-4.997 -2.585,-11.315 1.392,-15.681 -2.02,0.261 -4.04,0.521 -6.059,0.782 3.746,2.687 6.457,7.422 8.006,11.659 0.882,2.41 1.292,4.87 0.602,7.364 -0.574,2.077 -3.799,2.487 -0.895,2.942 0.804,0.126 1.51,1.372 0.899,0.3 -0.295,-0.518 -0.418,-1.463 -0.558,-2.103 -0.401,-1.841 -0.317,-3.817 -0.258,-5.687 0.095,-3.025 0.508,-7.508 2.611,-9.823 -2.02,0.261 -4.04,0.521 -6.059,0.782 6.279,3.99 9.383,15.357 4.728,21.42 2.28,-0.598 4.561,-1.196 6.841,-1.794 -5.833,-3.821 -1.049,-15.03 1.794,-19.246 -2.28,0.598 -4.561,1.196 -6.841,1.794 3.235,1.488 14.442,14.441 7.6,15.137 -4.023,0.409 -1.21,-14.812 0.328,-16.931 -1.882,0.767 -3.764,1.532 -5.646,2.298 4.674,1.638 12.56,16.25 6.415,19.122 -1.263,0.591 -4.539,-9.393 1.437,-9.161 2.598,0.101 3.448,4.513 3.398,6.438 -0.061,2.366 -4.248,0.634 -5.158,-0.33 -3.791,-4.015 -0.947,-17.182 3.197,-19.834 -2.508,-1.439 -5.016,-2.878 -7.523,-4.317 0.138,5.016 -3.607,6.039 -8.151,4.942 -5.845,-1.411 -9.183,-6.262 -8.758,-12.14 0.375,-5.194 7.009,-17.558 12.882,-16.291 1.151,0.248 0.797,0.164 0.597,0.831 -0.621,2.062 -6.816,3.242 -8.96,3.526 1.667,1.667 3.333,3.333 5,5 -0.419,-3.969 1.154,-7.201 4.451,-9.475 1.232,-0.85 2.73,-1.569 4.132,-1.65 0.653,-0.038 -0.161,-1.111 -0.146,-0.004 0.023,1.793 -1.978,6.718 -3.396,5.539 -3.384,-2.812 2.193,-5.233 4.331,-5.894 -2.05,-2.05 -4.1,-4.101 -6.15,-6.15 -1.067,2.788 -14.669,15.871 -16.275,11.044 -2.023,-6.079 3.028,-15.734 6.845,-20.17 1.823,-2.119 1.936,-2.391 3.677,-1.331 0.094,0.058 0.545,0.981 0.275,0.226 0.162,0.454 0.218,0.114 -0.075,1.214 -0.661,2.482 -4.231,5.727 -6.875,6.591 -1.168,0.382 -0.242,0.283 -1.763,0.205 0.537,0.027 0.497,0.2 0.208,-0.074 0.187,0.178 -0.345,-0.68 -0.563,-1.513 -0.42,-1.606 -0.242,-3.393 -0.139,-5.026 0.272,-4.318 1.37,-9.114 3.174,-13.05 0.583,-1.274 1.285,-2.395 2.272,-3.378 0.729,-0.727 0.852,-0.479 1.258,-0.478 -0.235,0 0.498,0.164 1.186,0.58 0.453,0.273 1.098,0.95 1.786,1.755 0.93,1.088 1.741,3.522 1.806,4.582 0.101,1.634 0.125,1.566 -1.314,2.305 -2.319,1.189 -7.235,-0.219 -9.796,-0.842 -2.198,-0.535 -4.715,-1.703 -5.364,-2.794 0.353,0.593 0.023,-0.465 -0.045,-0.048 0.16,-0.973 0.228,-1.045 1.074,-2.324 1.691,-2.557 6.46,-5.1 9.278,-5.225 1.457,-0.064 1.407,-0.061 1.951,0.887 0.964,1.68 0.083,5.854 -0.373,8.284 -1.087,5.8 -3.548,5.517 -7.986,2.615 -1.93,-1.262 -3.615,-3.091 -4.895,-4.996 -0.613,-0.912 -1.1,-1.875 -1.352,-2.621 -0.304,-0.899 0.03,-2.011 -0.431,-0.945 0.142,-0.328 -0.459,-0.038 0.666,-0.397 1.311,-0.42 2.776,-0.352 4.135,-0.316 0.99,0.026 1.802,0.327 2.398,0.667 0.005,0.003 0.459,0.506 0.621,1.04 0.381,1.265 -0.027,3.396 -0.668,5.413 -0.736,2.314 -2.053,4.632 -3.562,6.527 -1.493,1.876 -2.852,3.131 -4.823,4.103 0.108,-0.054 -1.108,-0.065 -0.202,0.095 -0.442,-0.078 -0.231,0.107 -0.806,-0.804 -1.648,-2.615 -1.813,-6.289 -1.836,-9.287 -0.009,-1.135 0.142,-2.079 0.503,-3.153 -0.078,0.232 -0.113,0.673 -1.375,0.797 0.193,-0.019 1.587,0.486 2.753,1.48 1.948,1.659 3.354,3.625 4.575,5.858 1.999,3.653 2.783,7.954 -0.657,10.324 -1.275,0.879 -2.684,1.319 -4.163,1.726 -0.6,0.165 -2.615,0.164 -2.109,0.269 -0.477,-0.099 -0.14,-0.201 0.116,0.192 -0.678,-1.045 0.248,0.91 -0.126,-0.345 -0.195,-0.655 -0.069,0.316 -0.117,-0.981 -0.138,-3.76 2.035,-8.505 4.603,-12.082 0.113,-0.158 1.198,-1.307 1.717,-1.787 -0.018,0.017 1.572,-0.838 0.803,-0.562 0.284,-0.102 -0.134,-0.014 -0.576,-0.235 1.043,0.522 -0.586,-0.628 0.317,0.32 -0.411,-0.432 0.577,1.099 0.703,1.354 1.576,3.204 1.688,7.502 1.924,10.977 0.292,4.298 0.282,9.29 -1.54,13.305 -2.037,4.489 -5.038,4.102 -8.65,1.82 -7.03,-4.439 -6.802,-12.757 -0.766,-17.795 -2.357,0 -4.714,0 -7.071,0 3.751,3.427 5.417,13.07 0.355,16.092 -5.037,3.006 -8.008,-9.574 -8.553,-12.341 -0.436,-2.213 -0.84,-5.47 0.099,-7.607 0.232,-0.528 -0.102,-0.663 0.742,-0.302 1.663,0.712 2.371,2.439 2.772,4.069 0.936,3.795 -4.383,1.956 -5.646,0.719 -2.171,-2.128 -3.964,-6.321 -3.15,-9.357 -1.164,1.164 -2.328,2.328 -3.492,3.492 3.235,-0.59 6.031,2.435 7.4,4.96 1.231,2.271 -1.543,5.553 -3.785,3.796 -2.684,-2.103 -2.794,-5.349 -0.564,-7.653 1.074,-1.11 2.091,-0.634 0.843,-1.225 0.491,0.232 0.905,1.188 1.097,1.656 2.138,5.232 1.948,12.763 -3.287,16.179 -0.957,0.624 -1.871,-2.521 -1.659,-3.824 0.474,-2.915 1.708,-3.228 3.59,-2.074 4.302,2.638 7.687,10.419 5.166,15.025 -1.945,3.556 -10.885,7.06 -12.67,1.778 -0.552,-1.634 1.856,-2.925 3,-3.562 0.724,-0.403 1.669,-0.671 2.481,-0.728 1.201,-0.084 0.335,0.279 0,-0.648 1.052,2.915 -2.969,5.391 -4.952,6.39 -3.132,1.579 -7.657,1.718 -10.684,-0.078 0.598,2.28 1.196,4.561 1.794,6.841 0.733,-1.279 1.466,-2.468 2.479,-3.539 0.507,-0.536 0.478,-0.445 1.065,-0.782 -0.257,0.147 -1.113,0.12 -0.105,0.109 -0.984,0.011 -0.762,-0.423 0.084,0.458 -0.354,-0.368 0.943,1.769 0.834,1.482 0.395,1.039 0.538,1.944 0.568,2.409 0.053,0.81 -0.145,1.497 -0.014,1.219 -0.212,0.449 1.463,-0.433 0.66,-0.41 -0.443,0.012 -2.154,-0.781 -3.018,-1.266 -0.509,-0.285 -2.477,-1.975 -2.193,-1.247 0.218,0.559 -0.789,2.589 -0.087,1.39 -0.463,0.792 0.521,-0.293 0.155,-0.032 2.392,-1.706 5.424,-2.478 8.21,-3.246 5.239,-1.446 10.927,-2.678 16.392,-2.764 -1.607,-2.109 -3.214,-4.22 -4.821,-6.329 -0.415,1.577 -0.203,1.758 -0.614,1.764 -6.443,0.091 -6.452,10.091 0,10 5.586,-0.078 8.906,-3.964 10.256,-9.105 0.815,-3.103 -1.534,-6.381 -4.821,-6.329 -9.219,0.145 -19.64,2.364 -27.929,6.381 -4.278,2.073 -7.508,5.981 -6.383,10.93 1.132,4.979 7.875,8.496 12.373,9.547 11.366,2.656 13.327,-10.023 9.991,-17.787 -1.724,-4.013 -5.359,-6.634 -9.643,-7.063 -5.5,-0.55 -9.709,5.042 -12.074,9.165 -1.362,2.375 -0.562,5.442 1.794,6.841 8.237,4.888 19.577,2.586 26.303,-3.843 5.954,-5.691 6.379,-17.125 -2.361,-20.07 -6.48,-2.184 -15.225,2.903 -17.784,8.844 -3.845,8.926 3.617,16.684 12.19,17.618 8.087,0.881 17.363,-5.055 19.754,-12.808 2.526,-8.191 -1.937,-17.734 -7.913,-23.305 -6.783,-6.323 -16.622,-4.496 -20.106,4.332 -3.104,7.867 1.595,18.191 10.671,18.421 6.28,0.158 11.304,-6.593 13.292,-11.813 1.844,-4.847 1.443,-10.532 0.194,-15.469 -1.265,-5.003 -4.512,-9.696 -9.903,-10.415 -5.514,-0.734 -11.556,4.631 -13.135,9.62 -4.274,13.505 12.111,26.362 22.612,14.756 10.169,-11.24 -5.459,-26.315 -17.403,-24.137 -1.662,0.303 -3.073,1.927 -3.492,3.492 -1.879,7.009 1.429,14.881 6.441,19.791 6.06,5.936 16.429,4.992 20.67,-2.566 3.747,-6.676 -0.596,-16.147 -7.269,-19.005 -6.956,-2.979 -13.382,1.043 -14.892,8.12 -2.264,10.615 3.434,32.086 17.261,31.511 16.356,-0.68 17.861,-24.421 7.883,-33.535 -2.15,-1.965 -4.905,-1.808 -7.071,0 -11.316,9.444 -8.936,24.867 2.276,33.148 4.807,3.551 10.96,4.225 16.357,1.809 6.892,-3.086 8.769,-12.02 9.36,-18.678 0.78,-8.791 -2.367,-37.407 -18.076,-27.134 -7.944,5.195 -14.22,19.164 -10.135,28.252 2.604,5.796 9.225,6.079 14.554,4.616 6.728,-1.846 11.897,-6.778 12.777,-13.81 1.234,-9.859 -7.474,-24.148 -18.084,-24.946 -14.768,-1.11 -10.923,24.875 -3.137,30.568 10.661,7.795 21.632,-8.407 24.31,-16.831 1.684,-5.296 1.384,-11.715 -2.88,-15.721 -4.781,-4.491 -13.379,-4.394 -18.947,-1.598 -5.99,3.008 -5.513,10.121 -3.237,15.292 2.315,5.262 7.445,9.979 12.586,12.394 5.972,2.806 12.697,2.265 16.843,-3.277 3.893,-5.204 5.253,-14.573 3.255,-20.739 -4.123,-12.719 -19.882,-7.809 -26.923,-0.922 -3.549,3.471 -6.193,8.996 -4.25,13.934 2.755,6.997 10.576,8.878 17.258,10.002 6.275,1.055 14.163,0.301 17.284,-6.16 2.459,-5.091 1.045,-11.168 -1.997,-15.691 -3.282,-4.88 -8.348,-7.852 -14.285,-6.877 -7.599,1.248 -10.846,10.955 -12.4,17.235 -1.592,6.434 -3.387,15.829 1.026,21.638 3.322,4.372 8.766,5.352 13.739,3.275 6.503,-2.715 13.799,-9.711 12.927,-17.44 -0.537,-4.759 -3.648,-7.96 -7.993,-9.684 -5.29,-2.1 -10.187,0.907 -13.603,4.877 -6.288,7.309 -14.509,25.073 -6.43,33.725 10.672,11.427 29.185,-5.197 33.137,-15.523 1.373,-3.587 -2.739,-7.204 -6.15,-6.15 -9.315,2.877 -17.348,12.573 -9.62,21.661 7.434,8.744 17.46,1.93 20.484,-6.78 3.229,-9.298 -3.45,-16.732 -12.906,-14.282 -8.802,2.281 -15.632,11.449 -14.673,20.527 0.255,2.418 2.097,5.385 5,5 6.687,-0.888 13.757,-2.595 17.624,-8.647 2.612,-4.089 1.578,-9.771 -2.01,-12.896 -12.107,-10.541 -25.185,7.444 -28.854,17.292 -4.465,11.985 2.415,23.958 14.14,27.774 10.523,3.426 21.814,-2.669 21.492,-14.392 -0.1,-3.638 -4.223,-6.431 -7.523,-4.317 -11.06,7.08 -15.017,33.995 0.027,38.988 8.316,2.761 16.05,-1.394 16.981,-10.189 0.768,-7.25 -5.099,-15.923 -12.642,-16.392 -8.396,-0.521 -13.314,5.26 -14.203,13.156 -0.709,6.303 2.849,14.73 9.735,15.847 8.975,1.456 14.957,-6.764 14.29,-14.992 -0.688,-8.47 -5.686,-17.421 -12.674,-22.263 -0.923,-0.639 -2.047,-1.031 -3.096,-1.398 -2.249,-0.788 -4.384,0.559 -5.646,2.298 -6.183,8.517 -6.099,33.442 9.102,31.897 20.4,-2.074 8.558,-28.215 -3.348,-33.691 -2.604,-1.198 -5.203,-0.635 -6.841,1.794 -6.371,9.447 -9.223,25.711 1.794,32.928 2.49,1.631 5.252,0.275 6.841,-1.794 8.035,-10.463 2.103,-28.48 -8.315,-35.102 -1.82,-1.157 -4.599,-0.826 -6.059,0.782 -4.692,5.166 -5.691,12.956 -5.556,19.674 0.106,5.272 1.882,14.883 9.041,14.599 8.089,-0.321 12.601,-9.794 12.075,-16.891 -0.671,-9.056 -6.563,-18.374 -13.849,-23.6 -1.745,-1.251 -4.657,-0.757 -6.059,0.782 -6.965,7.644 -8.326,18.862 -2.956,27.798 2.169,3.61 8.094,3.103 9.139,-1.194 2.445,-10.05 -0.801,-21.251 -7.808,-28.777 -1.697,-1.823 -5.423,-2.093 -7.071,0 -6.933,8.798 -10.518,20.958 -4.042,31.059 1.78,2.777 5.426,3.261 7.853,1.012 6.71,-6.217 8.548,-17.206 6.804,-25.826 -1.959,-9.681 -12.659,-14.01 -20.979,-8.911 -8.227,5.04 -11.455,16.846 -12.963,25.689 -1.419,8.32 -2.397,19.669 3.764,26.439 1.965,2.16 5.045,1.661 7.071,0 11.178,-9.165 19.872,-29.906 10.564,-43.016 -1.709,-2.407 -4.177,-2.99 -6.841,-1.794 -7.748,3.479 -12.031,12.194 -14.615,19.805 -2.583,7.606 -3.924,18.039 0.865,25.08 1.559,2.292 4.332,3.182 6.841,1.794 14.023,-7.756 16.06,-31.217 10.993,-44.777 -1.188,-3.181 -4.259,-4.471 -7.345,-2.988 -3.417,1.641 -6.083,5.029 -8.383,7.927 -3.513,4.425 -6.599,9.155 -9.321,14.104 -3.646,6.627 -10.674,19.893 -3.913,26.782 8.262,8.419 19.116,-0.977 22.544,-9.006 3.568,-8.355 6.587,-21.991 1.565,-30.403 -1.108,-1.857 -3.515,-2.995 -5.646,-2.298 -15.651,5.123 -41.798,40.363 -15.857,48.909 10.647,3.508 16.673,-9.423 19.155,-17.311 2.708,-8.605 5.136,-20.209 2.853,-29.193 -0.921,-3.623 -5.768,-4.885 -8.357,-2.206 -9.021,9.329 -16.729,23.03 -14.329,36.386 0.446,2.483 3.774,4.432 6.15,3.492 6.671,-2.636 13.451,-6.269 15.908,-13.462 1.777,-5.205 -0.941,-10.414 -5.066,-13.476 -3.891,-2.888 -9.388,-2.223 -12.806,0.972 -5.298,4.951 -3.556,14.212 -2.012,20.3 0.615,2.426 3.65,4.488 6.15,3.492 8.295,-3.305 11.757,-10.257 13.275,-18.71 1.127,-6.31 -8.509,-9.005 -9.648,-2.665 l 0,0 z"
           id="path466"
           style="fill:#ee2a7b" />
      </g>
    </g>
    <g
       transform="translate(0.58991286,259.07627)"
       id="g468">
      <g
         id="g470">
        <path
           d="m 93.961,589.627 c -0.545,1.312 -0.101,3.501 -0.583,4.241 1.439,-0.825 2.878,-1.651 4.317,-2.477 -1.167,-0.053 -0.745,0.132 1.268,0.556 0.766,1.883 1.532,3.765 2.298,5.646 -0.115,0.711 0.811,-1.281 1.149,-1.766 0.285,-0.408 1.025,-1.375 0.995,-1.337 -2.786,-0.735 -5.571,-1.471 -8.357,-2.206 0.928,2.784 0.864,5.244 2.678,7.717 2.878,-1.683 5.756,-3.364 8.635,-5.047 -1.303,-1.689 -1.958,-3.746 -3.261,-5.436 -2.414,-3.131 -6.237,-3.231 -8.635,0 -3.342,4.503 -5.323,1.968 -7.052,-2.819 -0.917,-2.539 -2.971,-11.222 0.742,-12.661 2.616,-1.014 4.164,-3.289 3.492,-6.15 -0.729,-3.107 0.056,-6.396 0.179,-9.541 -2.845,1.179 -5.69,2.357 -8.536,3.535 2.712,2.434 5.996,4.1 8.695,6.521 2.357,-2.356 4.714,-4.714 7.071,-7.07 -2.023,-1.679 -4.523,-2.69 -6.521,-4.348 -1.622,2.785 -3.243,5.571 -4.865,8.356 0.509,0.228 1.019,0.454 1.528,0.682 1.309,-3.555 1.174,-4.917 -0.405,-4.088 -0.438,0.16 -1.213,0.372 -1.726,0.285 -6.306,-1.068 -9.006,8.567 -2.658,9.643 4.539,0.77 9.992,-0.148 12.82,-4.173 4.058,-5.774 -2.101,-10.166 -6.901,-11.991 -4.612,-1.755 -8.652,5.215 -4.865,8.356 2.023,1.679 4.523,2.69 6.521,4.348 4.887,4.054 11.928,-2.714 7.071,-7.07 -2.712,-2.434 -5.996,-4.1 -8.695,-6.521 -3.274,-2.938 -8.361,-0.933 -8.536,3.535 -0.163,4.174 -0.791,8.068 0.179,12.199 1.164,-2.05 2.328,-4.101 3.492,-6.15 -11.122,4.311 -10.74,18.399 -6.638,27.694 1.94,4.397 5.096,8.271 9.812,9.74 6.055,1.888 11.149,-2.846 14.429,-7.265 -2.878,0 -5.756,0 -8.635,0 1.303,1.689 1.958,3.746 3.261,5.436 3.848,4.988 12.49,0.209 8.635,-5.047 -1.207,-1.646 -1.042,-3.445 -1.67,-5.328 -1.065,-3.196 -5.851,-5.364 -8.357,-2.206 -1.673,2.108 -4.268,4.756 -4.716,7.515 -0.398,2.456 0.318,4.165 2.298,5.646 1.581,1.184 4.646,1.098 6.303,0.127 1.425,-0.835 2.708,-2.708 3.142,-4.284 0.337,-1.225 -0.197,-3.08 0.243,-4.14 2.477,-5.953 -7.203,-8.522 -9.641,-2.657 l 0,0 z"
           id="path472"
           style="fill:#ee2a7b" />
      </g>
    </g>
    <g
       transform="translate(0.58991286,259.07627)"
       id="g474">
      <g
         id="g476">
        <path
           d="m 92.292,630.437 c 1.15,2.296 2.308,4.526 4.042,6.446 3.824,4.233 10.863,-1.269 7.853,-6.059 -1.779,-2.831 -1.97,-6.391 -2.757,-9.675 -3.046,1.284 -6.092,2.568 -9.139,3.853 1.316,2.421 3.193,4.506 5.129,6.446 4.558,4.57 11.629,-2.502 7.071,-7.07 -1.368,-1.371 -2.636,-2.712 -3.566,-4.423 -2.78,-5.116 -10.433,-1.548 -9.139,3.853 0.998,4.165 1.432,8.352 3.765,12.063 2.618,-2.02 5.235,-4.039 7.853,-6.059 -0.716,-0.793 -1.785,-3.038 -2.479,-4.423 -1.22,-2.436 -4.605,-3.104 -6.841,-1.794 -2.461,1.443 -3.013,4.405 -1.792,6.842 l 0,0 z"
           id="path478"
           style="fill:#ee2a7b" />
      </g>
    </g>
    <g
       transform="translate(0.58991286,259.07627)"
       id="g499">
      <g
         id="g501">
        <path
           d="m 56.042,607.23 c 6.45,3.986 11.877,-0.959 9.247,-7.82 -2.698,-7.039 -4.384,-14.188 -6.418,-21.47 -1.885,-6.749 -5.003,-16.695 1.972,-21.557 4.911,-3.423 12.089,-3.082 17.724,-2.296 5.319,0.742 13.101,2.328 16.561,6.951 3.281,4.386 -2.101,8.977 -5.344,11.41 -11.364,8.528 -26.502,14.706 -29.517,30.222 -1.123,5.776 5.759,8.371 9.139,3.853 8.459,-11.308 20.553,-19.084 32.989,-25.38 -2.02,-0.261 -4.039,-0.521 -6.059,-0.782 5.192,6.385 7.265,14.542 8.318,22.552 1.224,-1.607 2.447,-3.214 3.671,-4.821 -13.583,3.003 -27.554,-1.729 -41.305,1.087 -4.74,0.971 -4.84,8.748 0,9.643 11.694,2.162 23.214,7.278 32.893,14.134 4.398,3.116 8.824,7.348 10.34,12.666 1.714,6.012 -3.3,11.245 -7.396,14.844 -9.148,8.037 -17.056,-5.836 -20.979,-12.651 -5.564,-9.667 -9.146,-21.231 -16.515,-29.74 -2.357,2.356 -4.714,4.714 -7.071,7.07 15.224,15.881 1.855,55.515 -23.226,44.325 -19.227,-8.577 18.979,-40.659 25.949,-47.586 3.458,-3.436 -0.015,-9.927 -4.865,-8.356 -7.4,2.396 -14.217,6.402 -21.261,9.642 -3.256,1.498 -13.585,6.958 -15.414,1.408 -5.996,-18.195 22.9,-15.017 32.57,-14.271 5.94,0.458 6.356,-8.046 1.329,-9.821 -7.688,-2.716 -18.235,-2.087 -24.408,-8.036 -7.062,-6.806 8.226,-18.235 15.195,-11.869 4.75,4.34 11.842,-2.713 7.071,-7.07 -12.69,-11.594 -35.858,-0.231 -33.51,17.268 2.119,15.791 21.459,15.277 32.993,19.351 0.443,-3.273 0.886,-6.548 1.329,-9.821 -9.825,-0.758 -20.354,-1.682 -29.818,1.697 -10.687,3.815 -14.601,13.566 -12.633,24.283 1.941,10.572 12.56,11.735 21.133,9.185 9.847,-2.93 18.349,-9.149 28.082,-12.301 -1.622,-2.785 -3.243,-5.571 -4.865,-8.356 -13.716,13.63 -56.411,51.9 -19.771,64.976 34.471,12.302 52.288,-39.708 31.191,-61.715 -4.509,-4.703 -11.248,2.248 -7.071,7.07 3.412,3.94 5.909,10.079 8.34,14.996 3.29,6.656 6.606,13.331 10.828,19.457 3.741,5.427 8.232,10.232 14.487,12.633 6.962,2.671 13.89,-1.1 19.008,-5.596 5.687,-4.996 10.031,-12.151 9.542,-19.925 -0.465,-7.393 -5.184,-13.634 -10.5,-18.414 -10.787,-9.697 -26.104,-16.488 -40.318,-19.116 0,3.214 0,6.429 0,9.643 13.687,-2.803 27.575,1.948 41.305,-1.087 1.951,-0.432 3.945,-2.732 3.671,-4.821 -1.436,-10.922 -4.185,-20.939 -11.247,-29.622 -1.458,-1.793 -4.2,-1.724 -6.059,-0.782 -14.113,7.146 -27.026,16.201 -36.577,28.968 3.046,1.284 6.093,2.568 9.139,3.853 3.002,-15.448 22.124,-19.409 31.503,-30.021 4.57,-5.171 5.981,-11.643 3.137,-17.99 -2.858,-6.38 -10.863,-9.695 -17.073,-11.535 -13.96,-4.137 -33.312,-3.589 -39.705,11.899 -3.243,7.856 0.005,17.825 2.186,25.506 1.177,4.144 1.999,8.379 3.14,12.508 0.464,1.68 1.245,3.305 1.928,4.901 0.32,0.748 0.629,1.492 0.92,2.252 1.201,3.133 8.34,-2.278 5.144,-4.253 -5.504,-3.407 -10.522,5.246 -5.049,8.628 l 0,0 z"
           id="path503"
           style="fill:#be1e2d" />
      </g>
    </g>
    <g
       transform="translate(0.58991286,259.07627)"
       id="g505">
      <g
         id="g507">
        <path
           d="m 60.001,602.943 c -0.686,-0.35 -1.36,-0.709 -2.021,-1.105 -0.515,-0.349 -0.466,-0.293 0.145,0.166 -0.665,-0.661 -0.374,-0.116 0.875,1.635 0,0.886 0,1.772 0,2.658 -0.144,0.335 -0.288,0.67 -0.432,1.004 -0.598,0.599 -1.196,1.196 -1.793,1.794 0.213,-0.16 -2.201,0.469 -1.416,0.435 0.431,-0.019 0.866,0.02 1.295,0.052 0.241,0.018 1.935,0.238 0.657,0.058 0.569,0.08 1.136,0.179 1.702,0.277 1.03,0.179 2.055,0.389 3.076,0.614 0.736,0.162 2.621,0.96 0.508,-0.059 -0.766,-0.996 -1.532,-1.992 -2.298,-2.988 10e-4,0.005 0.003,0.01 0.005,0.015 1.607,-2.109 3.214,-4.22 4.821,-6.329 -3.011,0.365 -5.239,1.81 -7.489,3.761 -0.805,0.698 -1.51,1.393 -1.944,1.682 -0.762,0.508 0.209,-0.102 1.156,0.051 0.51,0.082 -0.892,-0.982 -1.068,-1.183 -0.701,-0.797 -0.589,-1.623 -0.315,-2.507 -0.027,0.086 0.823,-0.521 0.667,-0.466 0.583,-0.203 0.023,-0.374 0.605,0.157 0.875,0.799 1.87,2.104 2.136,2.475 0.26,0.362 1.376,2.537 0.824,1.197 0.63,1.527 0.189,-0.454 0.188,0.53 0.002,-0.912 -0.003,-0.976 0.782,-1.864 -0.551,0.624 1.096,-0.74 0.374,-0.28 -1.007,0.642 0.966,-0.321 0.17,-0.07 -1.503,0.476 0.856,0.017 -0.419,0.095 -0.561,0.034 -1.124,-0.002 -1.682,-0.052 -1.075,-0.096 1.242,0.2 0.167,0.011 -0.292,-0.052 -0.582,-0.121 -0.871,-0.19 -0.449,-0.108 -2.562,-0.912 -1.022,-0.252 -0.505,-0.217 -0.985,-0.485 -1.45,-0.777 -0.833,-0.522 0.933,0.786 0.204,0.178 -0.181,-0.15 -0.342,-0.321 -0.502,-0.493 0.958,1.03 0.514,0.708 0.276,0.307 -0.438,-0.738 0.428,1.253 0.213,0.44 0.329,1.242 0.167,0.422 -0.016,1.66 0.17,-1.15 -0.491,0.857 -0.079,0.146 0.484,-0.837 -0.814,0.92 -0.084,0.146 0.186,-0.197 1.04,-0.85 0.036,-0.1 0.71,-0.53 1.506,-0.941 2.296,-1.336 1.083,-0.541 3.361,-1.429 5.096,-1.804 -1.415,0.306 -0.838,0.088 -0.391,0.079 0.467,-0.009 -1.543,-0.411 -1.748,-0.511 -1.376,-0.667 -1.885,-2.208 -2.057,-3.604 0.088,0.719 0.28,-1.488 0.11,-0.717 -0.214,0.966 0.661,-1.19 -0.078,0.15 -0.207,0.375 -1.445,2.063 -0.473,0.813 -0.812,1.045 -1.737,2.004 -2.692,2.918 -0.499,0.477 -1.021,0.928 -1.551,1.369 -0.912,0.759 0.885,-0.653 -0.048,0.044 -0.343,0.257 -0.698,0.495 -1.055,0.729 -0.412,0.271 -0.842,0.513 -1.279,0.741 -1.226,0.641 0.989,-0.303 -0.225,0.072 -1.206,0.372 1.247,0.015 0.105,-0.017 1.139,0.031 2.451,0.859 2.911,1.61 0.342,0.903 0.435,1.107 0.279,0.612 -0.269,-0.896 0.098,1.349 0.046,0.294 -0.016,-0.328 0.014,-0.658 0.04,-0.984 -0.106,1.372 0.025,-0.026 0.075,-0.28 0.365,-1.842 0.94,-3.885 1.771,-5.521 0.142,-0.279 0.964,-1.172 0.694,-0.979 0.103,-0.073 1.444,-0.654 0.555,-0.335 0.138,-0.05 1.595,-0.277 0.558,-0.178 0.323,-0.021 0.646,-0.024 0.97,-0.011 1.478,0.024 -0.843,-0.218 0.612,0.106 1.086,0.241 0.808,0.146 1.999,0.854 0.792,0.471 1.566,1.489 1.759,2.134 0.198,0.661 0.166,-0.139 -0.004,0.613 -0.111,0.492 -0.461,1.009 -1.111,1.695 -0.665,0.702 -1.044,0.985 -1.815,1.479 -0.121,0.077 -1.531,0.711 -0.474,0.304 -0.284,0.109 -1.542,0.308 -0.173,0.151 -1.396,0.159 0.63,0.332 -0.607,-0.087 1.521,0.515 -0.345,-0.464 0.886,0.504 -0.246,-0.192 -0.455,-0.429 -0.663,-0.659 0.955,1.061 -0.053,-0.213 -0.25,-0.611 0.646,1.306 -0.101,-0.518 -0.197,-0.973 -0.093,-0.55 -0.078,-0.421 0.046,0.388 -0.032,-0.302 -0.032,-0.606 -0.031,-0.91 0.004,-1.293 -0.366,0.95 0.147,-0.524 -0.341,0.98 -0.821,1.513 -2.241,2.111 0.464,-0.195 -1.291,0.005 -1.552,-0.04 0.952,0.163 -1.086,-0.584 -0.096,-0.057 0.214,0.124 0.421,0.259 0.621,0.405 -0.951,-0.656 0.28,0.34 0.375,0.432 0.815,0.796 0.819,1.643 0.113,-0.395 -0.254,-0.735 -0.109,-1.41 0.203,-2.084 -0.279,0.449 -0.218,0.409 0.183,-0.12 -0.237,0.305 -0.53,0.562 -0.817,0.817 0.857,-0.762 -0.083,-0.037 -0.313,0.086 1.193,-0.637 -0.809,0.022 0.692,-0.155 -0.572,-0.006 -0.49,0.024 0.244,0.089 0.553,0.107 0.829,0.521 1.132,0.926 -0.342,-0.456 -0.403,-1.335 -0.43,-2.493 -0.15,-6.438 -10.15,-6.452 -10,0 0.144,6.192 3.532,12.755 10.753,11.256 4.809,-0.998 8.905,-5.689 8.043,-10.701 -0.803,-4.669 -6.974,-8.397 -11.404,-7.698 -4.029,0.637 -5.768,5.165 -5.645,8.748 0.137,3.978 1.953,7.922 5.27,10.207 3.948,2.72 9.029,1.487 12.592,-1.239 4.623,-3.537 8.094,-9.04 5.873,-14.996 -1.799,-4.823 -6.36,-8.419 -11.417,-9.29 -5.748,-0.991 -11.301,1.426 -13.991,6.727 -1.983,3.908 -3.652,9.256 -2.665,13.655 0.925,4.121 5.248,5.769 9.007,4.777 3.048,-0.804 5.767,-3.007 8.062,-5.058 4.185,-3.74 11.175,-13.293 2.221,-16.347 -3.669,-1.252 -8.936,1.515 -12.044,3.067 -3.379,1.688 -6.612,4.787 -6.536,8.832 0.246,13.197 28.307,13.252 23.093,-1.176 -1.397,-3.864 -4.808,-8.591 -8.633,-10.229 -6.373,-2.73 -12.364,0.859 -14.886,6.864 -2.631,6.266 2.375,14.042 8.368,15.991 2.503,0.814 5.377,-0.136 7.39,-1.655 1.099,-0.829 2.105,-1.73 3.127,-2.648 0.423,-0.381 2.161,-1.043 0.418,-0.832 3.014,-0.365 5.964,-2.946 4.821,-6.329 -1.575,-4.665 -9.206,-4.885 -13.292,-5.259 -2.727,-0.25 -6.792,0.626 -7.283,3.955 -0.628,4.257 2.175,6.304 5.581,8.042 5.734,2.926 10.795,-5.701 5.049,-8.633 l 0,0 z"
           id="path509"
           style="fill:#f7941e" />
      </g>
    </g>
    <g
       transform="translate(0.58991286,259.07627)"
       id="g511">
      <g
         id="g513">
        <path
           d="m 58.01,603.054 c -6.241,-10.126 -14.478,-27.915 -29.292,-23.688 -2.174,0.62 -1.502,3.44 0.499,3.683 11.25,1.359 20.687,8.051 26.642,17.55 0.901,1.437 2.885,1.072 3.427,-0.448 4.331,-12.143 7.833,-27.652 -2.656,-37.694 -1.084,-1.038 -3.369,-0.389 -3.201,1.326 0.251,2.56 0.915,5.352 2.43,7.469 0.982,-0.757 1.963,-1.515 2.945,-2.272 -1.469,-1.406 -2.98,-2.744 -4.671,-3.88 -0.481,1.142 -0.963,2.284 -1.445,3.427 0.029,0.007 2.212,0.723 2.485,1.065 0.608,-1.045 1.216,-2.089 1.824,-3.134 -0.775,-0.139 -3.317,-2.141 -4.019,-3.031 -0.276,1.044 -0.551,2.089 -0.827,3.134 -2.357,0.474 0.84,0.386 1.092,-0.141 -0.373,0.778 -0.701,1.435 -0.833,2.301 -0.36,2.364 3.253,3.381 3.616,0.996 0.255,-1.676 1.631,-2.933 0.616,-4.666 -0.873,-1.488 -3.916,-2.423 -5.488,-2.106 -1.529,0.308 -1.619,2.128 -0.827,3.134 1.064,1.353 3.951,3.688 5.673,3.996 1.923,0.344 3.01,-1.645 1.824,-3.134 -0.804,-1.01 -2.859,-1.716 -4.139,-2.03 -2.119,-0.52 -3.195,2.252 -1.445,3.427 1.428,0.959 2.673,2.108 3.913,3.295 1.487,1.424 4.223,-0.486 2.945,-2.272 -1.108,-1.549 -1.732,-3.677 -1.918,-5.576 -1.067,0.442 -2.134,0.884 -3.201,1.326 9.428,9.026 5.536,23.266 1.691,34.046 1.143,-0.149 2.285,-0.299 3.427,-0.448 -6.727,-10.73 -17.243,-17.881 -29.88,-19.407 0.166,1.228 0.333,2.455 0.499,3.683 12.507,-3.568 19.851,13.519 25.056,21.965 1.266,2.05 4.511,0.168 3.238,-1.896 l 0,0 z"
           id="path515"
           style="fill:#f7941e" />
      </g>
    </g>
    <g
       transform="translate(0.58991286,259.07627)"
       id="g517">
      <g
         id="g519">
        <path
           d="m 58.266,593.131 c -0.433,-10.103 -9.791,-17.383 -18.32,-21.185 -2.188,-0.976 -4.098,2.255 -1.893,3.238 7.176,3.199 16.091,9.272 16.462,17.946 0.104,2.41 3.855,2.42 3.751,10e-4 l 0,0 z"
           id="path521"
           style="fill:#f7941e" />
      </g>
    </g>
    <g
       transform="translate(0.58991286,259.07627)"
       id="g523">
      <g
         id="g525">
        <path
           d="m 22.995,584.435 c 0,1.449 0,2.898 0,4.348 0,2.177 3.029,2.474 3.683,0.498 0.516,-1.557 1.07,-3.196 1.154,-4.846 -0.625,0.625 -1.25,1.25 -1.875,1.875 0.362,0 0.725,0 1.087,0 -0.442,-0.183 -0.884,-0.366 -1.326,-0.549 0.181,0.181 0.362,0.362 0.543,0.543 0.125,0.125 0.249,0.249 0.374,0.374 0.418,0.418 -0.263,-0.488 -0.043,-0.049 0.335,0.671 0.671,1.342 1.006,2.013 0.982,-0.757 1.963,-1.515 2.945,-2.272 -0.342,-0.334 -0.692,-0.658 -1.052,-0.974 -0.083,-0.072 -0.625,-0.676 -0.368,-0.294 0.332,0.495 0.056,1.007 0.302,0.24 0.161,-0.502 0.344,-0.997 0.513,-1.496 -0.769,0.437 -1.538,0.873 -2.307,1.31 -1.214,-0.206 -0.921,-2.052 -1.133,-1.388 -0.083,0.257 -0.25,0.511 -0.378,0.747 -0.213,0.393 -0.449,0.774 -0.696,1.147 1.143,0.149 2.285,0.299 3.427,0.448 -0.725,-1.812 -1.449,-3.623 -2.174,-5.435 -0.918,0.705 -1.836,1.411 -2.754,2.117 0.261,0.165 0.51,0.348 0.747,0.546 1.06,0.872 -1.537,-0.833 1.17,-1.858 -0.328,0.125 0.496,-0.015 0.117,-0.008 -2.416,0.043 -2.419,3.793 0,3.75 1.078,-0.02 2.153,-0.56 2.487,-1.648 0.565,-1.843 -1.35,-3.138 -2.628,-4.02 -1.292,-0.892 -3.361,0.601 -2.754,2.117 0.725,1.812 1.449,3.623 2.174,5.435 0.602,1.505 2.474,1.891 3.427,0.448 0.972,-1.471 3.136,-5.477 -0.034,-6.015 -1.055,-0.18 -1.954,0.267 -2.307,1.31 -0.394,1.163 -0.961,2.326 -0.679,3.578 0.247,1.098 1.501,1.864 2.249,2.594 1.574,1.536 3.881,-0.399 2.945,-2.272 -0.456,-0.91 -0.821,-1.994 -1.55,-2.724 -0.398,-0.398 -0.803,-0.921 -1.296,-1.21 -0.604,-0.354 -1.363,-0.256 -2.033,-0.256 -1.062,0 -1.823,0.854 -1.875,1.875 -0.065,1.28 -0.619,2.637 -1.02,3.85 1.228,0.166 2.456,0.332 3.683,0.498 0,-1.449 0,-2.898 0,-4.348 -10e-4,-2.417 -3.751,-2.417 -3.751,10e-4 l 0,0 z"
           id="path527"
           style="fill:#f7941e" />
      </g>
    </g>
    <g
       transform="translate(0.58991286,259.07627)"
       id="g529">
      <g
         id="g531">
        <path
           d="m 37.065,573.326 c -0.502,-0.45 -1.011,-0.733 -1.653,-0.944 -0.179,-0.059 -0.368,-0.091 -0.553,-0.127 -0.628,-0.123 -0.004,-0.017 0.217,0.247 0.161,0.276 0.321,0.552 0.482,0.828 -0.05,0.373 -0.101,0.747 -0.151,1.12 0.094,-0.146 0.095,-0.157 0.001,-0.034 0.174,-0.218 0.376,-0.413 0.571,-0.611 -0.884,0 -1.768,0 -2.651,0 0.776,0.776 1.553,1.553 2.329,2.329 0.392,0.392 0.814,0.966 1.311,1.225 0.051,0.025 0.101,0.052 0.149,0.081 -0.293,-0.167 -0.969,-1.023 -0.668,-1.878 0.161,-0.275 0.321,-0.551 0.482,-0.827 -0.219,0.279 1.055,-0.507 0.668,-0.396 -0.269,0.076 0.564,-0.06 0.247,-0.032 -0.215,0.019 -0.433,0.008 -0.647,-0.002 -0.233,-0.011 -0.466,-0.035 -0.698,-0.061 -0.442,-0.049 0.444,0.065 -0.006,0 -0.172,-0.024 -0.343,-0.055 -0.514,-0.085 -0.51,-0.092 -1.018,-0.213 -1.506,-0.388 -0.355,-0.126 0.417,0.193 0.105,0.044 -0.172,-0.082 -0.415,-0.323 0.081,0.1 0.447,0.381 0.507,1.253 0.202,1.941 -0.059,0.132 -0.751,0.631 -0.35,0.416 0.737,-0.395 1.078,-1.331 0.862,-2.117 -0.237,-0.86 -0.966,-1.3 -1.808,-1.377 0.552,0.541 1.104,1.081 1.657,1.621 -0.065,0.375 -0.07,0.464 -0.015,0.267 -0.171,0.557 -0.041,0.117 0.053,-0.042 0.051,-0.086 0.406,-0.546 0.103,-0.169 0.122,-0.152 0.258,-0.292 0.396,-0.43 0.074,-0.074 0.57,-0.447 0.175,-0.165 0.114,-0.082 0.632,-0.299 0.128,-0.109 0.204,-0.054 0.15,-0.055 -0.162,-0.003 0.206,0.002 0.145,-0.009 -0.181,-0.034 -0.171,-0.044 -0.322,-0.127 -0.451,-0.248 -0.154,-0.215 -0.174,-0.229 -0.061,-0.04 -0.085,-0.315 -0.17,-0.631 -0.256,-0.946 0,0.11 -0.004,0.221 -0.009,0.33 -0.004,0.115 -0.012,0.23 -0.021,0.345 -0.039,0.543 0.04,-0.161 -0.014,0.184 -0.021,0.136 -0.054,0.268 -0.087,0.399 -0.066,0.201 -0.044,0.164 0.065,-0.111 -0.414,0.685 0.254,0.541 2.003,-0.43 0.688,0.313 -0.663,-0.354 -0.651,-0.351 -0.54,-0.148 -1.008,0.012 -1.518,0.158 -0.05,0.015 -0.726,0.109 -0.247,0.069 -0.358,-0.013 -0.184,0.049 0.525,0.185 0.478,0.309 0.716,0.715 0.717,1.217 -0.028,-0.243 0.028,-0.504 0.051,-0.746 0.091,-0.97 -0.233,-1.854 -0.875,-2.575 -1.61,-1.811 -4.252,0.852 -2.651,2.652 -0.112,-0.114 -0.185,-0.25 -0.22,-0.406 0.051,0.201 0.053,0.151 0.003,-0.148 0.023,0.196 0,0.399 -0.018,0.595 -0.042,0.454 -0.087,0.926 0.083,1.366 0.713,1.841 2.546,1.762 4.149,1.249 -0.608,-0.16 -1.216,-0.321 -1.824,-0.481 0.919,0.826 2.286,1.108 3.249,0.147 0.557,-0.557 0.8,-1.31 0.902,-2.071 0.071,-0.524 0.135,-1.046 0.137,-1.576 0.004,-1.121 -1.04,-2.165 -2.088,-2.405 -1.844,-0.422 -3.347,0.989 -4.369,2.33 -1.182,1.55 -0.968,3.915 1.321,4.124 -0.315,-1.165 -0.631,-2.329 -0.946,-3.494 -1.705,0.911 -1.603,3.145 0.068,4.02 1.164,0.609 2.528,0.787 3.813,0.94 1.388,0.165 3.012,0.13 3.563,-1.435 0.342,-0.971 -0.312,-1.933 -1.125,-2.396 -0.256,-0.146 -0.961,-1.01 -1.331,-1.379 -0.543,-0.544 -1.087,-1.087 -1.63,-1.631 -0.717,-0.717 -1.936,-0.729 -2.651,0 -1.093,1.114 -2.122,2.545 -0.903,4.002 0.32,0.381 0.842,0.591 1.314,0.692 0.178,0.038 0.356,0.07 0.533,0.112 0.098,0.024 0.194,0.053 0.289,0.087 -0.435,-0.143 0.153,0.2 -0.146,-0.067 1.794,1.607 4.455,-1.037 2.651,-2.655 l 0,0 z"
           id="path533"
           style="fill:#f7941e" />
      </g>
    </g>
    <g
       transform="translate(0.58991286,259.07627)"
       id="g535">
      <g
         id="g537">
        <path
           d="m 56.69,589.869 c 0,1.071 0,2.144 0,3.215 0,2.418 3.75,2.418 3.75,0 0,-2.34 1.506,-4.768 1.641,-7.199 0.153,-2.774 -0.131,-5.322 -0.805,-8.011 -1.385,-5.522 -5.126,-10.312 -8.994,-14.331 -0.442,1.067 -0.884,2.134 -1.326,3.201 1.933,0.09 1.125,2.575 1.453,4.059 0.521,2.361 4.137,1.36 3.616,-0.996 -0.312,-1.414 0.615,-3.63 -0.268,-4.91 -1.175,-1.705 -2.843,-1.812 -4.801,-1.902 -1.687,-0.078 -2.412,2.072 -1.326,3.201 3.958,4.112 6.999,8.564 8.399,14.151 1.188,4.738 -1.34,8.323 -1.34,12.737 0,2.418 3.75,2.418 3.75,0 0,-1.071 0,-2.144 0,-3.215 10e-4,-2.418 -3.749,-2.418 -3.749,0 l 0,0 z"
           id="path539"
           style="fill:#fbb040" />
      </g>
    </g>
    <g
       transform="translate(0.58991286,259.07627)"
       id="g541">
      <g
         id="g543">
        <path
           d="m 31.25,579.532 c 8.149,-5.271 16.722,1.726 20.261,9.109 1.08,-0.631 2.159,-1.262 3.238,-1.893 -5.742,-9.013 -14.288,-18.238 -25.392,-11.542 -2.067,1.247 -0.184,4.49 1.893,3.238 9.13,-5.507 15.729,3.084 20.261,10.196 1.312,2.06 4.275,0.271 3.238,-1.893 -4.431,-9.246 -15.562,-16.814 -25.392,-10.455 -2.022,1.311 -0.144,4.558 1.893,3.24 l 0,0 z"
           id="path545"
           style="fill:#fbb040" />
      </g>
    </g>
    <g
       transform="translate(0.58991286,259.07627)"
       id="g547">
      <g
         id="g549">
        <path
           d="m 26.455,585.155 c 7.404,-2.216 14.886,1.106 18.535,7.834 1.153,2.126 4.391,0.233 3.238,-1.893 -4.422,-8.152 -13.806,-12.24 -22.77,-9.557 -2.311,0.692 -1.326,4.312 0.997,3.616 l 0,0 z"
           id="path551"
           style="fill:#fbb040" />
      </g>
    </g>
    <g
       transform="translate(0.58991286,259.07627)"
       id="g553">
      <g
         id="g555">
        <path
           d="m 39.946,594.75 c 7.251,-4.85 11.533,3.441 9.202,9.839 1.206,0 2.411,0 3.616,0 -0.641,-1.646 -0.99,-3.16 -1.02,-4.937 -1.25,0 -2.5,0 -3.75,0 0.18,3.265 1.174,6.123 2.241,9.193 0.79,2.274 4.151,1.377 3.616,-0.996 -0.778,-3.45 -0.994,-6.458 0,-9.873 -1.228,-0.166 -2.456,-0.332 -3.683,-0.498 0.201,2.924 0.942,5.763 1.087,8.695 0.099,2.002 3.386,2.687 3.683,0.498 0.356,-2.619 1.818,-4.988 2.174,-7.608 -1.206,0 -2.411,0 -3.616,0 0.774,3.915 0.372,6.206 -1.087,9.873 1.206,0.332 2.411,0.664 3.616,0.996 0.206,-1.118 0.526,-2.203 0.961,-3.254 -0.556,-1.288 -0.606,-1.22 -0.153,0.205 0.332,2.474 -0.887,4.973 -2.062,7.039 1.165,0.315 2.33,0.631 3.494,0.946 0.102,-4.738 1.342,-8.262 4.092,-12.097 -1.165,-0.315 -2.33,-0.631 -3.494,-0.946 -0.009,2.841 -0.212,5.463 -1.02,8.197 1.228,0.166 2.456,0.332 3.683,0.498 0.115,-3.627 1.19,-6.896 2.107,-10.371 -0.603,0.459 -1.206,0.918 -1.808,1.377 0.362,0 0.725,0 1.087,0 -0.625,-0.625 -1.25,-1.25 -1.875,-1.875 -0.009,2.51 -0.271,4.708 -1.02,7.11 1.206,0 2.411,0 3.616,0 -0.79,-2.842 -1.528,-4.361 -0.189,-7.251 1.008,-2.177 -2.215,-4.084 -3.238,-1.893 -0.398,0.962 -0.871,1.886 -1.416,2.771 0.292,-0.03 0.584,-0.061 0.876,-0.092 0.165,-0.795 0.4,-1.569 0.707,-2.322 0.808,-2.296 -2.789,-3.238 -3.616,-0.996 -0.379,1.027 1.917,2.61 0.075,0.081 -0.554,-0.762 -1.227,-1.149 -2.117,-1.391 -2.338,-0.634 -3.329,2.983 -0.997,3.615 1.344,0.364 1.136,2.948 3.128,2.948 2.235,0 2.905,-2.573 3.527,-4.258 -1.206,-0.332 -2.411,-0.664 -3.616,-0.996 -0.763,2.17 -1.972,6.128 0.623,7.647 2.973,1.741 5.232,-3.333 6.065,-5.116 -1.08,-0.631 -2.159,-1.262 -3.238,-1.893 -1.842,3.976 -1.33,6.036 -0.189,10.14 0.508,1.829 3.071,1.75 3.616,0 0.857,-2.75 1.144,-5.233 1.154,-8.106 0.003,-1.022 -0.855,-1.875 -1.875,-1.875 -0.362,0 -0.725,0 -1.087,0 -0.827,0 -1.596,0.571 -1.808,1.377 -1.006,3.813 -2.115,7.399 -2.241,11.367 -0.068,2.159 3.093,2.495 3.683,0.498 0.91,-3.078 1.144,-5.996 1.154,-9.193 0.006,-1.991 -2.458,-2.391 -3.494,-0.946 -3.129,4.364 -4.489,8.633 -4.604,13.989 -0.04,1.869 2.58,2.556 3.494,0.946 1.838,-3.233 4.437,-9.464 1.161,-12.739 -3.686,-3.686 -6.206,3.479 -6.762,5.86 -0.562,2.405 2.74,3.199 3.616,0.996 1.759,-4.421 2.005,-7.225 1.087,-11.865 -0.345,-1.745 -3.365,-1.848 -3.616,0 -0.356,2.619 -1.818,4.988 -2.174,7.608 1.228,0.166 2.456,0.332 3.683,0.498 -0.146,-2.939 -0.886,-5.769 -1.087,-8.695 -0.143,-2.074 -3.071,-2.599 -3.683,-0.498 -1.169,4.017 -0.912,7.82 0,11.865 1.206,-0.332 2.411,-0.664 3.616,-0.996 -0.951,-2.737 -1.945,-5.267 -2.107,-8.197 -0.132,-2.397 -3.791,-2.432 -3.75,0 0.036,2.139 0.373,3.929 1.154,5.933 0.681,1.749 2.956,1.812 3.616,0 3.52,-9.658 -4.839,-20.675 -14.711,-14.073 -1.998,1.34 -0.123,4.59 1.893,3.241 l 0,0 z"
           id="path557"
           style="fill:#fbb040" />
      </g>
    </g>
    <g
       transform="translate(0.58991286,259.07627)"
       id="g559">
      <g
         id="g561">
        <path
           d="m 55.065,596.152 c -1.081,1.279 -1.401,3.175 -2.881,4.055 0.918,0.374 1.836,0.747 2.754,1.121 -0.235,-1.414 -0.969,-3.665 -0.341,-5.074 0.736,-1.651 2.857,-2.892 4.207,-3.972 -1.067,-0.442 -2.134,-0.884 -3.201,-1.326 0,1.345 0.125,2.785 -0.069,4.122 -0.059,0.407 -0.192,0.801 -0.323,1.188 -0.069,0.197 -0.138,0.394 -0.209,0.59 -0.437,1.226 -0.436,0.32 0.705,0.007 0.482,0.063 0.963,0.126 1.445,0.189 1.173,0.695 0.69,1.722 0.882,0.641 0.102,-0.571 0.246,-1.135 0.39,-1.695 0.111,-0.437 0.238,-0.869 0.369,-1.3 0.162,-0.535 0.521,-0.858 -0.021,-0.348 -0.884,0 -1.768,0 -2.651,0 0.007,0.007 0.015,0.015 0.023,0.022 -0.183,-0.442 -0.366,-0.885 -0.549,-1.326 0.154,1.601 1.884,2.285 2.798,3.5 0.693,0.921 1.292,1.938 1.814,2.965 0.815,1.606 3.687,0.917 3.494,-0.946 -0.06,-0.576 -0.175,-1.089 -0.355,-1.637 -0.081,-0.236 -0.157,-0.475 -0.228,-0.715 -0.31,-1.012 0.084,-0.141 -0.205,-0.121 -0.603,-0.459 -1.206,-0.918 -1.808,-1.377 0.583,2.016 1.244,4.007 1.827,6.021 0.054,0.189 0.104,0.381 0.148,0.573 0.21,0.863 -1.057,-2.084 1.979,-1.421 0.064,0.014 -0.903,-0.573 -1.199,-0.77 -2.023,-1.339 -3.899,1.91 -1.893,3.238 1.554,1.028 3.916,2.183 4.8,-0.328 0.285,-0.809 -0.093,-1.856 -0.318,-2.633 -0.55,-1.9 -1.178,-3.777 -1.727,-5.678 -0.22,-0.763 -0.976,-1.433 -1.808,-1.377 -1.686,0.113 -3.117,0.71 -3.585,2.466 -0.369,1.384 0.492,2.49 0.623,3.757 1.165,-0.315 2.329,-0.631 3.494,-0.946 -1.168,-2.301 -2.75,-4.779 -5.021,-6.107 0.31,0.54 0.619,1.079 0.929,1.619 -0.053,-0.557 -0.16,-1.029 -0.581,-1.433 -0.753,-0.722 -1.896,-0.712 -2.651,0 -0.945,0.892 -1.196,2.807 -1.487,4 -0.339,1.393 -0.983,3.638 0.567,4.558 4.169,2.474 4.151,-7.575 4.152,-9.3 0,-1.771 -1.984,-2.301 -3.201,-1.326 -1.878,1.504 -4.257,3.071 -5.102,5.448 -0.815,2.293 -0.112,4.938 0.271,7.246 0.201,1.21 1.794,1.691 2.754,1.121 0.979,-0.582 1.676,-1.266 2.338,-2.186 0.542,-0.75 0.703,-1.747 1.302,-2.455 1.552,-1.832 -1.088,-4.499 -2.651,-2.65 l 0,0 z"
           id="path563"
           style="fill:#fbb040" />
      </g>
    </g>
  </g>
</svg>
