<?xml version="1.0" encoding="UTF-8" standalone="no"?>
<!-- Created with Inkscape (http://www.inkscape.org/) -->

<svg
   xmlns:dc="http://purl.org/dc/elements/1.1/"
   xmlns:cc="http://creativecommons.org/ns#"
   xmlns:rdf="http://www.w3.org/1999/02/22-rdf-syntax-ns#"
   xmlns:svg="http://www.w3.org/2000/svg"
   xmlns="http://www.w3.org/2000/svg"
   version="1.1"
   width="160"
   height="200"
   id="svg4842">
  <defs
     id="defs4844" />
  <metadata
     id="metadata4847">
    <rdf:RDF>
      <cc:Work
         rdf:about="">
        <dc:format>image/svg+xml</dc:format>
        <dc:type
           rdf:resource="http://purl.org/dc/dcmitype/StillImage" />
        <dc:title></dc:title>
      </cc:Work>
    </rdf:RDF>
  </metadata>
  <g
     transform="translate(0,-852.36212)"
     id="layer1">
    <g
       transform="translate(-201.24136,256.15108)"
       id="g425">
      <g
         id="g427">
        <path
           d="m 268.348,674.979 c 3.224,0 3.224,-5 0,-5 -3.224,0 -3.224,5 0,5 l 0,0 z"
           id="path429"
           style="fill:#2bb673" />
      </g>
    </g>
    <g
       transform="translate(-201.24136,256.15108)"
       id="g431">
      <g
         id="g433">
        <path
           d="m 267.683,665.72 c -11.269,3.73 -20.795,10.753 -26.146,21.522 -5.213,10.492 -5.422,22.673 -3.35,33.984 4.484,24.476 21.556,48.25 44.714,58.011 1.912,0.806 3.407,-1.442 3.075,-3.076 -2.856,-14.073 6.266,-33.591 19.503,-39.567 -1.254,-0.72 -2.508,-1.439 -3.762,-2.159 -0.209,7.294 -3.451,13.318 -7.963,18.885 1.309,1.01 2.617,2.02 3.926,3.029 2.547,-4.783 5.546,-4.623 10.463,-5.372 -1.025,-1.025 -2.051,-2.051 -3.076,-3.076 -1.016,7.042 -7.704,12.753 -12.711,17.229 -4.365,3.9 -9.185,7.893 -14.401,10.625 -2.857,1.497 -0.329,5.812 2.523,4.318 5.932,-3.107 11.344,-7.771 16.304,-12.204 5.329,-4.762 12.031,-11.186 13.106,-18.638 0.288,-1.998 -1.064,-3.383 -3.076,-3.076 -6.391,0.975 -10.198,1.562 -13.451,7.671 -1.279,2.4 2.068,5.321 3.926,3.029 5.387,-6.645 9.179,-13.722 9.428,-22.42 0.059,-2.059 -2.129,-2.896 -3.762,-2.159 -15.353,6.933 -25.073,29.091 -21.801,45.216 1.025,-1.025 2.05,-2.051 3.075,-3.076 -20.855,-8.789 -35.371,-30.024 -40.579,-51.501 -2.495,-10.287 -2.484,-21.268 1.345,-31.218 4.089,-10.624 13.485,-17.669 24.016,-21.154 3.049,-1.01 1.744,-5.839 -1.326,-4.823 l 0,0 z"
           id="path435"
           style="fill:#2bb673" />
      </g>
    </g>
    <g
       transform="translate(-201.24136,256.15108)"
       id="g437">
      <g
         id="g439">
        <path
           d="m 253.305,752.928 c -12.177,-5.948 -26.244,-8.543 -34.942,4.158 -0.975,1.423 0.078,3.164 1.494,3.673 5.627,2.021 11.556,2.208 17.392,3.261 -0.199,-1.523 -0.398,-3.047 -0.597,-4.57 -1.924,1.057 -4.006,2.23 -5.242,4.128 -1.064,1.636 -1.558,3.475 -2.873,4.96 -1.562,1.764 -0.096,4.998 2.432,4.179 8.208,-2.661 15.614,-10.127 24.758,-7.609 3.114,0.856 4.434,-3.967 1.329,-4.822 -10.621,-2.924 -17.965,4.546 -27.416,7.609 0.811,1.394 1.622,2.786 2.432,4.179 2.736,-3.089 3.2,-6.162 7.103,-8.305 1.795,-0.986 1.568,-4.18 -0.597,-4.57 -5.829,-1.051 -11.773,-1.242 -17.392,-3.261 0.498,1.225 0.996,2.449 1.494,3.673 6.974,-10.182 18.68,-6.967 28.102,-2.363 2.885,1.407 5.42,-2.904 2.523,-4.32 l 0,0 z"
           id="path441"
           style="fill:#2bb673" />
      </g>
    </g>
    <g
       transform="translate(-201.24136,256.15108)"
       id="g443">
      <g
         id="g445">
        <path
           d="m 287.063,770.97 c 3.277,-10.919 6.679,-21.749 11.705,-32.013 -1.523,-0.642 -3.046,-1.284 -4.569,-1.927 -1.495,10.861 -7.547,20.432 -12.792,29.839 -1.337,2.397 2.088,5.304 3.926,3.029 5.008,-6.195 8.791,-12.969 12.347,-20.071 -1.523,-0.642 -3.046,-1.284 -4.569,-1.927 -1.173,5.961 -3.86,10.827 -8.052,15.201 1.309,1.01 2.617,2.02 3.926,3.029 2.141,-3.885 5.39,-6.277 8.886,-8.885 -1.14,-1.141 -2.28,-2.281 -3.42,-3.421 -1.169,2.487 -2.142,4.986 -3.957,7.103 1.393,0.811 2.786,1.621 4.178,2.433 1.219,-3.005 3.346,-5.468 5.183,-8.099 -1.439,-0.841 -2.878,-1.683 -4.317,-2.523 -2.104,4.426 -3.697,8.993 -6.522,13.043 1.439,0.841 2.878,1.683 4.317,2.523 2.397,-4.791 4.878,-9.519 7.609,-14.13 -1.523,-0.642 -3.046,-1.284 -4.569,-1.927 -1.413,3.993 -3.218,4.88 -6.46,7.201 1.224,0.498 2.448,0.996 3.672,1.494 -1.831,-7.58 1.843,-13.962 6.966,-19.307 2.23,-2.326 -1.258,-5.828 -3.535,-3.535 -2.182,2.196 -4.242,4.357 -5.826,7.028 1.523,0.642 3.046,1.284 4.569,1.927 0.891,-2.51 1.899,-4.537 3.705,-6.507 -1.309,-1.01 -2.618,-2.02 -3.926,-3.029 -2.125,4.597 -3.312,9.539 -5.435,14.131 -1.334,2.887 2.863,5.432 4.317,2.523 1.087,-2.174 2.174,-4.348 3.261,-6.521 -1.523,-0.642 -3.046,-1.284 -4.569,-1.927 -1.067,4.132 -4.04,5.923 -6.965,8.68 -2.352,2.215 1.191,5.744 3.535,3.535 3.673,-3.46 6.932,-5.775 8.251,-10.885 0.692,-2.68 -3.271,-4.524 -4.569,-1.927 -1.087,2.174 -2.174,4.348 -3.261,6.521 1.439,0.841 2.878,1.683 4.317,2.523 2.125,-4.597 3.312,-9.539 5.435,-14.131 1.124,-2.431 -1.881,-5.26 -3.926,-3.029 -2.388,2.603 -3.815,5.401 -4.991,8.712 -0.971,2.734 3.158,4.307 4.569,1.927 1.363,-2.297 3.175,-4.134 5.044,-6.017 -1.178,-1.179 -2.357,-2.356 -3.535,-3.535 -6.406,6.684 -10.514,14.803 -8.252,24.172 0.355,1.471 2.369,2.428 3.672,1.494 4.411,-3.159 6.871,-4.858 8.758,-10.189 0.967,-2.734 -3.159,-4.309 -4.569,-1.927 -2.73,4.611 -5.211,9.339 -7.609,14.13 -1.454,2.905 2.479,5.159 4.317,2.523 2.834,-4.062 4.411,-8.602 6.522,-13.043 1.388,-2.919 -2.467,-5.174 -4.317,-2.523 -2.129,3.05 -4.281,5.828 -5.687,9.292 -0.942,2.32 2.602,4.271 4.178,2.433 2.115,-2.465 3.367,-5.193 4.739,-8.114 0.942,-2.005 -1.201,-5.076 -3.42,-3.421 -4.163,3.106 -8.126,6.047 -10.68,10.68 -1.353,2.454 1.92,5.123 3.926,3.029 4.749,-4.953 8.007,-10.641 9.338,-17.406 0.519,-2.639 -3.23,-4.602 -4.569,-1.927 -3.352,6.694 -6.84,13.213 -11.565,19.06 1.309,1.01 2.617,2.02 3.926,3.029 5.431,-9.741 11.747,-19.781 13.295,-31.032 0.352,-2.557 -3.207,-4.71 -4.569,-1.927 -5.216,10.652 -8.806,21.872 -12.208,33.206 -0.93,3.098 3.897,4.412 4.821,1.332 l 0,0 z"
           id="path447"
           style="fill:#2bb673" />
      </g>
    </g>
    <g
       transform="translate(-201.24136,256.15108)"
       id="g449">
      <g
         id="g451">
        <path
           d="m 236.5,756.174 c -0.203,4.722 -2.399,2.763 -4.428,0.406 -0.589,1.423 -1.178,2.845 -1.768,4.268 6.522,0 13.043,0 19.565,0 -0.222,-1.637 -0.443,-3.273 -0.665,-4.911 -7.803,1.603 -15.389,-1.857 -23.249,-1.176 -3.163,0.274 -3.271,4.997 0,5 6.958,0.006 14.022,-0.029 20.478,2.919 0.642,-1.522 1.284,-3.046 1.926,-4.569 -5.017,-1.096 -10.167,-1.267 -15.217,-2.174 -0.222,1.638 -0.443,3.274 -0.665,4.911 6.723,-0.83 12.756,-0.137 18.303,4.006 0.199,-1.522 0.398,-3.046 0.597,-4.569 -1.616,0.274 -3.122,0.824 -4.77,0.998 -3.173,0.334 -3.205,5.337 0,5 2.099,-0.221 4.031,-0.826 6.099,-1.176 2.389,-0.405 2.112,-3.438 0.597,-4.569 -6.174,-4.611 -13.31,-5.617 -20.827,-4.689 -2.548,0.314 -3.689,4.367 -0.665,4.911 5.047,0.906 10.208,1.079 15.217,2.174 2.634,0.575 4.623,-3.338 1.926,-4.569 -7.345,-3.355 -15.046,-3.596 -23.001,-3.603 0,1.667 0,3.333 0,5 8.367,-0.726 16.19,2.72 24.578,0.998 2.815,-0.578 2.103,-4.911 -0.665,-4.911 -6.522,0 -13.043,0 -19.565,0 -2.303,0 -3.146,2.667 -1.768,4.268 5.704,6.627 12.569,5.244 12.963,-3.941 0.142,-3.227 -4.858,-3.214 -4.996,-0.002 l 0,0 z"
           id="path453"
           style="fill:#2bb673" />
      </g>
    </g>
    <g
       transform="translate(-201.24136,256.15108)"
       id="g455">
      <g
         id="g457">
        <path
           d="m 262.001,762.711 c -2.714,-1.268 -6.505,-1.876 -7.547,-5.028 -1.224,0.941 -2.448,1.883 -3.672,2.823 10.598,5.204 24.796,9.121 29.286,21.333 1.025,-1.025 2.05,-2.051 3.075,-3.076 -11.403,-3.55 -15.78,-16.73 -26.577,-21.487 -2.059,-0.906 -4.978,1.118 -3.42,3.421 4.059,6.003 9.885,9.684 15.991,13.349 3.388,2.033 6.656,4.152 9.541,6.872 2.36,2.225 3.478,6.333 6.063,8.022 1.657,1.082 3.693,-0.361 3.762,-2.159 0.092,-2.413 -2.188,-4.987 -4.272,-5.844 -2.983,-1.224 -4.27,3.615 -1.329,4.822 -0.173,-0.071 0.603,0.995 0.602,1.021 1.254,-0.72 2.508,-1.439 3.762,-2.158 -0.36,-0.235 -1.673,-3.238 -2.136,-3.881 -0.87,-1.208 -1.88,-2.296 -2.916,-3.36 -2.16,-2.219 -4.803,-4.014 -7.383,-5.698 -6.215,-4.057 -13.08,-7.17 -17.367,-13.51 -1.14,1.14 -2.28,2.28 -3.42,3.421 11.223,4.943 15.608,18.204 27.771,21.991 1.724,0.536 3.734,-1.284 3.075,-3.076 -5.119,-13.924 -19.397,-18.337 -31.584,-24.319 -1.832,-0.899 -4.413,0.582 -3.672,2.823 1.65,4.99 5.45,5.963 9.845,8.015 2.901,1.355 5.441,-2.954 2.522,-4.317 l 0,0 z"
           id="path459"
           style="fill:#2bb673" />
      </g>
    </g>
    <g
       transform="translate(-201.24136,256.15108)"
       id="g480">
      <g
         id="g482">
        <path
           d="m 248.546,722.057 c 0.682,1.645 2.277,3.843 1.339,5.682 1.523,0.199 3.046,0.398 4.569,0.597 -3.024,-10.03 -0.761,-24.105 5.879,-32.35 -1.178,0 -2.357,0 -3.535,0 3.062,3.822 4.189,8.336 3.061,13.106 -0.598,2.529 -2.621,6.659 -5.607,7.014 -3.604,0.428 -4.276,-7.406 -4.27,-9.607 0.014,-4.295 2.413,-8.704 5.238,-11.786 3.796,-4.141 7.415,-2.664 9.882,1.854 1.948,3.568 -0.335,8.169 -2.065,11.324 -3.873,7.062 -10.526,14.082 -17.689,17.863 1.01,0.131 2.02,0.261 3.029,0.392 -7.7,-9.894 3.002,-27.314 12.358,-32.224 5.829,-3.059 3.035,9.045 2.567,11.211 -1.157,5.35 -2.8,10.752 -5.09,15.729 -1.039,2.259 -2.667,5.836 -5.244,6.729 -3.443,1.192 -5.598,-7.126 -6.087,-9.114 -1.21,-4.921 -1.534,-11.097 0.982,-15.674 1.112,-2.022 2.912,-2.875 5.16,-2.783 4.671,0.191 6.11,5.503 6.401,9.268 0.582,7.521 -2.148,18.112 -10.487,20.209 -5.209,1.311 -0.656,-17.132 0,-18.952 0.64,-1.776 8.334,-16.069 10.976,-12.57 3.292,4.362 1.425,12.501 0.148,17.195 -2.198,8.08 -7.122,15.462 -14.714,19.281 1.01,0.131 2.02,0.261 3.029,0.392 -4.571,-5.543 -2.741,-15.901 -1.26,-22.184 1.644,-6.976 5.355,-16.649 13.173,-18.499 10.33,-2.444 10.453,11.408 9.038,17.64 -1.643,7.236 -6.499,18.512 -14.688,20.226 1.025,0.582 2.05,1.164 3.075,1.746 -2.128,-5.82 -0.775,-13.094 0.448,-18.957 1.22,-5.844 3.286,-14.776 8.844,-18.111 2.335,-1.401 4.653,0.962 6.095,2.545 2.127,2.336 1.842,6.407 1.594,9.289 -0.613,7.148 -3.949,15.422 -9.271,20.342 -5.505,5.088 -7.245,-3.621 -7.163,-7.553 0.148,-7.137 2.335,-14.753 5.947,-20.896 1.155,-1.964 3.066,-4.734 5.593,-4.868 3.504,-0.187 6.174,5.841 6.952,8.318 3.522,11.222 -8.692,23.317 -19.275,23.708 0.72,1.254 1.439,2.508 2.159,3.762 5.324,-10.69 10.292,-21.841 18.087,-31.016 -1.309,-0.169 -2.618,-0.337 -3.926,-0.506 2.094,3.683 2.667,22.995 -4.979,18.351 -7.655,-4.65 -5.094,-15.909 -1.478,-22.158 1.465,-2.532 3.678,-5.246 6.554,-6.18 3.735,-1.214 5.256,4.581 5.9,7.055 1.687,6.479 -3.403,14.473 -9.682,16.371 -8.658,2.617 -3.748,-17.546 -2.16,-20.677 3.64,-7.177 7.662,6.599 7.754,9.318 0.125,3.716 -1.281,7.417 -4.273,9.716 -1.854,1.426 -4.992,2.925 -6.741,0.604 -3.257,-4.323 -2.107,-12.11 -0.097,-16.688 1.888,-4.301 5.242,-5.905 9.243,-2.748 4.042,3.19 3.186,9.209 1.215,13.291 -1.678,3.476 -4.57,6.597 -6.064,1.412 -1.804,-6.26 1.753,-11.44 6.774,-14.867 4.442,-3.032 10.382,-4.83 15.748,-3.857 6.999,1.27 8.407,8.667 5.802,14.47 -1.892,4.213 -5.933,3.775 -7.2,-0.363 -0.921,-3.011 -0.476,-6.576 -0.017,-9.624 0.805,-5.341 2.272,-11.741 5.41,-16.251 -0.941,0.383 -1.882,0.766 -2.823,1.149 6.874,2.077 11.809,10.922 14.149,17.148 1.313,3.493 2.14,7.735 0.577,11.279 -1.008,2.284 -3.994,4.896 -6.663,4.35 -5.185,-1.06 -7.683,-9.965 -8.912,-14.149 -1.636,-5.565 -3.057,-12.461 -1.51,-18.2 -1.224,0.498 -2.448,0.996 -3.672,1.494 11.76,8.511 23.365,24.395 24.849,39.146 0.611,-0.804 1.224,-1.607 1.835,-2.411 -14.396,3.35 -15.92,-17.791 -14.315,-27.359 -1.523,0.198 -3.046,0.397 -4.569,0.597 6.499,11.881 13.471,23.638 18.226,36.36 1.225,-0.941 2.449,-1.883 3.673,-2.824 -12.278,-7.685 -11.858,-25.177 -17.581,-37.146 -1.439,0.841 -2.878,1.683 -4.317,2.523 6.309,11.271 15.731,21.156 18.226,34.187 1.025,-1.025 2.051,-2.051 3.076,-3.076 -12.013,-2.701 -15.991,-19.546 -20.246,-29.286 -1.309,1.01 -2.618,2.02 -3.926,3.029 8.98,9.154 17.416,21.015 18.833,34.103 0.833,-0.833 1.667,-1.667 2.5,-2.5 -11.068,-1.394 -8.898,-17.751 -6.285,-25.096 -1.224,0.497 -2.448,0.995 -3.672,1.493 6.551,4.617 11.552,14.345 6.838,21.981 -2.036,3.3 -4.869,-0.536 -6.069,-2.449 -2.397,-3.819 -2.963,-7.287 -2.568,-11.723 0.382,-4.284 1.748,-8.669 3.783,-12.444 2.266,-4.203 4.802,-5.07 7.488,-0.846 4.522,7.113 6.215,16.479 7.857,24.64 0.804,-1.056 1.607,-2.11 2.411,-3.165 -14.967,-1.576 -25.577,-20.765 -28.024,-34.035 -1.025,1.025 -2.05,2.051 -3.075,3.076 13.423,4.332 29.112,15.438 27.512,31.285 0.611,-0.804 1.224,-1.607 1.835,-2.411 -15.276,2.521 -22.976,-19.352 -29.785,-29.286 -0.299,1.14 -0.598,2.28 -0.897,3.42 19.291,-8.183 26.628,14.767 32.449,28.451 0.94,-1.224 1.882,-2.448 2.823,-3.673 -11.95,-4.635 -21.991,-14.771 -27.854,-26.024 -0.498,1.224 -0.996,2.448 -1.494,3.673 7.548,-2.15 14.904,3.884 20.137,8.578 5.715,5.128 10.662,11.19 15.083,17.446 0.3,-1.14 0.599,-2.28 0.897,-3.42 -7.614,4.166 -9.762,-6.567 -9.282,-11.972 -1.423,0.589 -2.845,1.179 -4.268,1.768 4.484,5.694 8.559,11.696 13.044,17.392 0.169,-1.309 0.337,-2.617 0.506,-3.926 -11.4,6.526 -11.991,-14.385 -10.458,-21.09 -0.804,0.611 -1.607,1.223 -2.411,1.835 4.619,0.295 11.652,6.354 10.923,11.405 -0.416,2.881 -4.281,2.924 -6.317,2.268 -2.245,-0.724 -4.064,-2.862 -5.548,-4.579 -6.465,-7.479 -10.229,-18.099 -12.951,-27.477 -1.025,1.025 -2.05,2.051 -3.075,3.076 8.919,2.171 17.528,7.357 19.992,16.732 0.582,-1.025 1.164,-2.051 1.746,-3.076 -11.627,3.604 -19.57,-14.546 -23.263,-22.764 -1.309,1.01 -2.618,2.02 -3.926,3.029 2.645,2.396 5.861,4.048 8.93,5.825 1.707,0.989 10.436,6.643 5.082,8.676 -9.061,3.439 -22.036,-9.518 -14.824,-17.762 -1.393,-0.367 -2.786,-0.735 -4.178,-1.103 0.688,3.349 -0.108,3.855 -1.922,6.769 1.439,0 2.878,0 4.317,0 -7.016,-13.188 8.409,-32.391 19.755,-37.885 -1.254,-0.719 -2.508,-1.438 -3.762,-2.158 -0.209,5.346 -3.229,11.174 -5.773,15.723 -1.45,2.592 -3.24,5.221 -5.699,6.95 -2.051,1.443 -5.441,0.689 -6.466,-1.768 -1.982,-4.751 5.072,-11.665 7.867,-14.608 3.577,-3.768 8.246,-8.55 13.236,-10.407 -0.941,-1.225 -1.883,-2.449 -2.824,-3.673 -4.655,9.174 -10.894,20.971 -20.842,25.189 1.254,0.72 2.508,1.439 3.762,2.159 0.134,-4.628 2.262,-9.489 3.977,-13.707 2.216,-5.45 5.275,-12.127 10.156,-15.706 2.033,-1.491 3.75,-1.255 5.502,0.482 3.008,2.98 1.548,7.599 -0.169,10.801 -3.035,5.66 -10.692,12.851 -17.618,12.369 0.833,0.833 1.667,1.667 2.5,2.5 -0.57,-13.738 13.06,-23.529 25.339,-25.85 -1.025,-1.025 -2.051,-2.051 -3.076,-3.076 -2.799,13.271 -14.855,25.287 -26.024,32.201 1.224,0.498 2.448,0.996 3.672,1.494 -1.165,-5.05 2.773,-12.439 4.773,-16.822 2.961,-6.488 6.706,-13.234 12.15,-17.967 2.194,-1.907 4.339,-2.544 6.694,-0.657 3.275,2.621 2.262,6.638 0.582,9.839 -3.166,6.035 -10.558,12.92 -17.492,14.079 0.941,0.384 1.882,0.767 2.823,1.149 -2.684,-5.324 0.421,-13.646 3.021,-18.414 1.295,-2.376 3.388,-5.235 6.352,-5.28 3.127,-0.048 4.237,3.623 4.159,6.058 -0.208,6.402 -6.061,12.819 -10.155,17.187 -3.481,3.713 -8.549,9.163 -13.808,10.17 1.025,0.582 2.05,1.164 3.075,1.746 -1.453,-7.573 14.175,-28.969 22.384,-22.1 8.256,6.906 -15.482,18.751 -21.534,18.091 0.833,0.833 1.667,1.667 2.5,2.5 0.414,-6.959 21.086,-26.435 26.455,-17.27 2.252,3.846 -6.024,8.681 -8.367,10.021 -4.026,2.302 -9.933,4.947 -14.708,4.011 -5.021,-0.983 4.275,-8.17 5.465,-8.872 4.864,-2.873 12.604,-5.489 18.055,-2.817 2.717,1.331 3.595,4.794 2.226,7.371 -1.45,2.73 -5.259,3.88 -7.991,4.653 -5.746,1.626 -12.802,2.016 -18.621,0.492 0.582,1.025 1.164,2.051 1.746,3.076 2.379,-10.448 23.066,-19.789 31.691,-11.94 0.168,-1.309 0.337,-2.617 0.506,-3.926 -5.021,3.795 -11.862,7.015 -18.129,4.348 0.383,0.94 0.766,1.882 1.149,2.823 1.535,-5.397 5.081,-11.526 11.55,-8.788 1.947,0.824 7.948,5.428 3.511,6.656 -3.948,1.095 -8.787,-0.75 -7.742,-5.51 1.455,-6.621 9.826,2.56 11.329,4.396 0,-1.179 0,-2.356 0,-3.535 -0.891,1.104 -5.681,6.955 -6.738,6.456 -0.705,-0.333 -0.376,-4.041 -0.137,-5.29 0.348,-1.812 1.052,-4.767 2.743,-5.736 0.413,-0.236 3.144,6.881 3.488,8.09 0.804,-1.056 1.607,-2.11 2.411,-3.165 -2.979,0.308 -6.982,0.466 -8.294,-2.879 -0.679,-1.734 -0.464,-3.917 0.423,-5.534 0.189,-0.217 0.131,-0.239 -0.176,-0.069 -0.443,-0.098 -0.887,-0.195 -1.329,-0.294 0.869,0.776 1.655,1.629 2.36,2.56 1.338,1.738 2.191,3.884 2.422,6.06 0.755,7.118 -5.96,3.61 -8.855,0.89 -2.347,-2.206 -5.89,1.323 -3.535,3.535 4.617,4.34 13.208,8.386 16.604,0.383 1.363,-3.211 0.887,-7.085 -0.54,-10.195 -1.154,-2.518 -3.707,-7.323 -6.848,-7.797 -4.709,-0.71 -6.084,5.789 -5.847,9.231 0.502,7.254 7.229,9.771 13.614,9.11 1.578,-0.163 2.893,-1.477 2.411,-3.165 -1.118,-3.913 -3.279,-12.041 -8.782,-11.671 -4.224,0.284 -6.161,5.391 -6.994,8.861 -0.819,3.413 -1.353,9.017 2.114,11.25 4.908,3.163 10.46,-3.919 13.019,-7.095 0.923,-1.146 0.937,-2.391 0,-3.535 -4.679,-5.721 -15.427,-13.262 -19.531,-2.701 -1.163,2.99 -0.303,6.922 1.78,9.293 3.089,3.516 7.65,3.703 11.959,2.878 9.117,-1.746 4.372,-11.392 -0.522,-14.799 -9.608,-6.691 -18.068,1.564 -20.69,10.779 -0.276,0.974 0.142,2.395 1.149,2.823 8.021,3.414 16.468,0.725 23.176,-4.348 1.214,-0.918 1.811,-2.739 0.506,-3.926 -11.377,-10.354 -36.783,-0.191 -40.048,14.146 -0.299,1.314 0.385,2.72 1.746,3.076 10.189,2.666 36.299,1.18 33.348,-14.827 -2.954,-16.023 -28.083,-6.394 -34.659,1.115 -3.06,3.495 -4.402,9.889 0.627,12.326 5.187,2.514 12.2,-0.285 17.013,-2.398 5.522,-2.426 11.463,-6.346 13.747,-12.167 2.208,-5.629 -3.004,-10.522 -8.221,-11.001 -6.689,-0.613 -13.583,5.059 -18.17,9.205 -4.174,3.773 -9.514,9.371 -9.869,15.336 -0.087,1.468 1.211,2.359 2.5,2.5 10.878,1.187 38.302,-15.557 24.436,-27.157 -12.596,-10.537 -32.336,15.881 -30.107,27.496 0.271,1.413 1.823,1.985 3.075,1.746 7.354,-1.408 14.28,-9.262 18.847,-14.626 4.78,-5.615 11.693,-15.329 7.756,-23.08 -4.295,-8.456 -13.229,-5.728 -17.801,0.629 -4.551,6.328 -7.715,17.719 -4.017,25.059 0.537,1.065 1.758,1.327 2.823,1.149 8.812,-1.474 17.722,-10.305 21.336,-18.11 3.166,-6.834 -0.404,-18.222 -9.621,-16.774 -8.305,1.304 -13.927,11.85 -17.43,18.456 -3.472,6.548 -8.926,16.733 -7.143,24.465 0.359,1.555 2.336,2.321 3.672,1.494 12.221,-7.566 25.258,-20.66 28.323,-35.189 0.411,-1.952 -1.158,-3.438 -3.076,-3.076 -14.436,2.729 -29.668,14.787 -29.009,30.672 0.06,1.435 1.096,2.402 2.5,2.5 8.943,0.622 17.698,-7.795 21.936,-14.846 3.899,-6.489 3.522,-18.088 -5.671,-19.753 -7.509,-1.36 -12.877,8.015 -15.771,13.426 -3.435,6.421 -7.126,14.515 -7.341,21.934 -0.061,2.091 2.125,2.853 3.762,2.159 10.689,-4.534 17.642,-17.143 22.637,-26.984 0.9,-1.775 -0.604,-4.499 -2.824,-3.673 -6.802,2.534 -12.847,8.693 -17.554,13.992 -4.16,4.685 -10.512,13.125 -5.848,19.425 5.093,6.878 13.002,3.629 17.299,-2.021 4.554,-5.986 8.968,-14.774 9.268,-22.463 0.079,-2.025 -2.149,-2.939 -3.762,-2.158 -14.036,6.795 -29.928,28.975 -21.549,44.725 0.91,1.711 3.364,1.531 4.317,0 2.64,-4.238 3.445,-5.665 2.426,-10.622 -0.368,-1.79 -2.975,-2.478 -4.178,-1.103 -10.479,11.978 4.383,28.524 17.993,26.458 6.028,-0.915 7.852,-5.872 5.751,-11.226 -2.411,-6.144 -11.306,-7.849 -15.861,-11.972 -2.199,-1.991 -5.07,0.483 -3.926,3.029 4.776,10.63 14.289,29.594 28.91,25.062 1.312,-0.407 2.101,-1.726 1.746,-3.076 -2.901,-11.035 -12.877,-17.642 -23.485,-20.225 -1.814,-0.441 -3.621,1.195 -3.075,3.076 1.943,6.692 4.553,13.233 7.676,19.461 3.19,6.36 7.478,13.264 14.315,16.086 6.087,2.513 13.402,-2.271 12.568,-8.947 -0.903,-7.228 -8.71,-14.092 -15.845,-14.547 -1.064,-0.067 -2.176,0.809 -2.411,1.835 -2.541,11.116 1.156,36.268 17.804,26.736 1.523,-0.872 1.479,-2.691 0.506,-3.926 -4.484,-5.695 -8.559,-11.697 -13.044,-17.392 -1.497,-1.901 -4.1,-0.125 -4.268,1.768 -0.868,9.794 5.578,22.434 16.806,16.288 1.12,-0.612 1.669,-2.328 0.897,-3.42 -5.456,-7.72 -11.604,-15.04 -18.906,-21.079 -6.041,-4.995 -13.904,-9.539 -21.961,-7.244 -1.608,0.459 -2.24,2.24 -1.494,3.673 6.502,12.48 17.662,23.211 30.841,28.323 2.319,0.898 3.565,-1.929 2.823,-3.673 -3.806,-8.948 -7.143,-18.316 -13.639,-25.741 -6.887,-7.873 -16.481,-8.394 -25.65,-4.503 -1.196,0.507 -1.597,2.398 -0.897,3.42 8.558,12.488 16.546,34.7 35.432,31.585 1.158,-0.191 1.731,-1.384 1.835,-2.411 1.829,-18.129 -15.777,-31.135 -31.183,-36.107 -1.956,-0.631 -3.399,1.317 -3.075,3.076 2.917,15.818 15.472,35.875 32.845,37.705 1.725,0.182 2.701,-1.723 2.411,-3.165 -1.248,-6.197 -2.773,-12.343 -4.913,-18.297 -1.663,-4.627 -4.192,-11.433 -9.438,-12.989 -11.091,-3.292 -14.827,18.389 -14.76,25.107 0.073,7.369 8.51,22.598 16.952,14.344 3.369,-3.295 3.967,-9.096 3.363,-13.493 -0.977,-7.11 -5.047,-12.742 -10.832,-16.817 -1.409,-0.993 -3.173,0.091 -3.672,1.493 -3.985,11.2 -3.847,29.543 11.106,31.426 1.255,0.158 2.634,-1.261 2.5,-2.5 -1.572,-14.519 -10.28,-27.427 -20.298,-37.638 -2.132,-2.173 -5,0.57 -3.926,3.029 4.925,11.275 9.375,28.468 23.233,31.585 1.949,0.438 3.439,-1.178 3.076,-3.076 -2.585,-13.504 -12.197,-23.708 -18.73,-35.38 -1.594,-2.848 -5.69,-0.348 -4.317,2.523 6.338,13.256 5.632,30.339 19.375,38.941 1.766,1.104 4.452,-0.737 3.673,-2.824 -4.913,-13.141 -12.017,-25.281 -18.73,-37.554 -0.975,-1.782 -4.204,-1.579 -4.569,0.597 -2.278,13.584 1.436,37.938 20.467,33.512 0.997,-0.232 1.941,-1.352 1.835,-2.411 -1.68,-16.705 -13.977,-33.803 -27.325,-43.464 -1.325,-0.959 -3.282,0.047 -3.672,1.494 -2.111,7.833 0.084,17.193 2.729,24.621 2.133,5.99 6.609,14.952 14.297,14.075 9.666,-1.103 11.738,-12.045 9.815,-19.774 -2.164,-8.7 -9.257,-20.099 -18.333,-22.842 -1.133,-0.342 -2.189,0.237 -2.823,1.149 -5.278,7.587 -13.407,37.111 3.049,36.989 8.594,-0.064 10.585,-13.348 8.412,-19.373 -2.328,-6.455 -9.068,-8.84 -15.421,-8.531 -14.102,0.686 -28.429,13.473 -21.993,28.155 2.326,5.307 8.064,4.314 11.434,0.81 4.164,-4.33 5.839,-11.181 4.556,-16.962 -1.312,-5.91 -7.755,-10.523 -13.738,-9.347 -5.33,1.048 -7.946,7.486 -8.991,12.12 -1.185,5.254 -1.15,11.753 1.878,16.411 3.287,5.057 9.17,4.075 13.582,1.191 6.004,-3.925 7.392,-11.387 6.342,-18.001 -0.771,-4.856 -3.971,-11.79 -9.537,-12.423 -7.587,-0.862 -9.503,10.472 -10.261,15.644 -0.875,5.979 -0.803,14.829 6.199,17.026 10.261,3.221 18.77,-11.596 18.369,-19.879 -0.25,-5.169 -3.01,-11.779 -8.359,-13.385 -4.87,-1.461 -9.678,2.879 -12.267,6.457 -6.633,9.168 -9.096,26.15 3.377,31.933 5.396,2.502 9.335,-2.011 11.225,-6.557 2.445,-5.879 2.224,-13.904 -0.931,-19.453 -0.75,-1.319 -2.878,-1.74 -3.926,-0.506 -8.104,9.537 -13.333,20.91 -18.869,32.027 -0.803,1.613 0.15,3.836 2.159,3.762 18.406,-0.68 34.211,-25.861 17.943,-39.787 -12.101,-10.358 -20.012,14.032 -21.423,21.806 -0.953,5.245 -1.929,12.744 1.712,17.249 3.982,4.928 9.495,4.028 13.79,0.059 8.753,-8.09 15.674,-28.912 5.293,-38.025 -17.09,-15.003 -25.574,31.162 -21.9,41.212 0.49,1.341 1.655,2.043 3.075,1.746 17.265,-3.614 30.044,-44.954 6.695,-47.765 -10.627,-1.279 -16.913,11.069 -19.567,19.35 -2.838,8.854 -4.677,22.159 1.744,29.945 0.737,0.894 2.093,0.862 3.029,0.392 12.741,-6.41 19.786,-22.414 18.494,-36.301 -0.374,-4.017 -1.989,-9.55 -6.794,-9.967 -6.002,-0.521 -10.389,7.057 -12.946,11.325 -3.629,6.058 -11.056,35.779 5.062,30.06 7.437,-2.64 10.838,-9.834 12.212,-17.067 1.218,-6.407 1.023,-15.509 -4.911,-19.696 -4.576,-3.229 -10.964,-2.756 -14.465,1.756 -3.212,4.137 -3.702,9.839 -3.376,14.89 0.438,6.798 4.854,23.402 14.963,17.849 6.25,-3.434 8.727,-13.341 10.545,-19.513 1.721,-5.839 4.889,-15.393 1.06,-21.123 -6.754,-10.104 -20.095,8.162 -22.82,13.208 -4.324,8.006 -5.969,17.891 -0.051,25.493 0.699,0.898 2.126,0.868 3.029,0.392 10.352,-5.466 21.601,-17.718 22.893,-29.719 0.589,-5.476 -3.575,-11.61 -8.805,-13.106 -5.58,-1.597 -10.549,3.676 -13.266,7.781 -3.556,5.376 -4.296,11.557 -2.875,17.716 1.007,4.361 4.562,9.477 9.708,8.199 4.919,-1.221 7.794,-5.962 9.153,-10.521 1.914,-6.423 -0.308,-12.932 -4.347,-17.972 -0.79,-0.986 -2.744,-0.982 -3.535,0 -7.782,9.66 -10.746,25.339 -7.165,37.215 0.592,1.965 3.546,2.603 4.569,0.597 1.992,-3.902 0.742,-5.729 -0.835,-9.535 -1.22,-2.938 -6.059,-1.654 -4.825,1.326 l 0,0 z"
           id="path484"
           style="fill:#f0aacc" />
      </g>
    </g>
    <g
       transform="translate(-201.24136,256.15108)"
       id="g486">
      <g
         id="g488">
        <path
           d="m 253.98,662.03 c -2.134,5.734 -6.738,8.816 -12.807,9.035 0.833,0.833 1.667,1.667 2.5,2.5 -0.126,-1.608 -0.271,-3.272 0.067,-4.863 0.23,-1.087 0.061,-0.067 -0.616,-0.355 1.611,0.686 2.704,2.576 3.499,4.034 0.594,1.09 0.702,3.249 1.269,3.021 -2.66,1.072 -7.772,-2.769 -9.805,-3.995 0.299,1.141 0.598,2.281 0.897,3.421 4.122,-6.435 12.412,-6.598 17.813,-1.668 -0.13,-1.01 -0.261,-2.02 -0.391,-3.029 -4.519,6.603 -19.468,10.953 -23.944,2.174 -0.498,1.224 -0.996,2.448 -1.494,3.673 8.023,-2.278 17.651,-5.118 25.248,-0.252 0,-1.439 0,-2.879 0,-4.318 -6.527,3.718 -15.382,5.613 -22.824,5.239 -3.454,-0.175 -7.839,-2.373 -5.55,-6.438 2.185,-3.88 8.606,-4.803 12.532,-4.561 2.651,0.163 8.778,4.624 6.09,7.22 -2.413,2.331 -7.337,2.45 -10.441,2.608 -4.478,0.228 -9.041,-0.111 -13.412,-1.119 -1.495,-0.345 -2.991,-0.78 -4.339,-1.524 -1.371,-0.758 -0.312,-0.521 -0.808,0.104 3.085,-3.9 11.737,-4.787 16.127,-5.747 3.626,-0.793 7.228,-1.404 10.931,-1.657 2.88,-0.197 7.757,-0.731 10.112,1.356 1.263,1.12 -2.179,4.901 -2.72,5.536 -1.408,1.651 -3.562,2.34 -5.6,2.795 -4.425,0.989 -9.439,-0.315 -13.219,-2.639 -3.825,-2.351 -5.333,-7.468 -1.819,-10.862 3.092,-2.987 9.328,-2.354 13.045,-1.398 4.156,1.068 7.931,4.431 5.589,8.921 -1.855,3.557 -7.024,4.635 -10.576,5.288 -7.12,1.311 -19.97,1.486 -25.742,-3.817 0.13,1.01 0.261,2.02 0.391,3.029 7.39,-12.814 32.774,-18.512 42.813,-6.017 -0.13,-1.01 -0.261,-2.02 -0.391,-3.029 -6.257,8.627 -25.297,4.766 -21.189,-7.77 3.929,-11.99 25.025,-2.792 28.798,4.858 0.498,-1.224 0.996,-2.448 1.494,-3.673 -11.976,3.615 -30.162,-2.74 -33.881,-15.645 -0.383,0.941 -0.766,1.883 -1.149,2.823 12.126,-6.024 29.436,3.148 37.188,12.652 0,-1.179 0,-2.356 0,-3.535 -11.276,10.546 -33.657,0.957 -37.126,-13.028 -0.582,1.025 -1.164,2.051 -1.746,3.076 5.926,-1.542 13.069,-0.63 19.01,0.305 4.511,0.709 15.705,2.426 15.574,8.733 -0.162,7.788 -9.69,5.833 -14.213,4.257 -6.637,-2.312 -13.604,-6.822 -17.781,-12.549 -1.18,-1.617 -2.596,-4.012 -1.535,-6.005 1.368,-2.57 5.006,-1.592 7.229,-1.128 7.798,1.628 16.225,5.496 21.907,11.155 2.089,2.081 3.597,4.879 1.25,7.325 -2.414,2.517 -7.528,0.594 -10.189,-0.346 -8.256,-2.913 -15.746,-8.463 -22.804,-13.514 -1.816,-1.301 -3.608,-2.639 -5.458,-3.892 0,1.439 0,2.879 0,4.318 14.049,-9.415 27.447,0.404 34.624,13.233 1.14,-1.14 2.28,-2.28 3.42,-3.421 -8.461,-4.507 -14.273,-12.109 -19.755,-19.755 -0.941,1.224 -1.882,2.448 -2.823,3.673 9.445,1.549 17.936,8.747 23.506,16.242 0.299,-1.14 0.598,-2.28 0.897,-3.42 -9.792,4.812 -22.835,-4.639 -27.014,-13.234 -0.941,1.224 -1.882,2.448 -2.823,3.673 8.268,1.394 18.584,6.186 22.418,14.068 0.498,-1.224 0.996,-2.448 1.494,-3.673 -6.599,1.508 -10.675,-3.308 -13.481,-8.633 -1.14,1.14 -2.28,2.28 -3.42,3.42 1.849,1.032 3.585,2.229 5.435,3.262 2.818,1.572 5.339,-2.746 2.523,-4.318 -1.849,-1.031 -3.585,-2.229 -5.435,-3.26 -2.24,-1.251 -4.583,1.214 -3.42,3.42 3.951,7.497 10.25,12.959 19.127,10.932 1.673,-0.383 2.167,-2.288 1.494,-3.673 -4.366,-8.977 -15.947,-14.772 -25.407,-16.367 -2.204,-0.371 -3.83,1.602 -2.823,3.673 5.493,11.301 21.584,21.06 33.855,15.027 1.128,-0.555 1.67,-2.38 0.897,-3.42 -6.289,-8.463 -15.759,-16.779 -26.494,-18.541 -1.907,-0.312 -4.25,1.683 -2.823,3.673 5.972,8.328 12.331,16.639 21.549,21.55 2.204,1.174 4.669,-1.188 3.42,-3.421 -8.491,-15.18 -25.143,-25.966 -41.464,-15.028 -1.613,1.081 -1.6,3.234 0,4.318 6.146,4.159 12.006,8.665 18.387,12.482 5.901,3.53 14.219,8.375 21.431,6.839 5.703,-1.215 9.159,-7.153 6.46,-12.565 -3.292,-6.603 -11.03,-10.592 -17.484,-13.395 -4.916,-2.136 -12.984,-5.648 -18.414,-3.366 -5.224,2.197 -6.008,7.618 -3.931,12.315 2.607,5.896 8.965,10.333 14.312,13.493 5.415,3.2 12.319,6.106 18.741,5.258 5.012,-0.662 8.446,-4.501 9.455,-9.386 1.054,-5.105 -2.667,-8.942 -6.825,-11.159 -5.582,-2.978 -12.259,-3.892 -18.47,-4.479 -4.986,-0.472 -10.552,-0.797 -15.456,0.479 -1.343,0.35 -2.07,1.769 -1.746,3.076 4.408,17.769 31.506,28.305 45.482,15.233 1.069,-0.999 0.837,-2.509 0,-3.535 -9.322,-11.43 -29.051,-20.487 -43.247,-13.434 -0.985,0.489 -1.443,1.803 -1.149,2.823 4.47,15.508 25.409,23.55 40.032,19.137 1.624,-0.49 2.215,-2.211 1.494,-3.673 -6.398,-12.974 -32.757,-19.471 -38.265,-2.664 -2.608,7.959 3.445,15.093 10.696,17.106 7.163,1.988 15.567,-0.427 19.96,-6.484 0.702,-0.968 0.267,-2.21 -0.391,-3.029 -12.085,-15.044 -41.79,-8.362 -50.666,7.028 -0.544,0.943 -0.435,2.271 0.391,3.029 4.827,4.437 12.574,5.272 18.811,5.706 7.258,0.505 15.993,-0.136 22.055,-4.588 5.262,-3.864 6.265,-10.998 1.884,-15.909 -4.709,-5.278 -14.211,-5.781 -20.49,-3.832 -6.341,1.97 -10.094,9.425 -7,15.582 3.276,6.521 11.15,9.124 18.003,9.268 7.333,0.154 14.253,-4.207 16.303,-11.457 1.956,-6.923 -6.809,-8.445 -11.584,-8.574 -7.666,-0.208 -15.52,1.628 -22.85,3.655 -4.023,1.112 -9.488,2.526 -11.964,6.238 -4.783,7.17 10.753,9.466 14.353,9.869 6.734,0.754 18.968,1.435 23.457,-5.011 2.221,-3.19 0.7,-6.974 -1.514,-9.689 -4.738,-5.814 -12.795,-5.998 -19.326,-3.083 -4.167,1.861 -7.456,4.805 -7.998,9.505 -0.516,4.479 3.268,7.759 7.057,9.037 8.66,2.921 21.822,-0.874 29.486,-5.238 1.687,-0.961 1.548,-3.326 0,-4.318 -8.806,-5.64 -19.747,-2.907 -29.101,-0.252 -1.619,0.46 -2.227,2.236 -1.494,3.673 6.334,12.424 26.061,7.349 32.579,-2.174 0.608,-0.889 0.391,-2.315 -0.391,-3.029 -7.83,-7.146 -19.765,-6.532 -25.666,2.68 -0.743,1.159 -0.233,2.738 0.897,3.421 3.777,2.279 10.911,7.054 15.326,3.582 2.941,-2.312 1.432,-6.729 0.051,-9.449 -1.483,-2.921 -4.163,-6.197 -7.654,-6.454 -5.014,-0.37 -4.855,7.076 -4.614,10.162 0.104,1.319 1.059,2.552 2.5,2.5 8.431,-0.304 14.687,-4.804 17.628,-12.705 1.127,-3.026 -3.707,-4.321 -4.822,-1.328 l 0,0 z"
           id="path490"
           style="fill:#f0aacc" />
      </g>
    </g>
    <g
       transform="translate(-201.24136,256.15108)"
       id="g492">
      <g
         id="g494">
        <path
           d="m 275.972,641.869 c -0.449,1.003 -1.141,3.014 -1.783,3.842 1.393,0.367 2.786,0.735 4.178,1.103 -1.792,-6.14 -0.787,-11.408 3.009,-16.552 -1.439,0 -2.878,0 -4.317,0 1.654,2.201 6.241,9.935 -0.166,8.013 -7.687,-2.307 0.373,-12.4 3.005,-15.115 -1.393,-0.367 -2.786,-0.735 -4.178,-1.103 0.692,1.855 4.879,14.548 -0.113,14.778 -4.619,0.214 2.049,-13.412 2.509,-14.182 -1.309,0.169 -2.618,0.337 -3.926,0.506 4.676,5.109 5.269,13.317 0,18.204 1.309,0.168 2.618,0.337 3.926,0.506 -3.264,-4.834 -3.917,-10.42 -4.006,-16.13 -1.422,0.589 -2.845,1.179 -4.268,1.768 5.32,5.732 6.62,14.314 1.087,20.378 1.178,0 2.357,0 3.535,0 -4.574,-4.46 -0.354,-17.287 6.753,-13.465 6.929,3.725 0.601,13.92 -4.838,16.082 1.055,0.804 2.11,1.607 3.165,2.411 -0.638,-8.501 5.171,-14.803 11.224,-19.972 -1.309,-0.168 -2.617,-0.337 -3.926,-0.506 3.937,6.763 -0.985,15.221 -6.13,19.797 1.309,0.168 2.617,0.337 3.926,0.506 -4.882,-7.53 -1.491,-17.84 5.625,-22.666 -1.14,-0.3 -2.28,-0.599 -3.42,-0.897 1.974,3.643 1.86,8.776 1.243,12.747 -0.655,4.208 -5.154,10.377 -8.693,4.161 -2.207,-3.876 1.636,-10.511 3.481,-13.762 1.935,-3.409 4.767,-8.118 8.477,-9.858 -1.01,-0.13 -2.02,-0.26 -3.029,-0.391 3.739,4.185 4.407,23.362 -3.233,24.123 -5.583,0.555 -1.761,-6.861 -0.478,-9.159 2.03,-3.638 6.267,-9.595 10.913,-9.884 -0.804,-0.611 -1.607,-1.224 -2.411,-1.835 0.917,5.799 -1.622,13.397 -4.667,18.217 -1.617,2.56 -4.721,3.875 -6.548,0.778 -1.56,-2.644 -0.5,-6.776 0.701,-9.325 1.237,-2.628 3.685,-4.74 6.418,-2.584 3.058,2.412 0.396,8.239 -1.078,10.718 -0.999,1.68 -2.542,3.182 -4.392,3.862 -2.351,0.865 -3.516,-0.686 -2.918,-2.655 0.836,-2.756 4.076,-6.549 6.864,-7.482 -0.941,-0.384 -1.882,-0.767 -2.823,-1.149 3.977,7.914 -1.224,20.333 -11.307,18.066 0.498,1.225 0.996,2.449 1.494,3.673 1.691,-3.282 3.429,-5.021 6.711,-6.711 -1.254,-0.72 -2.508,-1.439 -3.762,-2.159 0.042,1.464 0.111,2.908 0.492,4.328 0.193,0.765 0.273,0.414 0.24,-1.052 -0.732,0.851 -1.462,1.695 -2.174,2.564 1.393,0.367 2.786,0.735 4.178,1.103 -0.736,-5.04 1.438,-9.19 4.792,-12.785 2.197,-2.354 -1.331,-5.897 -3.535,-3.535 -4.706,5.042 -7.088,10.737 -6.078,17.65 0.263,1.801 3.057,2.472 4.178,1.103 0.947,-1.155 2.928,-2.74 3.31,-4.295 0.382,-1.551 -0.359,-3.514 -0.404,-5.081 -0.056,-1.956 -2.064,-3.033 -3.762,-2.159 -4.052,2.088 -6.417,4.454 -8.505,8.506 -0.706,1.37 -0.155,3.302 1.494,3.673 14.516,3.262 22.938,-13.504 16.954,-25.412 -0.479,-0.953 -1.818,-1.485 -2.823,-1.149 -4.946,1.656 -9.119,6.896 -10.596,11.765 -1.885,6.211 5.036,9.589 10.149,7.707 10.78,-3.968 13.877,-28.505 -1.285,-24.748 -9.681,2.398 -11.679,21.294 -1.529,24.229 11.861,3.43 16.243,-19.325 15.031,-26.989 -0.164,-1.034 -1.401,-1.897 -2.411,-1.835 -9.435,0.586 -27.727,24.572 -13.372,28.706 15.298,4.405 16.516,-24.701 9.705,-32.321 -0.792,-0.886 -2.045,-0.853 -3.029,-0.391 -8.509,3.989 -21.934,26.43 -10.967,33.603 14.759,9.653 18.025,-16.378 13.301,-25.098 -0.617,-1.14 -2.318,-1.645 -3.42,-0.897 -9.271,6.289 -13.839,19.605 -7.418,29.508 0.911,1.404 2.688,1.607 3.926,0.506 6.906,-6.141 11.999,-17.118 6.913,-25.855 -0.859,-1.476 -2.717,-1.539 -3.926,-0.506 -7.036,6.008 -13.424,13.721 -12.689,23.507 0.109,1.459 1.545,3.055 3.165,2.411 9.822,-3.906 17.812,-21.051 4.504,-25.975 -12.082,-4.47 -19.254,14.299 -11.284,22.07 0.941,0.918 2.608,1.017 3.535,0 7.406,-8.115 6.143,-19.659 -1.087,-27.448 -1.489,-1.604 -4.301,-0.367 -4.268,1.768 0.102,6.544 0.951,13.118 4.689,18.653 0.92,1.362 2.691,1.651 3.926,0.506 7.309,-6.778 6.454,-18.223 0,-25.274 -1.104,-1.206 -3.128,-0.83 -3.926,0.506 -2.815,4.714 -9.373,20.846 1.423,21.676 10.625,0.817 7.27,-15.849 5.32,-21.079 -0.632,-1.695 -2.775,-2.55 -4.178,-1.103 -6.122,6.312 -12.632,19.124 -0.799,23.472 3.242,1.191 6.874,0.222 8.902,-2.543 2.888,-3.935 -0.75,-9.701 -3.09,-12.814 -1.188,-1.581 -3.133,-1.604 -4.317,0 -4.532,6.141 -5.645,13.098 -3.513,20.405 0.474,1.626 2.971,2.66 4.178,1.103 1.205,-1.554 1.757,-3.046 2.565,-4.854 1.302,-2.92 -3.005,-5.466 -4.319,-2.527 l 0,0 z"
           id="path496"
           style="fill:#f0aacc" />
      </g>
    </g>
    <g
       transform="translate(-201.24136,256.15108)"
       id="g565">
      <g
         id="g567">
        <path
           d="m 287.358,663.642 c 6.435,-12.948 24.302,-56.351 43.794,-37.663 0,-0.884 0,-1.769 0,-2.652 -2.675,2.972 -3.951,6.796 -6.522,9.782 -1.166,1.355 -0.086,3.694 1.824,3.134 6.195,-1.816 13.994,-0.374 18.977,3.762 2.306,1.914 5.329,7.706 3.072,10.518 -1.402,1.747 -5.077,2.025 -7.095,2.533 -8.302,2.091 -16.316,6.125 -24.5,8.755 -9.444,3.034 -18.987,5.749 -28.407,8.861 -1.984,0.655 -1.672,3.665 0.499,3.683 8.76,0.07 17.36,1.278 25.207,5.366 7.772,4.049 13.334,11.116 17.484,18.661 2.892,5.255 5.029,11.602 4.815,17.654 -0.309,8.724 -9.968,3.054 -13.952,0.477 -1.656,-1.071 -3.402,0.984 -2.565,2.565 3.181,6.004 -0.35,12.979 -7.162,13.587 -5.276,0.471 -9.576,-11.975 -11.432,-15.625 -5.817,-11.439 -12.668,-21.872 -20.852,-31.757 -0.884,0.884 -1.768,1.769 -2.651,2.652 9.711,11.497 6.43,33.737 -4.637,43.357 -4.206,3.656 -9.4,6.671 -14.645,8.536 -1.565,0.557 -4.02,1.446 -5.633,0.629 -1.713,-0.867 1.386,-6.487 1.772,-7.25 -1.143,-0.481 -2.285,-0.963 -3.427,-1.444 -0.667,2.437 -1.517,6.441 -4.309,7.321 -1.958,0.617 -4.167,-2.502 -5.057,-3.752 -3.454,-4.856 -4.924,-11.295 -4.765,-17.169 0.414,-15.271 13.863,-29.747 27.307,-35.182 1.507,-0.608 2.045,-3.268 0,-3.615 -12.928,-2.199 -25.958,4.479 -38.796,1.955 -7.306,-1.437 -11.708,-7.183 -6.373,-13.328 4.416,-5.085 11.932,-8.069 18.583,-7.771 2.173,0.098 2.474,-3.081 0.499,-3.683 -5.881,-1.792 -12.441,-4.976 -14.817,-11.09 -2.266,-5.831 2.688,-9.87 7.714,-11.441 18.335,-5.73 33.732,9.358 43.028,23.111 1.346,1.991 4.597,0.117 3.238,-1.893 -10.982,-16.248 -29.678,-32.632 -50.62,-23.572 -5.631,2.437 -8.625,8.11 -7.209,14.051 1.879,7.882 10.651,12.312 17.668,14.449 0.166,-1.228 0.333,-2.455 0.499,-3.683 -7.274,-0.327 -14.29,2.751 -19.753,7.411 -4.215,3.596 -7.504,10.114 -3.527,15.091 11.366,14.222 34.223,1.517 48.869,4.007 0,-1.205 0,-2.41 0,-3.615 -16.408,6.633 -32.455,25.042 -29.815,43.89 0.939,6.708 3.667,15.018 9.824,18.729 6.372,3.841 10.131,-4.482 11.428,-9.226 0.551,-2.016 -2.449,-3.374 -3.427,-1.444 -1.969,3.886 -5.254,12.286 1.82,13.087 6.707,0.76 14.302,-4.341 19.451,-8.015 14.933,-10.655 19.969,-36.649 7.76,-51.104 -1.567,-1.854 -4.177,0.809 -2.651,2.652 6.036,7.29 11.468,14.872 16.099,23.131 4.051,7.225 7.055,15.48 12.166,22.039 3.95,5.067 11.109,3.589 15.264,-0.317 4.168,-3.919 4.333,-10.834 1.808,-15.603 -0.855,0.855 -1.71,1.71 -2.565,2.565 4.443,2.874 13.532,8.264 17.816,2.115 3.815,-5.476 1.185,-13.957 -0.907,-19.561 -3.378,-9.049 -9.455,-17.303 -17.155,-23.102 -8.935,-6.73 -20.523,-8.512 -31.416,-8.6 0.166,1.228 0.333,2.455 0.499,3.683 12.911,-4.265 26.042,-7.836 38.863,-12.379 5.025,-1.781 9.844,-4.179 15.021,-5.482 2.796,-0.704 5.576,-1.27 7.771,-3.251 4.862,-4.391 -0.174,-13.883 -4.31,-16.826 -5.926,-4.217 -14.368,-5.779 -21.387,-3.721 0.607,1.044 1.216,2.089 1.824,3.134 2.588,-3.008 3.85,-6.814 6.522,-9.782 0.672,-0.747 0.766,-1.918 0,-2.652 -22.685,-21.748 -42.033,23.025 -49.685,38.423 -1.071,2.159 2.163,4.06 3.239,1.894 l 0,0 z"
           id="path569"
           style="fill:#ee2a7b" />
      </g>
    </g>
    <g
       transform="translate(-201.24136,256.15108)"
       id="g571">
      <g
         id="g573">
        <path
           d="m 271.186,656.411 c 1.795,-0.592 3.306,-0.402 4.945,-1.339 2.666,-1.523 0.7,-4.924 -1.926,-4.57 -10.51,1.417 -16.504,12.361 -15.439,22.282 0.997,9.288 9.444,16.924 18.835,16.359 8.491,-0.511 15.679,-7.48 18.889,-14.945 3.774,-8.775 1.279,-17.701 -6.228,-23.444 -1.01,-0.772 -2.9,-0.236 -3.42,0.897 -2.146,4.682 -6.235,7.526 -9.392,11.45 1.309,0.168 2.618,0.337 3.926,0.506 0.016,-0.814 0.1,-1.622 0.252,-2.421 0.343,-2.209 -2.361,-4.537 -4.178,-2.433 -1.244,1.44 -2.199,2.894 -3.842,3.957 1.254,0.719 2.508,1.438 3.762,2.158 -0.155,-3.166 -0.632,-5.906 -0.089,-9.117 0.371,-2.199 -1.602,-3.838 -3.672,-2.824 -8.486,4.156 -14.146,19.004 -3.261,23.883 2.358,1.058 4.471,-1.065 3.42,-3.42 -2.15,-4.818 -0.819,-8.474 0.252,-13.291 -1.607,0 -3.214,0 -4.821,0 1.791,5.258 0.737,9.623 -1.922,14.378 1.523,0.199 3.046,0.398 4.569,0.597 -1.785,-4.916 -1.785,-8.972 0,-13.888 -1.224,0.497 -2.448,0.995 -3.672,1.493 1.403,1.048 6.38,4.482 4.927,6.794 -1.004,1.599 -4.554,1.417 -6.083,1.299 -9.814,-0.755 -4.248,-9.729 -0.163,-13.918 -1.01,0.131 -2.02,0.261 -3.029,0.392 5.811,4.031 5.724,12.748 -1.577,14.995 1.055,0.804 2.11,1.607 3.165,2.411 -0.244,-2.883 -0.318,-7.596 3.787,-5.231 1.656,0.953 5.134,3.755 2.727,5.428 -1.042,0.724 -2.428,1.171 -3.688,1.235 1.768,-0.09 1.196,4.039 1.622,1.625 0.106,-0.601 0.157,-1.217 0.211,-1.824 0.219,-2.438 -0.32,-6.521 1.42,-8.491 0.207,-0.233 2.03,0.974 2.2,1.079 1.827,1.125 2.774,2.566 2.339,4.729 -0.58,2.882 -3.234,5.502 -5.683,6.899 1.14,0.3 2.28,0.599 3.42,0.897 -1.613,-3.718 -0.837,-11.447 2.795,-13.762 3.202,-2.04 5.84,1.81 5.268,4.608 -0.552,2.697 -2.68,6.121 -5.451,6.917 0.941,0.384 1.882,0.767 2.823,1.149 -2.154,-4.005 -2.267,-13.797 4.585,-12.459 2.736,0.534 -5.396,10.625 -7.409,11.31 1.025,1.025 2.05,2.051 3.075,3.076 1.186,-6.993 4.418,-13.455 10.808,-16.985 -1.254,-0.719 -2.508,-1.438 -3.762,-2.158 -0.167,5.41 -1.953,9.629 -5.093,13.956 1.309,-0.169 2.618,-0.337 3.926,-0.506 -4.193,-4.735 -2.12,-10.102 2.174,-13.856 -1.309,-0.168 -2.617,-0.337 -3.926,-0.506 2.365,5.138 1.367,8.573 -2.87,12.188 1.309,0.169 2.617,0.337 3.926,0.506 -3.408,-4.749 -2.51,-8.433 1.783,-12.188 -1.309,-0.168 -2.617,-0.337 -3.926,-0.506 3.277,4.441 3.501,8.284 -1.277,11.797 1.224,0.498 2.448,0.996 3.672,1.494 -1.423,-5.193 0.555,-9.091 5.373,-11.307 -1.254,-0.72 -2.508,-1.439 -3.762,-2.159 0.749,6.449 -2.071,11.506 -6.876,15.624 -2.147,1.84 0.717,5.575 3.029,3.926 7.343,-5.234 12.067,-13.375 8.758,-22.389 -1.097,-2.986 -5.615,-1.842 -4.821,1.33 1.831,7.317 -0.262,14.268 -5.878,19.307 -2.223,1.994 0.601,5.127 3.029,3.926 10.552,-5.219 13.342,-18.217 10.931,-28.91 -0.518,-2.295 -4.461,-2.489 -4.821,0 -0.95,6.563 -0.071,14.273 -4.792,19.55 -2.143,2.395 1.381,5.943 3.535,3.535 5.596,-6.254 4.95,-13.966 6.078,-21.755 -1.607,0 -3.214,0 -4.821,0 1.942,8.614 -0.122,19.054 -8.633,23.264 1.01,1.309 2.02,2.617 3.029,3.926 6.927,-6.214 9.408,-15.204 7.165,-24.172 -1.607,0.443 -3.214,0.887 -4.821,1.33 2.507,6.827 -0.849,12.742 -6.46,16.742 1.01,1.309 2.02,2.617 3.029,3.926 5.688,-4.874 9.225,-11.548 8.341,-19.159 -0.229,-1.967 -1.927,-3.003 -3.762,-2.159 -6.866,3.159 -9.642,9.758 -7.67,16.955 0.393,1.436 2.349,2.467 3.672,1.494 6.831,-5.022 8.203,-11.685 3.071,-18.639 -0.993,-1.346 -2.623,-1.646 -3.926,-0.506 -5.865,5.131 -7.217,11.764 -2.565,18.247 0.986,1.374 2.624,1.618 3.926,0.506 6.099,-5.203 6.949,-11.082 3.652,-18.247 -0.716,-1.556 -2.819,-1.475 -3.926,-0.506 -6.505,5.688 -8.103,14.232 -2.174,20.927 1.155,1.305 3.04,0.717 3.926,-0.506 3.663,-5.049 5.583,-10.225 5.776,-16.479 0.06,-1.946 -2.154,-3.047 -3.762,-2.158 -7.441,4.11 -11.712,11.758 -13.105,19.972 -0.293,1.729 1.104,3.747 3.075,3.076 6.026,-2.052 16.982,-15.334 8.74,-20.429 -4.274,-2.643 -9.683,0.206 -11.95,3.994 -2.669,4.461 -1.979,10.89 0.386,15.285 0.524,0.974 1.777,1.449 2.823,1.149 9.782,-2.811 13.767,-19.686 1.359,-21.532 -10.583,-1.575 -12.649,14.48 -9.617,21.47 0.547,1.261 2.346,1.511 3.42,0.897 8.692,-4.962 12.465,-19.488 -0.433,-21.878 -3.865,-0.716 -5.936,2.642 -6.659,5.913 -0.436,1.974 -0.504,4.047 -0.618,6.057 -0.071,1.239 -0.7,3.109 -0.369,4.31 1.662,6.042 14.471,-0.255 13.108,-6.202 -1.062,-4.636 -6.54,-8.976 -11.241,-9.064 -5.624,-0.107 -6.591,7.025 -6.246,11.098 0.132,1.559 1.504,2.922 3.165,2.411 11.619,-3.577 12.092,-17.668 2.771,-24.136 -0.906,-0.628 -2.292,-0.365 -3.029,0.392 -3.878,3.976 -8.832,9.918 -6.648,15.918 1.621,4.455 6.481,6.238 10.833,6.573 3.655,0.281 8.466,-0.844 10.246,-4.405 2.666,-5.335 -3.364,-10.287 -7.054,-13.042 -1.392,-1.039 -3.177,0.129 -3.672,1.493 -2.072,5.709 -2.072,10.839 0,16.548 0.704,1.938 3.441,2.613 4.569,0.597 3.267,-5.84 4.631,-11.759 2.426,-18.231 -0.75,-2.2 -4.251,-2.564 -4.821,0 -1.419,6.382 -2.522,10.928 0.252,17.145 1.14,-1.14 2.28,-2.28 3.42,-3.42 -7.369,-3.304 -1.921,-12.711 3.261,-15.248 -1.224,-0.941 -2.448,-1.883 -3.672,-2.824 -0.615,3.643 -0.267,6.828 -0.089,10.447 0.088,1.797 2.088,3.241 3.762,2.158 2.017,-1.305 3.299,-2.938 4.854,-4.738 -1.393,-0.811 -2.786,-1.621 -4.178,-2.433 -0.374,2.409 -0.802,4.01 0.252,6.274 0.639,1.373 2.965,1.701 3.926,0.506 3.433,-4.267 7.839,-7.37 10.174,-12.462 -1.14,0.299 -2.28,0.598 -3.42,0.897 11.18,8.553 3.474,25.245 -8.261,28.706 -17.427,5.141 -22.019,-26.018 -3.943,-28.454 -0.642,-1.523 -1.284,-3.047 -1.926,-4.57 -0.9,0.515 -2.723,0.497 -3.751,0.835 -3.051,1.003 -1.745,5.832 1.326,4.821 l 0,0 z"
           id="path575"
           style="fill:#f7941e" />
      </g>
    </g>
    <g
       transform="translate(-201.24136,256.15108)"
       id="g577">
      <g
         id="g579">
        <path
           d="m 265.751,643.367 c 1.271,-0.26 2.364,-0.843 3.683,-0.998 -0.833,-0.833 -1.667,-1.667 -2.5,-2.5 0,1.087 0,2.175 0,3.262 1.553,-0.421 3.106,-0.841 4.659,-1.262 -3.907,-7.343 -3.741,-18.517 4.538,-22.668 -0.841,0 -1.682,0 -2.523,0 3.799,2.861 7.375,5.661 8.634,10.464 0.668,2.55 4.007,2.209 4.821,0 2.121,-5.756 6.503,-9.84 12.807,-10.122 -0.833,-0.833 -1.667,-1.667 -2.5,-2.5 0.102,5.358 0.749,10.452 -0.998,15.64 -1.032,3.065 3.798,4.368 4.821,1.33 1.886,-5.603 1.286,-11.161 1.176,-16.97 -0.025,-1.315 -1.119,-2.562 -2.5,-2.5 -8.652,0.387 -14.705,5.86 -17.628,13.792 1.607,0 3.214,0 4.821,0 -1.604,-6.117 -6.064,-9.785 -10.932,-13.45 -0.724,-0.546 -1.784,-0.371 -2.523,0 -10.789,5.408 -11.46,19.869 -6.332,29.508 1.189,2.234 4.659,1.164 4.659,-1.262 0,-1.087 0,-2.175 0,-3.262 0,-1.242 -1.144,-2.659 -2.5,-2.5 -1.785,0.21 -3.281,0.823 -5.012,1.176 -3.158,0.644 -1.818,5.464 1.329,4.822 l 0,0 z"
           id="path581"
           style="fill:#ec008c" />
      </g>
    </g>
    <g
       transform="translate(-201.24136,256.15108)"
       id="g583">
      <g
         id="g585">
        <path
           d="m 275.957,669.543 c 4.481,0.477 4.543,-5.686 4.586,-8.63 0.091,-6.284 -1.191,-13.274 1.085,-19.292 1.143,-3.021 -3.692,-4.315 -4.821,-1.33 -1.545,4.085 -1.451,8.684 -1.401,12.984 0.025,2.216 0.108,4.43 0.136,6.645 0.012,0.942 -0.01,1.882 -0.044,2.823 -0.018,0.532 -0.067,1.062 -0.148,1.589 -0.335,0.76 -0.133,0.831 0.608,0.211 -3.206,-0.341 -3.173,4.663 -0.001,5 l 0,0 z"
           id="path587"
           style="fill:#fff200" />
      </g>
    </g>
    <g
       transform="translate(-201.24136,256.15108)"
       id="g589">
      <g
         id="g591">
        <path
           d="m 281.376,672.653 c 5.38,-9.682 10.803,-19.335 17.392,-28.261 1.918,-2.598 -2.425,-5.087 -4.317,-2.523 -6.589,8.926 -12.011,18.579 -17.392,28.261 -1.568,2.82 2.751,5.342 4.317,2.523 l 0,0 z"
           id="path593"
           style="fill:#fff200" />
      </g>
    </g>
  </g>
</svg>
