<?xml version="1.0" encoding="UTF-8" standalone="no"?>
<!-- Created with Inkscape (http://www.inkscape.org/) -->

<svg
   xmlns:dc="http://purl.org/dc/elements/1.1/"
   xmlns:cc="http://creativecommons.org/ns#"
   xmlns:rdf="http://www.w3.org/1999/02/22-rdf-syntax-ns#"
   xmlns:svg="http://www.w3.org/2000/svg"
   xmlns="http://www.w3.org/2000/svg"
   version="1.1"
   width="375"
   height="350"
   id="svg3846">
  <defs
     id="defs3848" />
  <metadata
     id="metadata3851">
    <rdf:RDF>
      <cc:Work
         rdf:about="">
        <dc:format>image/svg+xml</dc:format>
        <dc:type
           rdf:resource="http://purl.org/dc/dcmitype/StillImage" />
        <dc:title></dc:title>
      </cc:Work>
    </rdf:RDF>
  </metadata>
  <g
     transform="translate(0,-702.36214)"
     id="layer1">
    <g
       transform="translate(-291.03287,757.92894)"
       id="Layer_3">
      <g
         id="g301">
        <g
           id="g303">
          <path
             d="m 487.913,62.261 c 4.577,-0.161 8.868,-1.219 13.285,-2.353 4.523,-1.161 4.519,-6.742 1.194,-9.139 -14.195,-10.233 -33.863,3.507 -44.636,12.65 -10.95,9.292 -26.822,26.006 -23.578,41.909 0.558,2.733 3.642,4.096 6.15,3.492 11.23,-2.703 19.354,-12.805 26.983,-20.769 10.42,-10.876 23.365,-17.762 36.167,-25.387 4.067,-2.422 2.61,-9.689 -2.523,-9.317 -26.184,1.896 -43.94,26.905 -62.23,42.769 -4.916,4.263 2.164,11.111 7.07,7.071 17.427,-14.346 35.242,-28.498 56.489,-36.758 -1.284,-3.046 -2.568,-6.092 -3.853,-9.139 -12.809,5.826 -24.983,13.005 -36.377,21.256 -11.252,8.148 -22.097,17.591 -29.547,29.451 -2.242,3.569 1.479,8.832 5.646,7.345 30.157,-10.764 52.099,-35.503 80.542,-49.417 -2.02,-2.618 -4.039,-5.235 -6.059,-7.853 -22.37,23.175 -52.909,36.92 -72.521,62.969 -2.533,3.365 1.71,8.998 5.646,7.345 25.102,-10.543 44.176,-30.456 67.499,-43.982 -1.683,-2.878 -3.364,-5.756 -5.047,-8.635 -20.935,15.952 -44.334,30.775 -59.402,52.881 -3.445,5.054 3.759,9.37 7.853,6.059 22.662,-18.322 45.815,-36.026 68.478,-54.348 -2.356,-2.357 -4.714,-4.714 -7.07,-7.071 -22.312,20.041 -47.841,36.006 -70.652,55.435 -4.349,3.704 1.317,10.897 6.059,7.853 24.122,-15.488 45.214,-35.449 70.652,-48.913 -2.02,-2.618 -4.039,-5.235 -6.059,-7.853 -17.939,23.153 -45.22,37.614 -60.564,62.969 -2.809,4.641 2.557,8.785 6.841,6.841 30.771,-13.963 48.513,-46.1 73.838,-67.086 -2.617,-2.02 -5.234,-4.04 -7.853,-6.059 -15.425,27.95 -41.556,49.263 -65.522,69.64 -4.337,3.688 1.346,10.969 6.059,7.853 24.823,-16.414 43.678,-40.123 68.479,-56.522 -2.02,-2.618 -4.039,-5.235 -6.059,-7.853 -21.5,20.351 -43.901,40.451 -60.565,65.143 -2.868,4.25 2.684,9.318 6.841,6.841 26.189,-15.606 41.732,-44.409 69.565,-57.608 -2.28,-2.28 -4.561,-4.561 -6.841,-6.841 -13.488,23.18 -34.761,40.625 -47.826,64.13 -2.699,4.857 3.942,10.375 7.853,6.059 12.04,-13.289 21.847,-29.379 37.032,-39.436 -2.448,-1.882 -4.896,-3.764 -7.345,-5.646 -4.49,11.701 -13.343,21.18 -21.54,30.402 -4.281,4.815 2.281,11.425 7.07,7.071 9.215,-8.377 16.604,-20.22 28.336,-25.305 -2.448,-1.882 -4.896,-3.765 -7.345,-5.646 -2.367,8.488 -7.85,15.503 -13.931,21.707 -4.582,4.673 2.208,11.171 7.07,7.071 6.479,-5.462 12.489,-11.404 18.478,-17.391 -2.617,-2.02 -5.235,-4.04 -7.853,-6.059 -3.265,7.301 -7.944,13.765 -11.956,20.652 -2.787,4.784 4.195,10.564 7.853,6.059 3.132,-3.857 7.285,-6.411 10.869,-9.783 -2.785,-1.622 -5.571,-3.243 -8.356,-4.865 -1.554,4.886 0.308,9.022 1.087,12.441 1.432,6.287 11.073,3.62 9.643,-2.658 -0.662,-2.907 -2.11,-3.907 -1.087,-7.125 1.576,-4.955 -4.854,-8.16 -8.356,-4.865 -3.585,3.373 -7.738,5.926 -10.869,9.783 2.617,2.02 5.234,4.04 7.853,6.059 4.012,-6.887 8.69,-13.351 11.956,-20.652 2.214,-4.951 -3.582,-10.329 -7.853,-6.059 -5.989,5.987 -12,11.929 -18.478,17.391 2.356,2.357 4.714,4.714 7.07,7.071 7.276,-7.422 13.676,-15.984 16.503,-26.12 1.289,-4.622 -3.535,-7.297 -7.345,-5.646 -12.581,5.453 -20.499,17.905 -30.359,26.869 2.356,2.357 4.714,4.714 7.07,7.071 9.444,-10.624 18.953,-21.37 24.112,-34.815 1.573,-4.1 -3.852,-7.959 -7.345,-5.646 -16.047,10.627 -26.344,26.968 -39.056,40.999 2.617,2.02 5.235,4.04 7.853,6.059 13.057,-23.489 34.332,-40.938 47.826,-64.13 2.678,-4.603 -2.492,-8.903 -6.841,-6.841 -27.977,13.268 -43.379,42.004 -69.565,57.608 2.28,2.28 4.561,4.561 6.841,6.841 16.154,-23.937 38.161,-43.392 59.001,-63.118 4.094,-3.875 -1.283,-11.011 -6.059,-7.853 -24.824,16.414 -43.678,40.123 -68.479,56.522 2.02,2.618 4.039,5.235 6.059,7.853 24.637,-20.947 51.231,-42.934 67.087,-71.665 2.872,-5.204 -3.59,-9.591 -7.853,-6.059 -12.748,10.564 -23.423,23.352 -34.662,35.439 -10.851,11.671 -22.441,23.408 -37.152,30.083 2.28,2.28 4.561,4.561 6.841,6.841 14.828,-24.501 41.622,-38.516 59,-60.944 3.363,-4.34 -0.729,-10.674 -6.059,-7.853 -25.438,13.464 -46.53,33.425 -70.652,48.913 2.02,2.618 4.039,5.235 6.059,7.853 22.812,-19.428 48.337,-35.39 70.652,-55.435 4.875,-4.379 -2.159,-11.042 -7.07,-7.071 -22.663,18.322 -45.816,36.025 -68.478,54.348 2.617,2.02 5.235,4.04 7.853,6.059 14.019,-20.565 36.343,-34.456 55.814,-49.293 4.976,-3.792 0.697,-11.966 -5.047,-8.635 -22.462,13.026 -40.967,32.833 -65.11,42.975 1.882,2.448 3.765,4.896 5.646,7.345 18.96,-25.182 49.278,-38.486 70.957,-60.944 4.087,-4.233 -1.049,-10.304 -6.059,-7.853 -27.58,13.491 -48.975,37.994 -78.153,48.409 1.882,2.448 3.765,4.896 5.646,7.345 6.803,-10.831 16.988,-19.367 27.249,-26.797 10.943,-7.925 22.792,-14.729 35.087,-20.322 5.138,-2.337 1.421,-11.189 -3.853,-9.139 -22.974,8.931 -42.045,23.806 -60.901,39.329 2.356,2.357 4.714,4.714 7.07,7.071 8.709,-7.554 16.557,-16.042 25.203,-23.669 8.286,-7.309 18.499,-15.341 29.957,-16.171 -0.841,-3.106 -1.683,-6.211 -2.523,-9.317 -11.903,7.09 -24.167,13.573 -34.363,23.11 -7.876,7.367 -15.336,19.376 -26.398,22.038 2.05,1.164 4.101,2.328 6.15,3.492 -0.906,-4.445 2.505,-10.257 4.956,-14.182 4.074,-6.521 9.494,-12.188 15.218,-17.276 7.244,-6.438 23.247,-19.093 33.351,-11.809 0.398,-3.046 0.796,-6.093 1.194,-9.139 -3.541,0.908 -6.953,1.866 -10.627,1.995 -6.429,0.226 -6.451,10.226 0.001,10 l 0,0 z"
             id="path305"
             style="fill:#fff200" />
        </g>
      </g>
      <g
         id="g307">
        <g
           id="g309">
          <path
             d="m 444.709,76.014 c 7.566,-8.643 15.224,-17.042 25.075,-23.131 4.636,-2.865 1.577,-11.333 -3.853,-9.139 -20.569,8.31 -34.729,25.143 -51.119,39.329 2.617,2.02 5.235,4.04 7.853,6.059 11.233,-18.479 32.53,-27.985 43.479,-46.739 2.294,-3.929 -1.446,-8.292 -5.646,-7.345 -11.707,2.64 -21.364,9.912 -31.629,15.721 1.683,2.878 3.364,5.756 5.047,8.635 6.83,-4.858 13.78,-9.488 21.632,-12.54 -1.284,-3.046 -2.568,-6.092 -3.853,-9.139 -7.937,4.107 -15.105,10.099 -23.806,12.54 1.621,2.786 3.243,5.571 4.864,8.357 4.376,-4.204 9.698,-7.934 16.029,-7.231 -1.607,-2.11 -3.214,-4.219 -4.821,-6.329 -3.563,10.859 -12.274,19.248 -19.061,28.154 -2.342,3.073 0.843,7.613 4.317,7.523 10.704,-0.276 21.501,-5.961 31.492,-9.282 5.624,-1.87 11.485,-3.75 17.429,-4.173 1.573,-0.112 3.617,-0.232 5.111,0.413 1.297,0.56 1.785,1.493 1.803,1.665 0.328,3.303 -2.524,7.149 -4.434,9.881 -3.366,4.817 -7.614,9.073 -11.783,13.188 -7.154,7.061 -14.929,13.399 -22.502,19.99 -4.214,3.667 0.454,9.005 4.864,8.357 13.04,-1.916 24.727,-8.75 36.15,-14.919 11.264,-6.084 23.231,-12.433 36.434,-10.989 -1.439,-2.508 -2.878,-5.016 -4.317,-7.523 -14.9,29.121 -43.978,47.097 -64.435,71.814 -2.815,3.402 -0.283,10.401 4.864,8.357 31.202,-12.392 50.693,-42.327 80.542,-57.026 -2.02,-2.618 -4.039,-5.235 -6.059,-7.853 -17.856,22.228 -37.508,42.909 -56.521,64.13 -4.305,4.804 2.279,11.412 7.07,7.071 20.897,-18.934 35.777,-45.521 62.031,-57.914 -2.02,-2.618 -4.039,-5.235 -6.059,-7.853 -29.192,29.158 -59.405,57.261 -89.13,85.869 2.356,2.357 4.714,4.714 7.07,7.071 25.533,-29.062 50.746,-62.818 85.944,-80.74 -2.448,-1.882 -4.896,-3.764 -7.345,-5.646 -7.195,25.117 -27.637,43.975 -41.888,65.11 -3.412,5.06 3.753,9.392 7.853,6.059 22.477,-18.272 36.817,-44.192 57.609,-64.13 -2.617,-2.02 -5.234,-4.04 -7.853,-6.059 -13.716,27.094 -33.28,50.583 -51.087,75 2.878,1.682 5.757,3.365 8.635,5.047 15.697,-25.756 33.755,-55.894 62.336,-68.858 -2.448,-1.882 -4.896,-3.764 -7.345,-5.646 -6.093,25.08 -28.287,42.846 -42.975,62.937 -3.418,4.675 3.957,10.009 7.853,6.059 17.438,-17.683 29.307,-39.93 46.739,-57.609 -2.785,-1.622 -5.571,-3.243 -8.356,-4.865 -6.699,17.352 -18.286,32.292 -26.67,48.806 -2.451,4.827 3.976,10.578 7.853,6.059 7.386,-8.608 13.273,-18.436 21.739,-26.087 -2.845,-1.179 -5.69,-2.357 -8.535,-3.536 0.797,6.918 -0.692,13.738 -5.057,19.291 2.617,2.02 5.234,4.04 7.853,6.059 3.173,-5.051 7.236,-9.417 10.869,-14.13 -3.046,-1.284 -6.093,-2.568 -9.139,-3.853 -0.944,5.766 -4.06,18.608 4.579,20.281 6.3,1.22 8.985,-8.418 2.658,-9.643 1.324,1.982 1.826,2.254 1.507,0.814 -0.022,-0.872 10e-4,-1.742 0.07,-2.61 0.108,-2.075 0.493,-4.137 0.828,-6.184 0.947,-5.785 -5.651,-8.377 -9.139,-3.853 -3.643,4.726 -7.683,9.058 -10.869,14.13 -2.976,4.737 4.31,10.566 7.853,6.059 5.963,-7.584 9.103,-16.661 7.986,-26.362 -0.494,-4.297 -5.075,-6.663 -8.535,-3.536 -8.475,7.658 -14.351,17.475 -21.739,26.087 2.617,2.02 5.235,4.04 7.853,6.059 8.8,-17.333 20.641,-32.966 27.678,-51.194 1.866,-4.833 -5.037,-8.231 -8.356,-4.865 -17.438,17.684 -29.307,39.93 -46.739,57.609 2.617,2.02 5.234,4.04 7.853,6.059 15.347,-20.992 37.601,-39.054 43.982,-65.325 1.106,-4.553 -3.425,-7.425 -7.345,-5.646 -30.082,13.646 -49.396,45.328 -65.924,72.446 -3.426,5.62 4.92,10.141 8.635,5.047 17.807,-24.417 37.371,-47.906 51.087,-75 2.54,-5.018 -3.644,-10.095 -7.853,-6.059 -20.793,19.938 -35.134,45.859 -57.609,64.13 2.617,2.02 5.235,4.04 7.853,6.059 14.831,-21.996 35.399,-41.331 42.896,-67.499 1.268,-4.425 -3.56,-7.574 -7.345,-5.646 -36,18.33 -61.856,52.583 -87.968,82.303 -4.228,4.812 2.384,11.582 7.07,7.071 29.726,-28.608 59.938,-56.711 89.13,-85.869 4.222,-4.216 -1.098,-10.195 -6.059,-7.853 -27.133,12.808 -42.485,39.935 -64.055,59.477 2.356,2.357 4.714,4.714 7.07,7.071 19.015,-21.222 38.666,-41.903 56.521,-64.13 3.537,-4.403 -0.771,-10.457 -6.059,-7.853 -14.678,7.228 -27.097,18.063 -39.343,28.74 -11.845,10.327 -24.002,21.397 -38.811,27.278 1.621,2.786 3.243,5.571 4.864,8.357 21.026,-25.404 50.669,-43.877 65.999,-73.838 1.849,-3.613 -0.503,-7.106 -4.317,-7.523 -28.042,-3.068 -48.713,22.368 -75.242,26.266 1.621,2.786 3.243,5.571 4.864,8.357 8.694,-7.565 17.564,-14.868 25.626,-23.131 7.215,-7.395 17.728,-18.097 15.688,-29.452 -2.32,-12.916 -20.386,-9.684 -28.927,-7.438 -7.118,1.872 -14.029,4.507 -20.961,6.955 -4.888,1.726 -10.371,4.178 -15.612,4.313 1.439,2.508 2.878,5.016 4.317,7.523 7.442,-9.769 16.156,-18.621 20.068,-30.542 1.105,-3.367 -1.774,-5.991 -4.821,-6.329 -8.855,-0.982 -16.981,4.282 -23.1,10.16 -3.634,3.491 0.089,9.697 4.864,8.357 9.619,-2.698 17.438,-9.017 26.194,-13.547 4.979,-2.576 1.464,-11.205 -3.853,-9.139 -8.723,3.39 -16.419,8.14 -24.021,13.547 -5.17,3.677 -0.662,11.866 5.047,8.635 9.5,-5.376 18.412,-12.271 29.24,-14.713 -1.882,-2.448 -3.765,-4.896 -5.646,-7.345 -10.867,18.617 -32.205,28.195 -43.479,46.739 -3.087,5.079 3.707,9.647 7.853,6.059 14.874,-12.874 28.025,-29.21 46.707,-36.758 -1.284,-3.046 -2.568,-6.092 -3.853,-9.139 -10.594,6.547 -18.957,15.394 -27.099,24.694 -4.221,4.83 2.823,11.933 7.078,7.072 l 0,0 z"
             id="path311"
             style="fill:#fff200" />
        </g>
      </g>
      <g
         id="g313">
        <g
           id="g315">
          <path
             d="m 482.828,145.274 c 1.776,-0.955 3.427,-2.051 5.327,-2.757 -1.882,-2.448 -3.765,-4.896 -5.646,-7.345 -9.971,17.466 -23.137,32.693 -36.175,47.901 2.785,1.622 5.571,3.243 8.356,4.865 7.74,-20.52 20.849,-38.484 33.192,-56.415 2.743,-3.984 -2.844,-9.893 -6.841,-6.841 -17.643,13.471 -30.864,33.594 -51.087,43.478 2.28,2.28 4.561,4.561 6.841,6.841 9.675,-16.507 24.791,-29.377 30.938,-47.933 1.414,-4.27 -3.695,-7.76 -7.345,-5.646 -10.911,6.319 -19.456,15.834 -29.272,23.608 2.617,2.02 5.235,4.04 7.853,6.059 6.724,-13.105 16.413,-24.323 23.913,-36.957 2.118,-3.567 -1.405,-8.883 -5.646,-7.345 -14.089,5.11 -22.479,18.423 -35.978,24.417 2.448,1.882 4.896,3.765 7.345,5.646 4.979,-17.186 20.986,-29.179 31.019,-43.371 3.005,-4.25 -2.732,-9.22 -6.841,-6.841 -10.148,5.877 -17.944,14.659 -27.174,21.739 2.02,2.618 4.039,5.235 6.059,7.853 20.719,-21.842 41.887,-47.138 70.619,-58.497 -1.621,-2.786 -3.243,-5.571 -4.864,-8.357 -7.219,6.127 -14.894,11.567 -22.901,16.609 -5.437,3.423 -0.53,11.932 5.047,8.635 12.447,-7.359 24.027,-16.727 37.937,-21.235 -1.882,-2.448 -3.765,-4.896 -5.646,-7.345 -4.774,9.972 -14.344,16.426 -22.044,23.988 -4.266,4.188 1.118,10.189 6.059,7.853 13.703,-6.48 25.656,-15.942 39.131,-22.826 -2.02,-2.618 -4.039,-5.235 -6.059,-7.853 -9.759,7.592 -19.43,15.276 -27.174,25 -3.403,4.272 0.798,10.789 6.059,7.853 12.236,-6.828 22.934,-16.145 35.869,-21.739 -2.448,-1.882 -4.896,-3.764 -7.345,-5.646 -3.481,9.372 -12.959,15.528 -19.366,22.793 -3.176,3.601 -0.189,9.839 4.864,8.357 13.178,-3.863 24.119,-12.4 35.978,-18.982 -2.02,-2.618 -4.039,-5.235 -6.059,-7.853 -6.719,8.585 -16.168,14.203 -23.913,21.739 -3.588,3.491 0.064,9.735 4.864,8.357 12.945,-3.717 24.808,-10.504 35.977,-17.895 -2.28,-2.28 -4.561,-4.561 -6.841,-6.841 -6.62,8.622 -14.989,15.774 -23.131,22.901 -4.596,4.022 1.246,10.024 6.059,7.853 7.492,-3.38 13.886,-8.463 20.652,-13.043 -2.28,-2.28 -4.561,-4.561 -6.841,-6.841 -5.66,8.729 -13.629,15.622 -20.957,22.901 -3.49,3.467 0.021,9.852 4.864,8.357 7.78,-2.4 14.644,-6.606 21.847,-10.287 -2.02,-2.618 -4.039,-5.235 -6.059,-7.853 -4.83,6.012 -9.803,11.895 -15.218,17.391 -3.577,3.63 0.036,9.535 4.864,8.357 6.619,-1.614 12.368,-5.474 18.586,-8.112 -2.02,-2.618 -4.039,-5.235 -6.059,-7.853 -3.519,3.824 -5.745,8.61 -9.782,11.957 -4.603,3.814 1.253,10.262 6.059,7.853 4.53,-2.27 8.93,-4.634 13.043,-7.609 -2.28,-2.28 -4.561,-4.561 -6.841,-6.841 -3.134,5.896 -7.579,10.603 -12.261,15.292 -4.216,4.222 1.095,10.193 6.059,7.853 4.265,-2.01 8.774,-3.422 13.043,-5.435 -2.28,-2.28 -4.561,-4.561 -6.841,-6.841 -2.227,4.251 -5.007,7.557 -9.075,10.163 1.683,2.878 3.364,5.756 5.047,8.635 6.369,-4.244 12.748,-8.456 19.564,-11.957 -2.28,-2.28 -4.561,-4.561 -6.841,-6.841 -2.677,4.091 -6.437,6.386 -11.142,7.485 1.882,2.448 3.765,4.896 5.646,7.345 5.925,-9.158 14.081,-16.598 19.565,-26.087 2.001,-3.461 -1.377,-9.093 -5.646,-7.345 -5.733,2.348 -11.327,5.122 -17.392,6.521 2.05,2.05 4.101,4.1 6.15,6.15 1.447,-5.922 5.072,-11.044 8.191,-16.197 1.922,-3.175 -0.533,-7.655 -4.317,-7.523 -6.534,0.227 -12.676,2.156 -18.72,4.526 1.882,2.448 3.765,4.896 5.646,7.345 6.066,-11.665 16.275,-25.284 3.95,-36.844 -3.116,-2.923 -7.185,-4.21 -11.072,-5.727 -1.156,-0.451 -0.726,-0.875 -0.637,0.187 -0.21,-2.505 2.222,-5.619 3.41,-7.616 1.751,-2.942 -0.003,-6.272 -2.988,-7.345 -6.995,-2.514 -13.64,-1.933 -20.156,1.591 2.28,2.28 4.561,4.561 6.841,6.841 1.165,-2.503 2.096,-5.106 3.261,-7.608 2.105,-4.524 -2.186,-9.231 -6.841,-6.841 -6.817,3.5 -13.196,7.712 -19.565,11.956 2.28,2.28 4.561,4.561 6.841,6.841 1.255,-2.115 2.929,-3.774 4.652,-5.509 -2.617,-2.02 -5.235,-4.04 -7.853,-6.059 -4.385,7.294 -10.942,12.833 -17.771,17.771 2.02,2.618 4.039,5.235 6.059,7.853 4.485,-5.695 8.56,-11.698 13.043,-17.392 3.328,-4.226 -0.811,-10.934 -6.059,-7.853 -7.448,4.374 -14.279,10.172 -22.719,12.54 1.882,2.448 3.765,4.896 5.646,7.345 3.607,-5.712 8.348,-10.589 11.957,-16.304 2.17,-3.435 -1.491,-9.076 -5.646,-7.345 -11.554,4.812 -21.618,12.212 -32.717,17.895 2.448,1.882 4.896,3.764 7.345,5.646 2.028,-4.848 4.87,-9.217 8.497,-13.011 3.844,-4.02 -1.155,-10.998 -6.059,-7.853 -8.229,5.278 -15.572,12.443 -24.893,15.8 1.621,2.786 3.243,5.571 4.864,8.357 3.432,-3.892 4.691,-8.609 7.304,-12.969 2.424,-4.043 -2.683,-9.958 -6.841,-6.841 -13.264,9.942 -22.216,23.931 -32.533,36.651 2.845,1.179 5.69,2.357 8.535,3.536 0,-0.362 0,-0.725 0,-1.087 0,-5.411 -6.484,-6.241 -9.317,-2.523 -6.438,8.45 -13.945,16.026 -20.957,23.988 -4.255,4.831 2.273,11.427 7.07,7.071 10.105,-9.174 17.992,-20.321 25.782,-31.447 -2.878,-1.682 -5.757,-3.365 -8.635,-5.047 -6.481,11.797 -13.679,23.211 -22.044,33.771 -3.924,4.953 2.858,12.054 7.07,7.071 5.2,-6.151 10.813,-12.019 17.467,-16.61 -2.28,-2.28 -4.561,-4.561 -6.841,-6.841 -5.957,11.45 -15.585,20.667 -20.652,32.609 -1.655,3.9 1.009,8.502 5.646,7.345 10.4,-2.595 18.635,-9.094 26.119,-16.503 -2.617,-2.02 -5.235,-4.04 -7.853,-6.059 -6.256,12.219 -15.073,22.812 -21.739,34.782 -2.121,3.809 1.347,8.522 5.646,7.345 14.057,-3.847 24.613,-14.173 37.063,-21.156 -2.508,-1.439 -5.016,-2.878 -7.523,-4.317 0.594,11.501 -8.886,21.037 -15.926,29.073 -3.583,4.089 1.059,11.096 6.059,7.853 7.739,-5.019 15.992,-15.141 25.737,-15.622 -1.667,-1.667 -3.333,-3.333 -5,-5 -1.32,10.832 -10.395,19.221 -14.535,28.998 -1.535,3.625 0.993,8.925 5.646,7.345 5.988,-2.033 10.761,-6.044 15.527,-10.07 4.713,-3.981 10.21,-9.605 16.84,-9.316 -1.607,-2.11 -3.214,-4.219 -4.821,-6.329 -2.418,8.798 -7.547,16.538 -10.87,25 -1.785,4.546 3.856,7.255 7.345,5.646 8.363,-3.856 14.959,-10.533 22.826,-15.217 -2.448,-1.882 -4.896,-3.764 -7.345,-5.646 -2.414,9.519 -9.529,16.809 -14.714,24.893 -3.2,4.989 3.769,9.7 7.853,6.059 9.006,-8.028 16.625,-17.466 26.087,-25 -2.845,-1.179 -5.69,-2.357 -8.535,-3.536 -1.25,10.476 -9.137,18.642 -13.447,27.911 -2.397,5.154 3.452,9.898 7.853,6.059 7.926,-6.914 14.901,-14.825 22.826,-21.739 -2.785,-0.735 -5.571,-1.471 -8.356,-2.207 1.689,6.129 -0.26,12.149 -2.174,17.994 -1.302,3.974 3.766,8.226 7.345,5.646 11.269,-8.12 19.944,-19.998 32.608,-26.087 -2.448,-1.882 -4.896,-3.764 -7.345,-5.646 -0.955,4.217 -1.38,8.176 -3.844,11.849 -3.607,5.378 5.043,10.348 8.635,5.047 6.709,-9.901 14.715,-18.78 23.131,-27.249 -2.785,-1.622 -5.571,-3.243 -8.356,-4.865 -1.067,5.303 -2.261,10.353 -4.931,15.11 -3.243,5.778 4.852,10.057 8.635,5.047 10.744,-14.226 17.539,-30.681 25,-46.739 2.736,-5.888 -4.839,-10.259 -8.635,-5.047 -2.763,3.794 -6.368,6.714 -8.696,10.87 3.105,0.841 6.212,1.682 9.317,2.523 1.167,-9.991 5.15,-19.362 7.431,-29.105 1.114,-4.76 -4.739,-8.554 -8.356,-4.865 -6.475,6.604 -12.005,14.047 -18.479,20.652 2.617,2.02 5.234,4.04 7.853,6.059 1.964,-3.182 3.471,-6.6 5.435,-9.782 -3.046,-1.284 -6.093,-2.568 -9.139,-3.853 -2.385,13.477 -7.643,27.149 -16.105,38.011 2.785,1.622 5.571,3.243 8.356,4.865 3.444,-10.449 12.272,-18.043 19.366,-26.054 -2.785,-1.622 -5.571,-3.243 -8.356,-4.865 -2.033,9.954 -8.264,19.296 -18.247,22.595 2.109,1.607 4.22,3.214 6.329,4.821 1.51,-13.035 13.778,-23.46 19.97,-34.433 2.776,-4.921 -3.825,-10.169 -7.853,-6.059 -12.528,12.785 -21.088,28.62 -29.043,44.49 -2.912,5.809 4.957,10.315 8.635,5.047 2.273,-3.256 4.438,-6.191 5.938,-9.89 2.427,-5.979 -7.251,-8.552 -9.643,-2.658 -1.117,2.751 -3.248,5.09 -4.931,7.501 2.878,1.682 5.757,3.365 8.635,5.047 7.565,-15.094 15.56,-30.302 27.479,-42.466 -2.617,-2.02 -5.235,-4.04 -7.853,-6.059 -7.409,13.13 -19.521,23.811 -21.335,39.48 -0.368,3.179 3.479,5.763 6.329,4.821 13.213,-4.366 22.48,-16.109 25.231,-29.579 0.931,-4.554 -4.799,-8.882 -8.356,-4.865 -8.358,9.438 -17.887,18.176 -21.938,30.467 -1.497,4.54 5.234,8.873 8.356,4.865 9.552,-12.258 15.971,-27.124 18.678,-42.424 0.964,-5.446 -6.025,-8.896 -9.139,-3.853 -1.964,3.182 -3.471,6.6 -5.435,9.782 -3.006,4.869 3.89,10.103 7.853,6.059 6.475,-6.604 12.005,-14.048 18.479,-20.652 -2.785,-1.622 -5.571,-3.243 -8.356,-4.865 -2.5,10.679 -6.508,20.803 -7.788,31.764 -0.595,5.096 7.028,6.609 9.317,2.523 2.285,-4.079 5.954,-7.104 8.696,-10.87 -2.878,-1.682 -5.757,-3.365 -8.635,-5.047 -7.461,16.059 -14.256,32.513 -25,46.739 2.878,1.682 5.757,3.365 8.635,5.047 3.097,-5.517 4.697,-11.333 5.938,-17.499 0.954,-4.736 -4.646,-8.599 -8.356,-4.865 -9.017,9.073 -17.51,18.668 -24.695,29.273 2.878,1.682 5.757,3.365 8.635,5.047 2.96,-4.413 3.703,-9.164 4.852,-14.238 1.012,-4.469 -3.377,-7.554 -7.345,-5.646 -12.786,6.147 -21.289,17.93 -32.608,26.087 2.448,1.882 4.896,3.764 7.345,5.646 2.494,-7.616 4.357,-15.389 2.174,-23.311 -1.051,-3.813 -5.577,-4.631 -8.356,-2.207 -7.926,6.914 -14.901,14.825 -22.826,21.739 2.617,2.02 5.235,4.04 7.853,6.059 5.228,-11.241 13.292,-20.216 14.812,-32.958 0.582,-4.876 -5.609,-5.866 -8.535,-3.536 -9.463,7.535 -17.082,16.972 -26.087,25 2.617,2.02 5.235,4.04 7.853,6.059 5.713,-8.906 13.058,-16.776 15.722,-27.281 1.063,-4.194 -3.499,-7.937 -7.345,-5.646 -7.867,4.685 -14.463,11.361 -22.826,15.217 2.448,1.882 4.896,3.765 7.345,5.646 3.334,-8.49 8.436,-16.141 10.87,-25 0.891,-3.241 -1.596,-6.188 -4.821,-6.329 -15.185,-0.662 -22.104,15.355 -35.025,19.744 1.882,2.448 3.765,4.896 5.646,7.345 5.008,-11.824 14.29,-20.83 15.9,-34.045 0.319,-2.62 -2.517,-5.123 -5,-5 -12.46,0.615 -20.955,10.613 -30.784,16.987 2.02,2.618 4.039,5.235 6.059,7.853 8.841,-10.09 19.598,-21.762 18.855,-36.144 -0.195,-3.778 -4.1,-6.238 -7.523,-4.317 -11.602,6.506 -21.61,16.572 -34.675,20.148 1.882,2.448 3.765,4.896 5.646,7.345 6.666,-11.97 15.483,-22.563 21.739,-34.782 2.548,-4.978 -3.697,-10.173 -7.853,-6.059 -6.293,6.23 -12.944,11.745 -21.707,13.932 1.882,2.448 3.765,4.896 5.646,7.345 5.067,-11.941 14.695,-21.159 20.652,-32.609 2.15,-4.133 -2.446,-9.874 -6.841,-6.841 -7.385,5.095 -13.712,11.337 -19.49,18.173 2.356,2.357 4.714,4.714 7.07,7.071 8.911,-11.248 16.7,-23.222 23.608,-35.795 3.148,-5.731 -4.98,-10.265 -8.635,-5.047 -7.321,10.455 -14.723,20.801 -24.218,29.422 2.356,2.357 4.714,4.714 7.07,7.071 7.59,-8.617 15.553,-16.867 22.521,-26.012 -3.105,-0.841 -6.212,-1.682 -9.317,-2.523 0,0.362 0,0.725 0,1.087 0,4.034 5.677,7.061 8.535,3.536 9.655,-11.903 18.094,-25.781 30.51,-35.088 -2.28,-2.28 -4.561,-4.561 -6.841,-6.841 -2.105,3.513 -2.998,7.835 -5.739,10.944 -3.046,3.454 -0.196,10.18 4.864,8.357 10.307,-3.712 18.194,-10.98 27.281,-16.808 -2.02,-2.618 -4.039,-5.235 -6.059,-7.853 -4.894,5.117 -8.348,10.919 -11.069,17.424 -1.847,4.414 3.907,7.407 7.345,5.646 10.287,-5.267 19.631,-12.431 30.328,-16.887 -1.882,-2.448 -3.765,-4.896 -5.646,-7.345 -3.608,5.712 -8.349,10.589 -11.957,16.304 -2.371,3.754 1.517,8.503 5.646,7.345 9.366,-2.628 16.852,-8.7 25.107,-13.547 -2.02,-2.618 -4.039,-5.235 -6.059,-7.853 -4.485,5.695 -8.56,11.698 -13.043,17.392 -3.202,4.065 1.055,11.471 6.059,7.853 8.245,-5.962 16.058,-12.542 21.358,-21.359 2.946,-4.901 -3.854,-10.085 -7.853,-6.059 -2.322,2.338 -4.528,4.688 -6.217,7.534 -2.476,4.172 2.577,9.682 6.841,6.841 6.37,-4.244 12.748,-8.456 19.565,-11.956 -2.28,-2.28 -4.561,-4.561 -6.841,-6.841 -1.165,2.503 -2.096,5.106 -3.261,7.608 -2.072,4.451 2.193,9.354 6.841,6.841 4.279,-2.314 7.967,-2.194 12.451,-0.583 -0.996,-2.448 -1.992,-4.896 -2.988,-7.345 -2.713,4.557 -5.61,9.678 -4.427,15.152 0.863,3.987 4.853,5.884 8.254,7.21 3.804,1.484 7.253,2.827 8.851,6.956 2.454,6.342 -5.602,15.438 -8.329,20.682 -1.821,3.502 1.242,9.072 5.646,7.345 5.156,-2.022 10.475,-3.975 16.062,-4.169 -1.439,-2.508 -2.878,-5.016 -4.317,-7.523 -3.57,5.899 -7.543,11.804 -9.199,18.585 -0.927,3.791 2.399,7.016 6.15,6.15 6.066,-1.4 11.658,-4.173 17.392,-6.521 -1.882,-2.448 -3.765,-4.896 -5.646,-7.345 -5.476,9.473 -13.64,16.926 -19.565,26.087 -2.501,3.865 1.59,8.292 5.646,7.345 7.255,-1.694 13.053,-5.867 17.118,-12.081 2.91,-4.448 -2.642,-8.997 -6.841,-6.841 -6.817,3.5 -13.195,7.712 -19.564,11.957 -5.325,3.548 -0.418,12.135 5.047,8.635 5.459,-3.497 9.653,-8.004 12.663,-13.75 2.429,-4.637 -2.344,-8.96 -6.841,-6.841 -4.265,2.01 -8.774,3.422 -13.043,5.435 2.02,2.618 4.039,5.235 6.059,7.853 5.256,-5.263 10.311,-10.703 13.825,-17.316 2.168,-4.079 -2.511,-9.972 -6.841,-6.841 -4.113,2.975 -8.513,5.339 -13.043,7.609 2.02,2.618 4.039,5.235 6.059,7.853 4.078,-3.38 6.256,-8.123 9.782,-11.957 4.085,-4.439 -1.005,-9.998 -6.059,-7.853 -5.427,2.303 -10.429,5.698 -16.197,7.104 1.621,2.786 3.243,5.571 4.864,8.357 5.415,-5.497 10.389,-11.379 15.218,-17.391 3.504,-4.362 -0.778,-10.551 -6.059,-7.853 -6.424,3.282 -12.521,7.139 -19.458,9.279 1.621,2.786 3.243,5.571 4.864,8.357 7.964,-7.91 16.37,-15.439 22.521,-24.925 2.677,-4.128 -2.688,-9.652 -6.841,-6.841 -6.767,4.58 -13.16,9.663 -20.652,13.043 2.02,2.618 4.039,5.235 6.059,7.853 8.856,-7.752 17.504,-15.559 24.695,-24.925 3.095,-4.03 -2.843,-9.486 -6.841,-6.841 -10.456,6.919 -21.465,13.406 -33.588,16.887 1.621,2.786 3.243,5.571 4.864,8.357 7.746,-7.537 17.194,-13.154 23.913,-21.739 3.354,-4.285 -0.767,-10.791 -6.059,-7.853 -11.049,6.133 -21.324,14.378 -33.589,17.974 1.621,2.786 3.243,5.571 4.864,8.357 7.797,-8.841 17.694,-15.782 21.938,-27.207 1.718,-4.624 -3.809,-7.176 -7.345,-5.646 -12.936,5.595 -23.633,14.911 -35.869,21.739 2.02,2.618 4.039,5.235 6.059,7.853 7.745,-9.724 17.416,-17.408 27.174,-25 4.695,-3.652 -1.272,-10.298 -6.059,-7.853 -13.475,6.884 -25.429,16.346 -39.131,22.826 2.02,2.618 4.039,5.235 6.059,7.853 8.328,-8.178 18.438,-15.215 23.608,-26.012 1.763,-3.68 -1.136,-8.807 -5.646,-7.345 -14.828,4.805 -27.063,14.402 -40.325,22.243 1.683,2.878 3.364,5.756 5.047,8.635 8.727,-5.494 17.062,-11.499 24.925,-18.173 3.714,-3.152 -0.231,-10.189 -4.864,-8.357 -30.617,12.104 -52.911,37.749 -75.031,61.068 -3.755,3.958 1.404,11.424 6.059,7.853 9.197,-7.056 17.088,-15.898 27.174,-21.739 -2.28,-2.28 -4.561,-4.561 -6.841,-6.841 -10.71,15.151 -26.684,27.315 -32.026,45.759 -1.332,4.596 3.567,7.324 7.345,5.646 12.645,-5.615 20.593,-18.695 33.589,-23.409 -1.882,-2.448 -3.765,-4.896 -5.646,-7.345 -7.5,12.633 -17.189,23.852 -23.913,36.957 -2.721,5.303 3.488,9.516 7.853,6.059 9.146,-7.244 17.09,-16.16 27.249,-22.044 -2.448,-1.882 -4.896,-3.764 -7.345,-5.646 -5.796,17.496 -20.78,29.933 -29.931,45.544 -2.674,4.562 2.498,8.963 6.841,6.841 20.426,-9.983 33.347,-29.933 51.087,-43.478 -2.28,-2.28 -4.561,-4.561 -6.841,-6.841 -12.893,18.728 -26.119,37.379 -34.2,58.803 -1.754,4.65 5.168,8.584 8.356,4.865 13.575,-15.833 27.358,-31.741 37.739,-49.925 2.027,-3.552 -1.354,-8.938 -5.646,-7.345 -2.744,1.018 -5.153,2.388 -7.716,3.765 -5.676,3.058 -0.627,11.691 5.052,8.64 l 0,0 z"
             id="path317"
             style="fill:#fff200" />
        </g>
      </g>
    </g>
    <g
       transform="translate(-291.03287,757.92894)"
       id="Layer_2">
      <g
         id="g320">
        <g
           id="g322">
          <path
             d="m 527.027,55.999 c -6.833,-15.101 -24.312,-14.417 -37.975,-10.548 -16.794,4.757 -33.037,14.334 -46.127,25.792 -13.09,11.458 -19.84,29.314 -16.932,46.517 3.1,18.329 17.485,32.918 32.474,42.643 28.275,18.344 73.675,25.635 98.69,-2.188 18.378,-20.44 15.537,-53.564 -2.966,-72.873 -10.025,-10.461 -24.283,-15.255 -38.584,-14.625 -19.691,0.868 -37.489,12.412 -48.004,28.855 -10.036,15.695 -7.925,36.199 8.817,46.197 13.445,8.029 33.187,8.765 47.383,2.407 14.668,-6.568 21.09,-22.264 13.552,-36.877 -6.605,-12.805 -22.902,-19.865 -36.792,-17.327 -15.364,2.808 -25.252,23.431 -13.637,35.558 6.565,6.854 17.788,6.409 24.628,0.298 6.004,-5.363 7.478,-13.451 0.567,-18.703 -5.581,-4.242 -12.504,-0.71 -15.5,4.656 -0.843,1.511 0.188,3.969 2.159,3.762 2.1,-0.221 4.032,-0.826 6.101,-1.176 3.174,-0.538 1.823,-5.355 -1.33,-4.821 -1.615,0.274 -3.122,0.824 -4.771,0.998 0.72,1.254 1.439,2.508 2.159,3.762 2.24,-4.015 6.973,-5.655 10.057,-1.419 4.085,5.608 -4.596,11.247 -9.046,12.457 -5.505,1.497 -11.088,-1.83 -13.841,-6.437 -2.791,-4.671 -0.987,-10.893 1.385,-15.352 7.971,-14.979 29.411,-9.31 39.133,0.311 5.846,5.785 8.403,14.211 6.24,22.191 -2.211,8.159 -10.023,12.884 -17.605,15.211 -15.396,4.727 -37.241,2.068 -46.992,-12.005 -13.843,-19.978 8.396,-43.674 25.255,-52.424 14.615,-7.585 33.575,-6.998 47.497,1.771 23.66,14.902 28.787,51.072 10.6,72.07 -11.363,13.119 -29.682,17.668 -46.431,16.867 -20.322,-0.973 -40.844,-9.781 -56.245,-22.915 -14.78,-12.604 -24.4,-31.019 -19.135,-50.592 4.845,-18.007 20.021,-28.957 35.422,-37.715 13.89,-7.898 45.844,-23.085 55.477,-1.801 1.328,2.933 5.636,0.388 4.317,-2.525 l 0,0 z"
             id="path324"
             style="fill:#f7941e" />
        </g>
      </g>
      <g
         id="g326">
        <g
           id="g328">
          <path
             d="m 391.174,103.022 c -28.989,0.023 -57.967,1.062 -86.957,1.087 -9.672,0.008 -9.673,15.008 0,15 28.99,-0.024 57.967,-1.063 86.957,-1.087 9.673,-0.008 9.674,-15.008 0,-15 l 0,0 z"
             id="path330"
             style="fill:#f7941e" />
        </g>
      </g>
      <g
         id="g332">
        <g
           id="g334">
          <path
             d="m 491.55,203.82 c 3.645,11.533 2.587,24.281 2.042,36.186 -0.642,14.05 -1.844,28.236 -0.136,42.255 0.494,4.057 3.037,7.5 7.5,7.5 3.713,0 7.996,-3.432 7.5,-7.5 -1.707,-14.012 -0.532,-28.212 0.136,-42.255 0.63,-13.222 1.467,-27.373 -2.577,-40.173 -2.904,-9.189 -17.387,-5.263 -14.465,3.987 l 0,0 z"
             id="path336"
             style="fill:#f7941e" />
        </g>
      </g>
      <g
         id="g338">
        <g
           id="g340">
          <path
             d="m 582.479,109.326 c 20.934,-2.103 42.039,-1.293 62.863,-4.616 4.042,-0.645 6.23,-5.617 5.238,-9.226 -1.173,-4.263 -5.192,-5.882 -9.227,-5.238 -19.449,3.104 -39.309,2.115 -58.875,4.08 -4.066,0.408 -7.5,3.103 -7.5,7.5 0.001,3.779 3.425,7.909 7.501,7.5 l 0,0 z"
             id="path342"
             style="fill:#f7941e" />
        </g>
      </g>
      <g
         id="g344">
        <g
           id="g346">
          <path
             d="m 499.493,34.254 c 4.544,-21.427 2.504,-43.331 2.441,-65.037 -0.028,-9.671 -15.028,-9.674 -15,0 0.059,20.26 2.334,41.058 -1.906,61.05 -2,9.435 12.458,13.448 14.465,3.987 l 0,0 z"
             id="path348"
             style="fill:#f7941e" />
        </g>
      </g>
      <g
         id="g350">
        <g
           id="g352">
          <path
             d="M 428.372,44.831 C 412.678,38.459 400.994,24.299 387.176,14.9 c -5.349,-3.638 -10.345,5.031 -5.047,8.635 14.736,10.023 26.799,24.124 43.585,30.939 5.977,2.427 8.552,-7.25 2.658,-9.643 l 0,0 z"
             id="path354"
             style="fill:#f7941e" />
        </g>
      </g>
      <g
         id="g356">
        <g
           id="g358">
          <path
             d="m 562.176,52.883 c 12.907,-7.657 24.423,-17.452 38.043,-23.913 5.824,-2.763 0.746,-11.383 -5.047,-8.635 -13.621,6.461 -25.136,16.256 -38.043,23.913 -5.54,3.287 -0.513,11.933 5.047,8.635 l 0,0 z"
             id="path360"
             style="fill:#f7941e" />
        </g>
      </g>
      <g
         id="g362">
        <g
           id="g364">
          <path
             d="m 563.65,184.404 c 15.83,8.326 19.652,27.146 29.728,40.597 3.816,5.096 12.505,0.12 8.635,-5.047 -11.279,-15.059 -15.493,-34.811 -33.315,-44.185 -5.702,-2.998 -10.757,5.632 -5.048,8.635 l 0,0 z"
             id="path366"
             style="fill:#f7941e" />
        </g>
      </g>
      <g
         id="g368">
        <g
           id="g370">
          <path
             d="m 417.998,158.378 c -15.818,7.947 -31.413,16.61 -45.652,27.174 -5.117,3.796 -0.14,12.482 5.047,8.635 14.24,-10.563 29.834,-19.227 45.652,-27.174 5.764,-2.895 0.698,-11.521 -5.047,-8.635 l 0,0 z"
             id="path372"
             style="fill:#f7941e" />
        </g>
      </g>
    </g>
  </g>
</svg>
