<?xml version="1.0" encoding="UTF-8" standalone="no"?>
<!-- Created with Inkscape (http://www.inkscape.org/) -->

<svg
   xmlns:dc="http://purl.org/dc/elements/1.1/"
   xmlns:cc="http://creativecommons.org/ns#"
   xmlns:rdf="http://www.w3.org/1999/02/22-rdf-syntax-ns#"
   xmlns:svg="http://www.w3.org/2000/svg"
   xmlns="http://www.w3.org/2000/svg"
   xmlns:sodipodi="http://sodipodi.sourceforge.net/DTD/sodipodi-0.dtd"
   xmlns:inkscape="http://www.inkscape.org/namespaces/inkscape"
   width="570"
   height="400"
   id="svg4007"
   version="1.1"
   inkscape:version="0.48.3.1 r9886"
   sodipodi:docname="New document 6">
  <defs
     id="defs4009" />
  <sodipodi:namedview
     id="base"
     pagecolor="#ffffff"
     bordercolor="#666666"
     borderopacity="1.0"
     inkscape:pageopacity="0.0"
     inkscape:pageshadow="2"
     inkscape:zoom="0.49497475"
     inkscape:cx="640.85068"
     inkscape:cy="282.88054"
     inkscape:document-units="px"
     inkscape:current-layer="layer1"
     showgrid="false"
     inkscape:window-width="1280"
     inkscape:window-height="724"
     inkscape:window-x="0"
     inkscape:window-y="24"
     inkscape:window-maximized="1" />
  <metadata
     id="metadata4012">
    <rdf:RDF>
      <cc:Work
         rdf:about="">
        <dc:format>image/svg+xml</dc:format>
        <dc:type
           rdf:resource="http://purl.org/dc/dcmitype/StillImage" />
        <dc:title></dc:title>
      </cc:Work>
    </rdf:RDF>
  </metadata>
  <g
     inkscape:label="Layer 1"
     inkscape:groupmode="layer"
     id="layer1"
     transform="translate(0,-652.35862)">
    <g
       transform="translate(-13.253381,462.0279)"
       id="Layer_1">
      <g
         id="g5">
        <g
           id="g7">
          <path
             inkscape:connector-curvature="0"
             d="m 108.957,211.155 c 5.659,13.261 4.383,28.791 3.374,42.812 -1.031,14.332 -3.026,28.819 -1.546,43.188 0.327,3.175 5.33,3.207 5,0 -2.979,-28.931 9.333,-60.769 -2.51,-88.523 -1.263,-2.958 -5.569,-0.407 -4.318,2.523 l 0,0 z"
             id="path9" />
        </g>
      </g>
      <g
         id="g11">
        <g
           id="g13">
          <path
             inkscape:connector-curvature="0"
             d="m 97.446,213.462 c 5.409,-13.213 23.406,-14.664 35.497,-13.356 8.408,0.91 18.148,4.138 14.685,14.195 -3.012,8.749 -10.952,16.153 -17.391,22.448 -6.104,5.967 -12.666,11.417 -19.021,17.106 -1.035,0.926 -0.899,2.59 0,3.535 18.842,19.826 33.587,42.393 46.52,66.405 1.529,2.839 5.846,0.315 4.317,-2.523 -13.132,-24.381 -28.174,-47.291 -47.302,-67.417 0,1.178 0,2.357 0,3.535 7.844,-7.022 15.909,-13.755 23.234,-21.34 6.661,-6.896 15.232,-16.011 15.576,-26.201 0.397,-11.773 -14.682,-14.241 -23.383,-15.017 -13.998,-1.248 -31.699,3 -37.552,17.299 -1.224,2.987 3.616,4.273 4.82,1.331 l 0,0 z"
             id="path15" />
        </g>
      </g>
      <g
         id="g17">
        <g
           id="g19">
          <path
             inkscape:connector-curvature="0"
             d="m 171.736,308.356 c 1.605,-13.841 -1.681,-27.666 -0.301,-41.531 -1.422,0.589 -2.845,1.179 -4.268,1.768 11.847,14.388 17.253,32.041 20.438,50.121 0.559,3.171 5.377,1.823 4.821,-1.329 -3.352,-19.027 -9.288,-37.224 -21.725,-52.327 -1.539,-1.87 -4.077,-0.147 -4.268,1.768 -1.38,13.866 1.906,27.69 0.301,41.531 -0.369,3.199 4.636,3.163 5.002,-0.001 l 0,0 z"
             id="path21" />
        </g>
      </g>
      <g
         id="g23">
        <g
           id="g25">
          <path
             inkscape:connector-curvature="0"
             d="m 166.16,296.969 c 7.263,-2.684 15.084,-1.918 22.561,-3.634 3.142,-0.721 1.81,-5.542 -1.329,-4.821 -7.494,1.72 -15.261,0.937 -22.561,3.634 -2.998,1.107 -1.703,5.941 1.329,4.821 l 0,0 z"
             id="path27" />
        </g>
      </g>
      <g
         id="g29">
        <g
           id="g31">
          <path
             inkscape:connector-curvature="0"
             d="m 220.613,265.553 c -4.398,-2.754 -9.276,1.434 -12.062,4.583 -4.31,4.873 -7.438,11.184 -8.648,17.572 -1.18,6.23 0.06,12.429 5.268,16.41 7.662,5.857 20.279,2.769 28.58,0.555 3.113,-0.83 1.791,-5.653 -1.329,-4.821 -10.683,2.85 -30.832,5.734 -27.587,-11.395 0.934,-4.93 3.308,-9.563 6.263,-13.576 1.286,-1.746 5.169,-6.152 6.993,-5.01 2.74,1.715 5.247,-2.612 2.522,-4.318 l 0,0 z"
             id="path33" />
        </g>
      </g>
      <g
         id="g35">
        <g
           id="g37">
          <path
             inkscape:connector-curvature="0"
             d="m 227.834,248.554 c 1.9,7.32 3.769,14.647 5.616,21.98 2.232,8.863 5.374,18.671 6.492,27.392 0.404,3.152 5.409,3.192 5,0 -1.152,-8.986 -3.964,-17.925 -6.161,-26.692 -2.007,-8.012 -4.051,-16.015 -6.125,-24.009 -0.81,-3.119 -5.633,-1.794 -4.822,1.329 l 0,0 z"
             id="path39" />
        </g>
      </g>
      <g
         id="g41">
        <g
           id="g43">
          <path
             inkscape:connector-curvature="0"
             d="m 237.506,281.917 c 0.709,-4.711 10.1,-3.397 13.426,-3.229 3.224,0.163 3.208,-4.838 0,-5 -5.829,-0.295 -17.051,-1.042 -18.248,6.9 -0.474,3.152 4.343,4.508 4.822,1.329 l 0,0 z"
             id="path45" />
        </g>
      </g>
      <g
         id="g47">
        <g
           id="g49">
          <path
             inkscape:connector-curvature="0"
             d="m 247.395,251.709 c -0.112,-1 -0.244,-2.002 -0.309,-3.007 -1.254,0.72 -2.508,1.439 -3.762,2.159 -0.945,-1.355 -1.217,-1.482 -0.816,-0.379 0.163,0.638 0.342,1.271 0.538,1.899 0.545,1.843 1.164,3.605 1.621,5.487 1.138,4.684 2.071,9.417 3.05,14.135 1.982,9.555 4.177,19.041 7.803,28.125 1.18,2.957 6.018,1.668 4.821,-1.329 -4.08,-10.222 -6.316,-20.948 -8.542,-31.69 -1.018,-4.91 -1.662,-10.369 -3.577,-15.016 -0.699,-1.696 -0.649,-4.486 -2.374,-5.55 -1.547,-0.954 -3.883,0.263 -3.762,2.159 0.065,1.005 0.197,2.007 0.309,3.007 0.354,3.167 5.358,3.202 5,0 l 0,0 z"
             id="path51" />
        </g>
      </g>
      <g
         id="g53">
        <g
           id="g55">
          <path
             inkscape:connector-curvature="0"
             d="m 264.402,258.412 c -1.713,-0.25 -1.513,-2.062 -1.428,-1.061 0.063,0.75 0.064,1.508 0.077,2.261 0.036,2.056 0.051,4.112 0.125,6.167 0.188,5.213 0.76,10.485 2.292,15.487 3.938,12.849 15.039,16.428 27.203,12.397 3.045,-1.009 1.74,-5.838 -1.329,-4.821 -5.736,1.901 -12.275,2.955 -17.003,-1.634 -3.569,-3.464 -4.755,-8.986 -5.506,-13.702 -0.706,-4.428 -0.718,-8.958 -0.774,-13.43 -0.024,-1.876 0.365,-6.091 -2.327,-6.485 -3.153,-0.462 -4.51,4.355 -1.33,4.821 l 0,0 z"
             id="path57" />
        </g>
      </g>
      <g
         id="g59">
        <g
           id="g61">
          <path
             inkscape:connector-curvature="0"
             d="m 265.882,279.177 c 7.484,-2.02 14.712,-4.855 22.197,-6.875 3.11,-0.839 1.789,-5.663 -1.329,-4.821 -7.484,2.02 -14.712,4.855 -22.197,6.875 -3.11,0.839 -1.789,5.663 1.329,4.821 l 0,0 z"
             id="path63" />
        </g>
      </g>
      <g
         id="g65">
        <g
           id="g67">
          <path
             inkscape:connector-curvature="0"
             d="m 261.312,257.297 c 7.008,-5.874 16.572,-6.873 25.17,-8.878 3.14,-0.732 1.808,-5.553 -1.329,-4.821 -9.632,2.247 -19.553,3.606 -27.376,10.165 -2.474,2.072 1.082,5.591 3.535,3.534 l 0,0 z"
             id="path69" />
        </g>
      </g>
      <g
         id="g71">
        <g
           id="g73">
          <path
             inkscape:connector-curvature="0"
             d="m 293.722,241.136 c 5.145,16.741 5.017,34.453 7.998,51.603 0.27,1.552 2.41,2.334 3.672,1.494 7.13,-4.743 15.846,-3.914 23.881,-5.786 3.14,-0.731 1.808,-5.552 -1.33,-4.821 -8.534,1.988 -17.482,1.239 -25.074,6.29 1.224,0.498 2.448,0.996 3.672,1.494 -2.981,-17.153 -2.85,-34.852 -7.998,-51.603 -0.944,-3.073 -5.771,-1.762 -4.821,1.329 l 0,0 z"
             id="path75" />
        </g>
      </g>
      <g
         id="g77">
        <g
           id="g79">
          <path
             inkscape:connector-curvature="0"
             d="m 326.001,240.671 c -0.725,-5.714 -2.325,-11.15 -4.073,-16.623 -0.978,-3.059 -5.806,-1.751 -4.822,1.329 1.602,5.011 3.231,10.057 3.896,15.294 0.398,3.154 5.404,3.193 4.999,0 l 0,0 z"
             id="path81" />
        </g>
      </g>
      <g
         id="g83">
        <g
           id="g85">
          <path
             inkscape:connector-curvature="0"
             d="m 359.553,222.244 c -6.773,-1.849 -11.245,3.402 -13.975,8.968 -0.65,1.326 -0.264,2.567 0.896,3.42 4.231,3.114 9.222,4.489 14.271,5.676 5.167,1.215 11.1,1.973 15.01,5.892 11.401,11.431 -8.226,19.248 -17.402,19.768 -3.205,0.182 -3.223,5.183 0,5 10.885,-0.617 27.856,-6.736 25.58,-20.462 -1.048,-6.317 -7.221,-10.632 -12.742,-12.663 -7.412,-2.727 -15.623,-2.693 -22.192,-7.528 0.299,1.14 0.598,2.28 0.896,3.42 1.601,-3.263 3.973,-7.859 8.328,-6.67 3.116,0.851 4.436,-3.973 1.33,-4.821 l 0,0 z"
             id="path87" />
        </g>
      </g>
      <g
         id="g89">
        <g
           id="g91">
          <path
             inkscape:connector-curvature="0"
             d="m 114.326,345.304 c -0.153,-1.465 -0.531,-3.364 -0.089,-4.77 -1.607,0 -3.214,0 -4.821,0 13.136,42.977 20.858,87.374 33.695,130.436 0.833,2.792 4.715,2.107 4.911,-0.665 2.023,-28.74 -4.232,-57.733 0.998,-86.292 -1.523,0.199 -3.046,0.398 -4.569,0.597 13.573,26.451 18.111,56.361 28.009,84.187 0.766,2.152 4.279,2.606 4.821,0 8.976,-43.115 -5.286,-87.172 2.174,-130.436 0.543,-3.153 -4.274,-4.502 -4.821,-1.329 -7.462,43.275 6.786,87.399 -2.174,130.435 1.607,0 3.214,0 4.821,0 -10.049,-28.252 -14.728,-58.517 -28.513,-85.38 -0.949,-1.849 -4.181,-1.523 -4.569,0.597 -5.321,29.054 0.88,58.4 -1.177,87.622 1.637,-0.222 3.274,-0.443 4.911,-0.665 -12.837,-43.061 -20.559,-87.458 -33.695,-130.435 -0.732,-2.397 -4.077,-2.371 -4.821,0 -0.718,2.288 -0.335,3.746 -0.089,6.099 0.33,3.173 5.334,3.205 4.998,-0.001 l 0,0 z"
             id="path93" />
        </g>
      </g>
      <g
         id="g95">
        <g
           id="g97">
          <path
             inkscape:connector-curvature="0"
             d="m 194.419,355.262 c 0.093,-0.14 1.107,-2.27 1.277,-2.364 -1.254,-0.72 -2.508,-1.439 -3.762,-2.159 0.035,38.77 2.13,77.673 -2.174,116.304 -0.199,1.789 1.736,2.613 3.165,2.411 19.469,-2.76 40.605,-10.128 57.119,-20.903 2.688,-1.755 0.186,-6.086 -2.523,-4.318 -16.192,10.567 -36.819,17.692 -55.925,20.399 1.055,0.804 2.11,1.607 3.165,2.411 4.304,-38.631 2.209,-77.534 2.174,-116.304 -0.002,-1.929 -2.112,-3.07 -3.762,-2.159 -1.755,0.97 -2.004,2.557 -3.071,4.158 -1.794,2.692 2.539,5.192 4.317,2.524 l 0,0 z"
             id="path99" />
        </g>
      </g>
      <g
         id="g101">
        <g
           id="g103">
          <path
             inkscape:connector-curvature="0"
             d="m 192.925,413.545 c 2.043,0.391 -0.868,3.651 1.864,1.803 1.29,-0.873 2.677,-1.609 4.048,-2.346 4.112,-2.208 8.373,-4.148 12.619,-6.083 7.033,-3.204 14.262,-6.044 21.197,-9.456 2.893,-1.423 0.358,-5.735 -2.523,-4.317 -9.305,4.578 -19.02,8.316 -28.375,12.803 -3.915,1.877 -8.108,3.744 -11.458,6.56 -2.246,1.888 -1.75,5.276 1.299,5.859 3.151,0.6 4.494,-4.219 1.329,-4.823 l 0,0 z"
             id="path105" />
        </g>
      </g>
      <g
         id="g107">
        <g
           id="g109">
          <path
             inkscape:connector-curvature="0"
             d="m 186.42,363.376 c 19.458,-17.021 45.336,-21.097 67.972,-32.218 2.894,-1.422 0.359,-5.733 -2.523,-4.317 -23.152,11.375 -49.057,15.567 -68.984,33 -2.431,2.127 1.119,5.649 3.535,3.535 l 0,0 z"
             id="path111" />
        </g>
      </g>
      <g
         id="g113">
        <g
           id="g115">
          <path
             inkscape:connector-curvature="0"
             d="m 282.901,320.067 c -6.516,2.714 -11.95,9.461 -15.625,15.28 -3.116,4.934 -8.722,12.355 -5.888,18.621 2.165,4.785 8.202,5.905 12.817,6.793 8.575,1.652 17.011,3.107 25.313,5.932 7.867,2.677 16.791,6.748 21.289,14.109 4.989,8.165 -1.998,17.618 -8.062,22.855 -6.443,5.565 -14.069,9.948 -21.675,13.699 -6.933,3.419 -16.291,7.677 -24.232,5.972 -3.144,-0.675 -4.481,4.146 -1.329,4.822 6.816,1.463 13.839,-0.642 20.194,-3.034 8.432,-3.176 16.407,-7.673 23.818,-12.766 12.133,-8.337 24.407,-22.958 13.431,-37.158 -4.725,-6.112 -12.584,-9.653 -19.569,-12.395 -8.285,-3.252 -17.022,-4.98 -25.757,-6.483 -5.702,-0.98 -13.692,-1.541 -11.249,-9.1 1.487,-4.603 4.775,-9.153 7.736,-12.923 2.552,-3.25 6.194,-7.77 10.117,-9.404 2.931,-1.22 1.647,-6.059 -1.329,-4.82 l 0,0 z"
             id="path117" />
        </g>
      </g>
      <g
         id="g119">
        <g
           id="g121">
          <path
             inkscape:connector-curvature="0"
             d="m 348.957,325.754 c -7.812,-6.017 -12.485,26.457 -13.193,31.681 -2.147,15.847 -2.56,32.578 1.223,48.211 3.221,13.313 11.839,25.888 27.013,24.643 11.487,-0.942 19.361,-8.862 23.394,-19.195 8.212,-21.042 2.834,-48.153 -5.51,-68.293 -5.401,-13.036 -19.508,-36.758 -36.536,-24.655 -2.604,1.851 -0.111,6.19 2.523,4.317 8.361,-5.943 16.194,0.356 21.336,7.376 7.817,10.67 12.053,24.008 14.654,36.831 2.663,13.126 3.523,27.487 -0.381,40.454 -3.29,10.928 -12.229,19.806 -24.401,18.116 -18.743,-2.603 -19.788,-31.333 -19.837,-45.439 -0.03,-8.79 0.663,-17.643 2.148,-26.307 0.597,-3.479 1.404,-6.933 2.131,-10.387 0.529,-2.515 1.131,-5.012 1.816,-7.489 0.358,-1.294 0.788,-2.563 1.257,-3.82 0.215,-0.54 0.47,-1.061 0.762,-1.562 0.623,-0.686 0.315,-0.741 -0.922,-0.163 2.554,1.967 5.039,-2.381 2.523,-4.319 l 0,0 z"
             id="path123" />
        </g>
      </g>
      <g
         id="g125">
        <g
           id="g127">
          <path
             inkscape:connector-curvature="0"
             d="m 408.239,410.521 c 0.016,4.929 0.628,8.864 3.993,12.638 1.513,1.697 4.214,0.296 4.268,-1.768 0.928,-35.607 -6.336,-70.903 -4.348,-106.522 -1.553,0.42 -3.105,0.841 -4.658,1.262 19.408,30.56 27.819,66.08 41.051,99.403 0.79,1.989 4.424,2.742 4.822,0 2.755,-19.004 -1.976,-38.251 -5.113,-56.919 -3.181,-18.924 -6.278,-40.712 4.861,-57.701 -1.439,0 -2.879,0 -4.318,0 5.655,8.845 7.65,19.747 9.537,29.913 2.105,11.349 3.679,22.66 6.598,33.847 7.398,28.349 17.018,56.453 17.221,86.065 0.022,3.223 5.022,3.226 5,0 -0.206,-30.032 -9.803,-58.656 -17.399,-87.395 -2.952,-11.17 -4.547,-22.494 -6.598,-33.847 -1.912,-10.585 -4.161,-21.911 -10.04,-31.107 -1.04,-1.626 -3.271,-1.596 -4.318,0 -10.562,16.11 -9.119,36.056 -6.511,54.267 2.885,20.146 9.229,41.063 6.259,61.547 1.607,0 3.215,0 4.822,0 -13.389,-33.716 -21.918,-69.674 -41.557,-100.596 -1.364,-2.149 -4.52,-1.223 -4.658,1.262 -1.988,35.619 5.275,70.915 4.348,106.522 1.423,-0.589 2.845,-1.179 4.268,-1.768 -2.445,-2.743 -2.518,-5.608 -2.528,-9.103 -0.012,-3.223 -5.012,-3.224 -5.002,0 l 0,0 z"
             id="path129" />
        </g>
      </g>
      <g
         id="g131">
        <g
           id="g133">
          <path
             inkscape:connector-curvature="0"
             d="m 495.506,323.74 c 0.791,-1.79 1.385,-3.646 2.174,-5.435 -1.553,-0.42 -3.105,-0.841 -4.658,-1.262 -0.048,39.747 -3.342,80.913 9.872,119.143 0.479,1.383 1.664,1.992 3.076,1.746 14.357,-2.508 28.629,-8.162 42.143,-13.438 7.084,-2.765 14.174,-5.713 20.816,-9.433 3.029,-1.696 8.687,-4.687 8.44,-8.889 -0.188,-3.204 -5.188,-3.223 -5,0 0.109,1.877 -7.062,5.196 -8.807,6.104 -6.731,3.504 -13.836,6.304 -20.924,8.991 -12.221,4.634 -25.069,9.584 -37.999,11.842 1.025,0.582 2.051,1.164 3.076,1.746 -13.07,-37.812 -9.741,-78.5 -9.694,-117.813 0.003,-2.327 -3.612,-3.629 -4.658,-1.262 -0.791,1.79 -1.385,3.646 -2.174,5.435 -1.291,2.922 3.016,5.469 4.317,2.525 l 0,0 z"
             id="path135" />
        </g>
      </g>
      <g
         id="g137">
        <g
           id="g139">
          <path
             inkscape:connector-curvature="0"
             d="m 492.261,376.5 c -0.772,0.071 -1.486,0.122 -2.229,0.333 1.055,0.803 2.109,1.607 3.164,2.411 0,-0.003 0,-0.006 0,-0.009 -0.412,0.719 -0.825,1.439 -1.238,2.159 3.141,-2.25 5.855,-4.75 9.284,-6.631 4.41,-2.419 9.271,-3.971 14.077,-5.38 8.397,-2.461 17.049,-3.939 25.434,-6.45 3.08,-0.922 1.768,-5.749 -1.33,-4.821 -9.783,2.93 -19.886,4.609 -29.619,7.735 -4.68,1.503 -9.227,3.458 -13.464,5.952 -2.176,1.281 -8.144,4.553 -8.144,7.446 0,1.616 1.598,2.854 3.165,2.411 0.3,-0.052 0.601,-0.103 0.9,-0.154 3.183,-0.294 3.212,-5.296 0,-5.002 l 0,0 z"
             id="path141" />
        </g>
      </g>
      <g
         id="g143">
        <g
           id="g145">
          <path
             inkscape:connector-curvature="0"
             d="m 485.914,326.811 c 10.09,-6.846 21.687,-11.559 32.744,-16.576 12.45,-5.649 25.097,-11.13 36.821,-18.207 2.756,-1.663 0.244,-5.988 -2.523,-4.317 -11.725,7.076 -24.371,12.56 -36.821,18.207 -11.058,5.016 -22.655,9.731 -32.744,16.576 -2.652,1.798 -0.154,6.133 2.523,4.317 l 0,0 z"
             id="path147" />
        </g>
      </g>
      <g
         id="g149">
        <g
           id="g151">
          <path
             inkscape:connector-curvature="0"
             d="m 193.77,510.759 c 2.935,1.174 3.801,8.262 4.321,10.783 1.352,6.568 1.799,13.332 2.104,20.018 0.508,11.143 1.173,23.688 -1.649,34.602 -0.808,3.125 4.015,4.449 4.821,1.33 3.295,-12.745 2.392,-27.397 1.589,-40.383 -0.436,-7.038 -1.176,-14.191 -3.014,-21.016 -1.066,-3.961 -2.758,-8.521 -6.843,-10.156 -2.996,-1.199 -4.285,3.639 -1.329,4.822 l 0,0 z"
             id="path153" />
        </g>
      </g>
      <g
         id="g155">
        <g
           id="g157">
          <path
             inkscape:connector-curvature="0"
             d="m 190.324,509.013 c 5.778,-16.356 27.578,-0.186 33.92,7.229 3.862,4.515 8.061,11.738 5.286,17.779 -4.327,9.422 -20.067,9.692 -28.573,9.87 -3.22,0.067 -3.226,5.067 0,5 10.848,-0.227 27.141,-1.198 32.89,-12.347 4.118,-7.982 -0.602,-17.035 -5.636,-23.318 -9.066,-11.313 -35.281,-26.567 -42.708,-5.544 -1.077,3.049 3.754,4.348 4.821,1.331 l 0,0 z"
             id="path159" />
        </g>
      </g>
      <g
         id="g161">
        <g
           id="g163">
          <path
             inkscape:connector-curvature="0"
             d="m 245.944,521.629 c -2,-0.612 -1.228,-1.354 -0.94,1.077 0.249,2.104 0.362,4.227 0.479,6.342 0.337,6.06 0.458,12.132 0.569,18.198 0.193,10.583 0.23,21.169 0.23,31.754 0,3.225 5,3.225 5,0 0,-12.053 -0.055,-24.106 -0.318,-36.156 -0.133,-6.108 -0.287,-12.229 -0.783,-18.321 -0.192,-2.359 -0.034,-6.837 -2.908,-7.716 -3.091,-0.946 -4.403,3.881 -1.329,4.822 l 0,0 z"
             id="path165" />
        </g>
      </g>
      <g
         id="g167">
        <g
           id="g169">
          <path
             inkscape:connector-curvature="0"
             d="m 240.072,518.305 c 7.233,-11.987 24.046,7.765 27.748,13.859 3.281,5.401 5.805,12.243 3.669,18.505 -2.805,8.226 -14.454,9.322 -21.619,9.526 0.42,1.553 0.841,3.105 1.262,4.658 15.043,-7.007 23.063,14.836 33.346,21.74 2.686,1.803 5.185,-2.531 2.523,-4.318 -12.878,-8.646 -19.245,-30.658 -38.393,-21.738 -2.296,1.069 -1.122,4.727 1.262,4.658 9.533,-0.271 21.623,-2.234 25.97,-12.04 3.434,-7.746 0.316,-16.644 -3.703,-23.515 -5.751,-9.833 -26.461,-30.302 -36.382,-13.859 -1.671,2.768 2.654,5.28 4.317,2.524 l 0,0 z"
             id="path171" />
        </g>
      </g>
      <g
         id="g173">
        <g
           id="g175">
          <path
             inkscape:connector-curvature="0"
             d="m 292.941,524.246 c 0.748,-0.545 0.271,-0.841 -1.43,-0.885 0.185,0.446 0.26,0.968 0.316,1.444 0.177,1.519 0.125,3.07 0.091,4.595 -0.085,3.812 -0.462,7.619 -0.772,11.417 -0.59,7.239 -0.293,13.742 2.006,20.758 5.576,17.019 22.521,12.004 35.644,7.879 3.064,-0.964 1.755,-5.792 -1.33,-4.822 -6.758,2.125 -16.628,6.447 -23.666,3.255 -6.556,-2.975 -8.213,-14.073 -8.086,-20.362 0.144,-7.129 1.403,-14.204 1.203,-21.349 -0.125,-4.462 -2.804,-9.787 -7.511,-5.465 -2.38,2.185 1.166,5.711 3.535,3.535 l 0,0 z"
             id="path177" />
        </g>
      </g>
      <g
         id="g179">
        <g
           id="g181">
          <path
             inkscape:connector-curvature="0"
             d="m 291.838,549.89 c 10.934,-4.318 22.137,-7.62 33.696,-9.783 3.166,-0.593 1.821,-5.412 -1.33,-4.822 -11.558,2.164 -22.761,5.466 -33.695,9.783 -2.962,1.17 -1.673,6.007 1.329,4.822 l 0,0 z"
             id="path183" />
        </g>
      </g>
      <g
         id="g185">
        <g
           id="g187">
          <path
             inkscape:connector-curvature="0"
             d="m 279.217,523.892 c 7.849,-0.218 15.44,-3.64 22.667,-6.381 9.447,-3.583 19.271,-7.552 29.507,-7.75 3.22,-0.062 3.227,-5.062 0,-5 -9.264,0.18 -18.114,3.207 -26.722,6.381 -8.039,2.964 -16.735,7.508 -25.453,7.75 -3.216,0.088 -3.225,5.089 10e-4,5 l 0,0 z"
             id="path189" />
        </g>
      </g>
      <g
         id="g191">
        <g
           id="g193">
          <path
             inkscape:connector-curvature="0"
             d="m 345.284,505.509 c -1.644,4.443 -7.026,11.091 -5.283,16.138 0.934,2.704 3.52,4.699 5.614,6.472 3.262,2.759 6.68,5.231 9.67,8.299 4.183,4.291 8.852,10.415 9.125,16.664 0.352,8.004 -12.977,4.897 -17.137,3.942 -3.139,-0.72 -4.472,4.101 -1.33,4.822 6.463,1.483 16.576,3.595 21.469,-2.517 3.8,-4.746 1.47,-11.368 -0.985,-16.146 -4.013,-7.81 -10.645,-13.144 -17.276,-18.601 -1.895,-1.56 -5.159,-3.53 -4.204,-6.302 1.346,-3.91 3.712,-7.528 5.16,-11.441 1.121,-3.031 -3.713,-4.326 -4.823,-1.33 l 0,0 z"
             id="path195" />
        </g>
      </g>
      <g
         id="g197">
        <g
           id="g199">
          <path
             inkscape:connector-curvature="0"
             d="m 387.232,516.363 c -9.187,8.492 -18.661,28.607 -9.478,40.025 7.896,9.815 22.619,7.747 30.052,-1.159 6.902,-8.271 9.18,-20.727 5.772,-30.916 -4.458,-13.331 -18.014,-16.818 -30.679,-15.116 -3.183,0.429 -1.821,5.245 1.33,4.822 10.077,-1.355 20.712,1.233 24.527,11.623 2.997,8.163 1.063,17.863 -3.678,24.95 -5.019,7.503 -15.49,10.139 -22.604,3.624 -9.298,-8.515 1.224,-27.783 8.292,-34.318 2.374,-2.192 -1.17,-5.719 -3.534,-3.535 l 0,0 z"
             id="path201" />
        </g>
      </g>
      <g
         id="g203">
        <g
           id="g205">
          <path
             inkscape:connector-curvature="0"
             d="m 40.072,486.783 c 4.808,-7.817 3.421,-19.834 3.115,-28.519 -0.434,-12.341 -1.894,-24.674 -1.806,-37.029 0.104,-14.677 1.838,-29.901 4.124,-44.379 2.61,-16.539 7.493,-32.895 17.394,-46.595 -1.309,0.169 -2.618,0.337 -3.926,0.506 10.992,9.496 14.833,25.525 17.949,39.088 3.377,14.7 5.127,29.721 8.506,44.417 2.956,12.855 8.567,25.045 13.097,37.39 2.534,6.908 4.907,13.891 6.705,21.03 1.285,5.104 2.862,11.379 0.927,16.512 -1.139,3.023 3.695,4.317 4.821,1.33 1.784,-4.735 0.896,-10.158 -10e-4,-14.985 -1.446,-7.783 -4.105,-15.362 -6.757,-22.801 -4.711,-13.215 -10.714,-26.12 -13.971,-39.806 -3.693,-15.518 -5.439,-31.438 -9.101,-46.973 -3.199,-13.571 -7.683,-29.271 -18.64,-38.737 -1.3,-1.124 -2.941,-0.858 -3.926,0.506 -18.773,25.976 -19.744,59.65 -22.081,90.393 -0.85,11.174 0.787,22.675 1.396,33.83 0.349,6.393 0.582,12.8 0.373,19.201 -0.139,4.238 -0.222,9.37 -2.515,13.098 -1.695,2.755 2.631,5.263 4.317,2.523 l 0,0 z"
             id="path207" />
        </g>
      </g>
      <g
         id="g209">
        <g
           id="g211">
          <path
             inkscape:connector-curvature="0"
             d="m 26.193,430.752 c -0.231,0.76 0.071,0.037 0.533,-0.301 0.796,-0.583 1.667,-1.066 2.525,-1.547 2.512,-1.405 5.159,-2.58 7.792,-3.736 7.896,-3.47 16.029,-6.427 24.151,-9.316 13.429,-4.776 27.417,-10.24 41.514,-12.701 3.172,-0.555 1.823,-5.372 -1.329,-4.822 -15.528,2.712 -30.942,8.862 -45.7,14.204 -7.894,2.857 -15.753,5.862 -23.406,9.319 -3.292,1.486 -9.7,3.626 -10.9,7.57 -0.942,3.094 3.885,4.405 4.82,1.33 l 0,0 z"
             id="path213" />
        </g>
      </g>
    </g>
  </g>
</svg>
