<?xml version="1.0" encoding="UTF-8" standalone="no"?>
<!-- Created with Inkscape (http://www.inkscape.org/) -->

<svg
   xmlns:dc="http://purl.org/dc/elements/1.1/"
   xmlns:cc="http://creativecommons.org/ns#"
   xmlns:rdf="http://www.w3.org/1999/02/22-rdf-syntax-ns#"
   xmlns:svg="http://www.w3.org/2000/svg"
   xmlns="http://www.w3.org/2000/svg"
   version="1.1"
   width="300"
   height="100"
   id="svg3773">
  <defs
     id="defs3775" />
  <metadata
     id="metadata3778">
    <rdf:RDF>
      <cc:Work
         rdf:about="">
        <dc:format>image/svg+xml</dc:format>
        <dc:type
           rdf:resource="http://purl.org/dc/dcmitype/StillImage" />
        <dc:title></dc:title>
      </cc:Work>
    </rdf:RDF>
  </metadata>
  <g
     transform="translate(0,-952.36218)"
     id="layer1">
    <g
       transform="translate(-7.4700003,844.27534)"
       id="Layer_13">
      <g
         id="g216">
        <g
           id="g218">
          <path
             d="m 16.935,152.913 c 0.57,5.644 2.909,11.455 4.573,16.833 2.34,7.565 4.708,15.637 8.812,22.472 1.326,2.208 4.519,1.176 4.659,-1.262 0.254,-4.433 1.919,-8.598 2.174,-13.043 -1.422,0.589 -2.845,1.179 -4.268,1.768 6.264,6.441 11.183,14.104 18.984,18.87 1.731,1.058 3.61,-0.348 3.762,-2.159 1.324,-15.784 0.581,-34.775 -6.863,-49.088 -1.488,-2.861 -5.803,-0.333 -4.317,2.523 7.027,13.512 7.429,31.68 6.18,46.564 1.254,-0.72 2.508,-1.439 3.762,-2.159 -7.375,-4.506 -12.045,-11.993 -17.972,-18.087 -1.595,-1.641 -4.147,-0.333 -4.268,1.768 -0.254,4.433 -1.919,8.598 -2.174,13.043 1.553,-0.42 3.106,-0.841 4.659,-1.262 -3.892,-6.483 -6.06,-14.109 -8.308,-21.278 -1.057,-3.369 -2.042,-6.761 -2.984,-10.164 -0.333,-1.201 -0.651,-2.405 -0.961,-3.611 -0.09,-0.351 -0.529,-2.516 -0.449,-1.729 -0.322,-3.176 -5.325,-3.207 -5.001,0.001 l 0,0 z"
             id="path220" />
        </g>
      </g>
      <g
         id="g222">
        <g
           id="g224">
          <path
             d="m 60.564,173.55 c 3.288,1.688 3.976,7.515 4.697,10.745 1.026,4.601 1.624,9.292 2.85,13.848 0.436,1.62 2.256,2.229 3.672,1.494 5.378,-2.791 11.169,-6.137 15.724,-10.174 2.417,-2.143 -1.132,-5.666 -3.535,-3.535 -4.216,3.736 -9.732,6.808 -14.712,9.392 1.224,0.498 2.448,0.996 3.672,1.494 -1.442,-5.359 -2.122,-10.895 -3.415,-16.291 -0.966,-4.035 -2.437,-9.24 -6.43,-11.29 -2.861,-1.47 -5.392,2.844 -2.523,4.317 l 0,0 z"
             id="path226" />
        </g>
      </g>
      <g
         id="g228">
        <g
           id="g230">
          <path
             d="m 67.925,184.671 c 4.367,-1.615 7.657,-5.025 10.886,-8.252 2.283,-2.281 -1.253,-5.816 -3.535,-3.535 -2.531,2.529 -5.234,5.692 -8.68,6.966 -2.997,1.108 -1.701,5.942 1.329,4.821 l 0,0 z"
             id="path232" />
        </g>
      </g>
      <g
         id="g234">
        <g
           id="g236">
          <path
             d="m 62.491,171.628 c 5.063,-1.385 7.93,-5.369 10.189,-9.845 1.449,-2.87 -2.864,-5.402 -4.317,-2.523 -1.648,3.264 -3.449,6.521 -7.201,7.547 -3.107,0.849 -1.787,5.673 1.329,4.821 l 0,0 z"
             id="path238" />
        </g>
      </g>
      <g
         id="g240">
        <g
           id="g242">
          <path
             d="m 82.152,152.913 c 0.944,8.528 1.267,17.968 5.383,25.696 3.747,7.035 11.424,7.667 18.434,6.063 3.143,-0.719 1.81,-5.54 -1.329,-4.821 -6.136,1.404 -11.139,0.517 -13.717,-5.679 -2.736,-6.573 -2.997,-14.275 -3.77,-21.258 -0.351,-3.17 -5.355,-3.204 -5.001,-10e-4 l 0,0 z"
             id="path244" />
        </g>
      </g>
      <g
         id="g246">
        <g
           id="g248">
          <path
             d="m 110.739,152.586 c -8.224,0.44 -5.956,13.176 -3.888,17.932 1.612,3.707 4.296,6.836 8.226,8.106 4.974,1.607 10.008,-1.402 13.734,-4.378 2.52,-2.012 -1.043,-5.526 -3.535,-3.535 -2.454,1.96 -5.609,3.934 -8.87,3.092 -2.496,-0.644 -4.023,-3.18 -5.037,-5.345 -1.051,-2.246 -1.465,-4.865 -1.457,-7.325 0.003,-0.995 0.156,-1.929 0.461,-2.874 0.227,-0.701 0.486,-0.678 0.366,-0.672 3.207,-0.172 3.224,-5.173 0,-5.001 l 0,0 z"
             id="path250" />
        </g>
      </g>
      <g
         id="g252">
        <g
           id="g254">
          <path
             d="m 132.494,150.564 c -3.312,4.342 -5.206,10.669 -3.819,16.049 1.768,6.856 9.648,7.052 14.987,4.73 5.395,-2.345 7.583,-8.628 5.125,-13.864 -2.896,-6.167 -9.783,-8.977 -16.308,-8.154 -3.155,0.397 -3.193,5.402 0,5 4.182,-0.527 8.504,0.417 11.081,4.019 2.179,3.044 1.43,6.417 -1.72,8.321 -3.615,2.186 -8.343,1.536 -8.627,-3.155 -0.222,-3.659 1.417,-7.563 3.599,-10.423 1.956,-2.565 -2.391,-5.05 -4.318,-2.523 l 0,0 z"
             id="path256" />
        </g>
      </g>
      <g
         id="g258">
        <g
           id="g260">
          <path
             d="m 158.565,163.021 c 8.886,0.845 3.742,-13.385 3.587,-17.717 -1.553,0.42 -3.106,0.841 -4.659,1.262 3.71,5.01 7.159,10.207 10.869,15.217 1.538,2.076 4.355,1.266 4.659,-1.262 0.914,-7.61 0.083,-15.196 0,-22.826 -1.422,0.589 -2.845,1.179 -4.268,1.768 7.658,7.03 9.631,17.992 14.827,26.668 1.654,2.762 5.979,0.25 4.317,-2.523 -5.453,-9.105 -7.551,-20.283 -15.609,-27.68 -1.564,-1.437 -4.292,-0.492 -4.268,1.768 0.083,7.63 0.914,15.216 0,22.826 1.553,-0.42 3.106,-0.841 4.659,-1.262 -3.71,-5.01 -7.159,-10.207 -10.869,-15.217 -1.364,-1.842 -4.756,-1.451 -4.659,1.262 0.065,1.833 1.67,12.742 1.413,12.717 -3.209,-0.306 -3.179,4.697 0.001,4.999 l 0,0 z"
             id="path262" />
        </g>
      </g>
      <g
         id="g264">
        <g
           id="g266">
          <path
             d="m 188.594,139.463 c 0.486,-0.807 1.205,-1.317 2.158,-1.531 -1.055,-0.804 -2.11,-1.607 -3.165,-2.411 -0.296,5.629 -1.226,15.23 4.284,18.987 5.923,4.039 14.172,-1.678 19.043,-4.872 2.684,-1.76 0.182,-6.091 -2.523,-4.317 -2.983,1.956 -9.644,7.222 -13.559,5.17 -3.772,-1.979 -2.414,-11.75 -2.245,-14.968 0.094,-1.782 -1.657,-2.632 -3.165,-2.411 -2.135,0.313 -3.027,1.205 -4.364,2.817 -2.042,2.462 1.475,6.02 3.536,3.536 l 0,0 z"
             id="path268" />
        </g>
      </g>
      <g
         id="g270">
        <g
           id="g272">
          <path
             d="m 190.768,145.985 c 2.671,-2.541 6.213,-4.122 9.277,-6.131 2.684,-1.76 0.182,-6.091 -2.523,-4.317 -3.438,2.254 -7.287,4.057 -10.289,6.913 -2.341,2.226 1.201,5.756 3.535,3.535 l 0,0 z"
             id="path274" />
        </g>
      </g>
      <g
         id="g276">
        <g
           id="g278">
          <path
             d="m 185.914,136.593 c 7.928,-3.367 15.985,-6.416 23.913,-9.783 2.959,-1.257 0.408,-5.562 -2.523,-4.317 -7.928,3.367 -15.985,6.416 -23.913,9.783 -2.96,1.257 -0.409,5.562 2.523,4.317 l 0,0 z"
             id="path280" />
        </g>
      </g>
      <g
         id="g282">
        <g
           id="g284">
          <path
             d="m 228.98,122.056 c 2.496,7.983 4.977,15.974 7.609,23.913 1.009,3.045 5.839,1.74 4.821,-1.329 -2.632,-7.939 -5.113,-15.93 -7.609,-23.913 -0.958,-3.067 -5.785,-1.757 -4.821,1.329 l 0,0 z"
             id="path286" />
        </g>
      </g>
      <g
         id="g288">
        <g
           id="g290">
          <path
             d="m 224.447,127.062 c 7.187,-2.368 14.464,-4.442 21.739,-6.522 3.095,-0.884 1.778,-5.709 -1.329,-4.821 -7.274,2.079 -14.552,4.154 -21.739,6.522 -3.047,1.004 -1.742,5.834 1.329,4.821 l 0,0 z"
             id="path292" />
        </g>
      </g>
      <g
         id="g294">
        <g
           id="g296">
          <path
             d="m 256.814,118.98 c -7.113,2.275 -10.756,11.908 -6.097,17.942 3.786,4.903 10.982,6.656 16.182,3.038 4.379,-3.047 6.268,-8.796 4.749,-13.866 -2.214,-7.394 -10.647,-9.798 -17.43,-10.464 -3.209,-0.315 -3.178,4.688 0,5 4.535,0.445 9.801,1.666 12.232,5.924 1.48,2.593 0.713,6.015 -1.153,8.184 -1.978,2.3 -4.952,2.763 -7.632,1.452 -2.779,-1.359 -4.612,-3.702 -3.975,-6.851 0.443,-2.191 2.248,-4.832 4.453,-5.537 3.059,-0.979 1.751,-5.807 -1.329,-4.822 l 0,0 z"
             id="path298" />
        </g>
      </g>
    </g>
  </g>
</svg>
